Blinker-SemiBold.ufo
<glyph name="exclam" format="1">
  <advance width="232"/>
  <unicode hex="0021"/>
  <outline>
    <contour>
      <point x="50" y="627" type="line"/>
      <point x="182" y="627" type="line"/>
      <point x="167" y="187" type="line"/>
      <point x="65" y="187" type="line"/>
    </contour>
    <contour>
      <point x="176" y="108" type="line"/>
      <point x="176" y="0" type="line"/>
      <point x="56" y="0" type="line"/>
      <point x="56" y="108" type="line"/>
    </contour>
  </outline>
</glyph>
<glyph name="quotedbl" format="1">
  <advance width="318"/>
  <unicode hex="0022"/>
  <outline>
    <contour>
      <point x="42" y="627" type="line"/>
      <point x="121" y="627" type="line"/>
      <point x="121" y="399" type="line"/>
      <point x="42" y="399" type="line"/>
    </contour>
    <contour>
      <point x="197" y="627" type="line"/>
      <point x="276" y="627" type="line"/>
      <point x="276" y="399" type="line"/>
      <point x="197" y="399" type="line"/>
    </contour>
  </outline>
</glyph>
<glyph name="numbersign" format="1">
  <advance width="562"/>
  <unicode hex="0023"/>
  <outline>
    <contour>
      <point x="541" y="493" type="line"/>
      <point x="541" y="416" type="line"/>
      <point x="445" y="416" type="line"/>
      <point x="415" y="222" type="line"/>
      <point x="506" y="222" type="line"/>
      <point x="506" y="144" type="line"/>
      <point x="402" y="144" type="line"/>
      <point x="378" y="0" type="line"/>
      <point x="297" y="0" type="line"/>
      <point x="320" y="144" type="line"/>
      <point x="188" y="144" type="line"/>
      <point x="165" y="0" type="line"/>
      <point x="83" y="0" type="line"/>
      <point x="107" y="144" type="line"/>
      <point x="22" y="144" type="line"/>
      <point x="22" y="222" type="line"/>
      <point x="120" y="222" type="line"/>
      <point x="151" y="416" type="line"/>
      <point x="57" y="416" type="line"/>
      <point x="57" y="493" type="line"/>
      <point x="166" y="493" type="line"/>
      <point x="187" y="627" type="line"/>
      <point x="268" y="627" type="line"/>
      <point x="246" y="493" type="line"/>
      <point x="378" y="493" type="line"/>
      <point x="400" y="627" type="line"/>
      <point x="481" y="627" type="line"/>
      <point x="459" y="493" type="line"/>
    </contour>
    <contour>
      <point x="333" y="222" type="line"/>
      <point x="364" y="416" type="line"/>
      <point x="233" y="416" type="line"/>
      <point x="201" y="222" type="line"/>
    </contour>
  </outline>
</glyph>
<glyph name="dollar" format="1">
  <advance width="480"/>
  <unicode hex="0024"/>
  <outline>
    <contour>
      <point x="279" y="-7" type="qcurve"/>
      <point x="279" y="-93" type="line"/>
      <point x="198" y="-93" type="line"/>
      <point x="198" y="-8" type="line"/>
      <point x="150" y="-6"/>
      <point x="61" y="9"/>
      <point x="34" y="19" type="qcurve"/>
      <point x="34" y="132" type="line"/>
      <point x="76" y="119"/>
      <point x="181" y="104"/>
      <point x="233" y="104" type="qcurve"/>
      <point x="288" y="104"/>
      <point x="333" y="138"/>
      <point x="333" y="185" type="qcurve"/>
      <point x="333" y="214"/>
      <point x="313" y="240"/>
      <point x="280" y="250" type="qcurve"/>
      <point x="158" y="282" type="line" smooth="yes"/>
      <point x="86" y="302"/>
      <point x="33" y="373"/>
      <point x="33" y="437" type="qcurve"/>
      <point x="33" y="525"/>
      <point x="114" y="622"/>
      <point x="198" y="633" type="qcurve"/>
      <point x="198" y="720" type="line"/>
      <point x="279" y="720" type="line"/>
      <point x="279" y="637" type="line"/>
      <point x="316" y="636"/>
      <point x="379" y="627"/>
      <point x="410" y="619" type="qcurve"/>
      <point x="410" y="511" type="line"/>
      <point x="325" y="526"/>
      <point x="278" y="529"/>
      <point x="254" y="529" type="qcurve" smooth="yes"/>
      <point x="200" y="529"/>
      <point x="152" y="490"/>
      <point x="152" y="446" type="qcurve"/>
      <point x="152" y="421"/>
      <point x="173" y="396"/>
      <point x="198" y="389" type="qcurve"/>
      <point x="319" y="356" type="line" smooth="yes"/>
      <point x="369" y="342"/>
      <point x="413" y="320"/>
      <point x="426" y="305" type="qcurve" smooth="yes"/>
      <point x="442" y="286"/>
      <point x="457" y="230"/>
      <point x="457" y="189" type="qcurve"/>
      <point x="457" y="95"/>
      <point x="370" y="2"/>
    </contour>
  </outline>
</glyph>
<glyph name="percent" format="1">
  <advance width="654"/>
  <unicode hex="0025"/>
  <outline>
    <contour>
      <point x="282" y="477" type="qcurve"/>
      <point x="282" y="393"/>
      <point x="222" y="320"/>
      <point x="152" y="320" type="qcurve"/>
      <point x="81" y="320"/>
      <point x="21" y="392"/>
      <point x="21" y="477" type="qcurve"/>
      <point x="21" y="561"/>
      <point x="81" y="633"/>
      <point x="152" y="633" type="qcurve"/>
      <point x="222" y="633"/>
      <point x="282" y="561"/>
    </contour>
    <contour>
      <point x="518" y="627" type="line"/>
      <point x="218" y="0" type="line"/>
      <point x="136" y="0" type="line"/>
      <point x="436" y="627" type="line"/>
    </contour>
    <contour>
      <point x="202" y="477" type="qcurve"/>
      <point x="202" y="526"/>
      <point x="180" y="566"/>
      <point x="152" y="566" type="qcurve"/>
      <point x="124" y="566"/>
      <point x="102" y="526"/>
      <point x="102" y="477" type="qcurve"/>
      <point x="102" y="429"/>
      <point x="124" y="391"/>
      <point x="152" y="391" type="qcurve"/>
      <point x="180" y="391"/>
      <point x="202" y="429"/>
    </contour>
    <contour>
      <point x="633" y="152" type="qcurve"/>
      <point x="633" y="67"/>
      <point x="573" y="-5"/>
      <point x="503" y="-5" type="qcurve"/>
      <point x="433" y="-5"/>
      <point x="373" y="67"/>
      <point x="373" y="152" type="qcurve"/>
      <point x="373" y="236"/>
      <point x="433" y="308"/>
      <point x="503" y="308" type="qcurve"/>
      <point x="573" y="308"/>
      <point x="633" y="236"/>
    </contour>
    <contour>
      <point x="553" y="152" type="qcurve"/>
      <point x="553" y="201"/>
      <point x="531" y="241"/>
      <point x="503" y="241" type="qcurve"/>
      <point x="475" y="241"/>
      <point x="453" y="201"/>
      <point x="453" y="152" type="qcurve"/>
      <point x="453" y="104"/>
      <point x="475" y="66"/>
      <point x="503" y="66" type="qcurve"/>
      <point x="531" y="66"/>
      <point x="553" y="104"/>
    </contour>
  </outline>
</glyph>
<glyph name="ampersand" format="1">
  <advance width="690"/>
  <unicode hex="0026"/>
  <outline>
    <contour>
      <point x="548" y="262" type="line"/>
      <point x="548" y="51" type="line"/>
      <point x="516" y="24"/>
      <point x="394" y="-9"/>
      <point x="321" y="-9" type="qcurve"/>
      <point x="172" y="-9"/>
      <point x="35" y="152"/>
      <point x="35" y="326" type="qcurve"/>
      <point x="35" y="481"/>
      <point x="172" y="637"/>
      <point x="308" y="637" type="qcurve"/>
      <point x="407" y="637"/>
      <point x="515" y="544"/>
      <point x="515" y="460" type="qcurve" smooth="yes"/>
      <point x="515" y="431"/>
      <point x="502" y="381"/>
      <point x="489" y="360" type="qcurve"/>
      <point x="677" y="360" type="line"/>
      <point x="677" y="262" type="line"/>
    </contour>
    <contour>
      <point x="402" y="453" type="qcurve" smooth="yes"/>
      <point x="402" y="490"/>
      <point x="349" y="531"/>
      <point x="300" y="531" type="qcurve"/>
      <point x="223" y="531"/>
      <point x="156" y="444"/>
      <point x="156" y="342" type="qcurve"/>
      <point x="287" y="344"/>
      <point x="402" y="394"/>
    </contour>
    <contour>
      <point x="323" y="101" type="qcurve" smooth="yes"/>
      <point x="361" y="101"/>
      <point x="422" y="111"/>
      <point x="435" y="119" type="qcurve"/>
      <point x="435" y="308" type="line"/>
      <point x="392" y="280"/>
      <point x="256" y="252"/>
      <point x="161" y="251" type="qcurve"/>
      <point x="171" y="171"/>
      <point x="247" y="101"/>
    </contour>
  </outline>
</glyph>
<glyph name="parenleft" format="1">
  <advance width="220"/>
  <unicode hex="0028"/>
  <outline>
    <contour>
      <point x="128" y="313" type="qcurve"/>
      <point x="128" y="205"/>
      <point x="164" y="8"/>
      <point x="197" y="-58" type="qcurve"/>
      <point x="126" y="-80" type="line"/>
      <point x="82" y="-2"/>
      <point x="35" y="201"/>
      <point x="35" y="313" type="qcurve"/>
      <point x="35" y="429"/>
      <point x="81" y="631"/>
      <point x="126" y="707" type="qcurve"/>
      <point x="195" y="685" type="line"/>
      <point x="163" y="620"/>
      <point x="128" y="425"/>
    </contour>
  </outline>
</glyph>
<glyph name="parenright" format="1">
  <advance width="220"/>
  <unicode hex="0029"/>
  <outline>
    <contour>
      <point x="92" y="313" type="qcurve"/>
      <point x="92" y="425"/>
      <point x="57" y="620"/>
      <point x="25" y="685" type="qcurve"/>
      <point x="94" y="707" type="line"/>
      <point x="139" y="631"/>
      <point x="185" y="429"/>
      <point x="185" y="313" type="qcurve"/>
      <point x="185" y="201"/>
      <point x="138" y="-2"/>
      <point x="94" y="-80" type="qcurve"/>
      <point x="23" y="-58" type="line"/>
      <point x="56" y="8"/>
      <point x="92" y="205"/>
    </contour>
  </outline>
</glyph>
<glyph name="asterisk" format="1">
  <advance width="372"/>
  <unicode hex="002A"/>
  <outline>
    <contour>
      <point x="243" y="447" type="line"/>
      <point x="314" y="357" type="line"/>
      <point x="247" y="310" type="line"/>
      <point x="186" y="404" type="line"/>
      <point x="122" y="311" type="line"/>
      <point x="57" y="359" type="line"/>
      <point x="129" y="447" type="line"/>
      <point x="19" y="480" type="line"/>
      <point x="46" y="556" type="line"/>
      <point x="150" y="515" type="line"/>
      <point x="145" y="627" type="line"/>
      <point x="226" y="627" type="line"/>
      <point x="221" y="515" type="line"/>
      <point x="328" y="554" type="line"/>
      <point x="353" y="477" type="line"/>
    </contour>
  </outline>
</glyph>
<glyph name="comma" format="1">
  <advance width="182"/>
  <unicode hex="002C"/>
  <outline>
    <contour>
      <point x="151" y="112" type="line"/>
      <point x="124" y="-55" type="line" smooth="yes"/>
      <point x="121" y="-74"/>
      <point x="95" y="-95"/>
      <point x="75" y="-95" type="qcurve"/>
      <point x="36" y="-95" type="line"/>
      <point x="38" y="112" type="line"/>
    </contour>
  </outline>
</glyph>
<glyph name="slash" format="1">
  <advance width="327"/>
  <unicode hex="002F"/>
  <outline>
    <contour>
      <point x="312" y="707" type="line"/>
      <point x="103" y="-80" type="line"/>
      <point x="15" y="-80" type="line"/>
      <point x="225" y="707" type="line"/>
    </contour>
  </outline>
</glyph>
<glyph name="zero" format="1">
  <advance width="569"/>
  <unicode hex="0030"/>
  <outline>
    <contour>
      <point x="529" y="315" type="qcurve"/>
      <point x="529" y="136"/>
      <point x="422" y="-9"/>
      <point x="285" y="-9" type="qcurve"/>
      <point x="199" y="-9"/>
      <point x="102" y="33"/>
      <point x="77" y="79" type="qcurve" smooth="yes"/>
      <point x="58" y="115"/>
      <point x="40" y="228"/>
      <point x="40" y="315" type="qcurve"/>
      <point x="40" y="492"/>
      <point x="148" y="637"/>
      <point x="285" y="637" type="qcurve"/>
      <point x="371" y="637"/>
      <point x="467" y="596"/>
      <point x="492" y="549" type="qcurve" smooth="yes"/>
      <point x="511" y="514"/>
      <point x="529" y="402"/>
    </contour>
    <contour>
      <point x="408" y="315" type="qcurve"/>
      <point x="408" y="445"/>
      <point x="361" y="529"/>
      <point x="285" y="529" type="qcurve"/>
      <point x="211" y="529"/>
      <point x="162" y="443"/>
      <point x="162" y="315" type="qcurve"/>
      <point x="162" y="186"/>
      <point x="209" y="104"/>
      <point x="285" y="104" type="qcurve"/>
      <point x="359" y="104"/>
      <point x="408" y="189"/>
    </contour>
  </outline>
</glyph>
<glyph name="two" format="1">
  <advance width="456"/>
  <unicode hex="0032"/>
  <outline>
    <contour>
      <point x="420" y="113" type="line"/>
      <point x="420" y="0" type="line"/>
      <point x="25" y="0" type="line"/>
      <point x="25" y="113" type="line"/>
      <point x="245" y="352" type="line" smooth="yes"/>
      <point x="273" y="382"/>
      <point x="296" y="432"/>
      <point x="296" y="460" type="qcurve"/>
      <point x="296" y="493"/>
      <point x="259" y="529"/>
      <point x="223" y="529" type="qcurve"/>
      <point x="185" y="529"/>
      <point x="70" y="514"/>
      <point x="55" y="509" type="qcurve"/>
      <point x="55" y="614" type="line"/>
      <point x="94" y="625"/>
      <point x="194" y="637"/>
      <point x="244" y="637" type="qcurve"/>
      <point x="326" y="637"/>
      <point x="416" y="552"/>
      <point x="416" y="476" type="qcurve"/>
      <point x="416" y="426"/>
      <point x="382" y="345"/>
      <point x="342" y="302" type="qcurve"/>
      <point x="167" y="113" type="line"/>
    </contour>
  </outline>
</glyph>
<glyph name="three" format="1">
  <advance width="455"/>
  <unicode hex="0033"/>
  <outline>
    <contour>
      <point x="395" y="476" type="qcurve"/>
      <point x="395" y="418"/>
      <point x="344" y="345"/>
      <point x="295" y="331" type="qcurve"/>
      <point x="295" y="329" type="line"/>
      <point x="357" y="324"/>
      <point x="420" y="248"/>
      <point x="420" y="178" type="qcurve"/>
      <point x="420" y="87"/>
      <point x="311" y="-9"/>
      <point x="208" y="-9" type="qcurve"/>
      <point x="149" y="-9"/>
      <point x="56" y="2"/>
      <point x="30" y="12" type="qcurve"/>
      <point x="30" y="116" type="line"/>
      <point x="67" y="108"/>
      <point x="140" y="101"/>
      <point x="188" y="101" type="qcurve"/>
      <point x="251" y="101"/>
      <point x="308" y="142"/>
      <point x="308" y="188" type="qcurve"/>
      <point x="308" y="231"/>
      <point x="258" y="271"/>
      <point x="205" y="271" type="qcurve"/>
      <point x="100" y="271" type="line"/>
      <point x="100" y="372" type="line"/>
      <point x="183" y="372" type="line"/>
      <point x="232" y="372"/>
      <point x="283" y="413"/>
      <point x="283" y="454" type="qcurve"/>
      <point x="283" y="496"/>
      <point x="241" y="531"/>
      <point x="193" y="531" type="qcurve"/>
      <point x="160" y="531"/>
      <point x="57" y="518"/>
      <point x="46" y="514" type="qcurve"/>
      <point x="46" y="613" type="line"/>
      <point x="77" y="623"/>
      <point x="178" y="637"/>
      <point x="227" y="637" type="qcurve"/>
      <point x="310" y="637"/>
      <point x="395" y="555"/>
    </contour>
  </outline>
</glyph>
<glyph name="four" format="1">
  <advance width="520"/>
  <unicode hex="0034"/>
  <outline>
    <contour>
      <point x="499" y="259" type="line"/>
      <point x="499" y="154" type="line"/>
      <point x="422" y="154" type="line"/>
      <point x="422" y="0" type="line"/>
      <point x="302" y="0" type="line"/>
      <point x="302" y="154" type="line"/>
      <point x="29" y="154" type="line"/>
      <point x="29" y="259" type="line"/>
      <point x="103" y="627" type="line"/>
      <point x="218" y="627" type="line"/>
      <point x="151" y="259" type="line"/>
      <point x="302" y="259" type="line"/>
      <point x="302" y="517" type="line"/>
      <point x="422" y="517" type="line"/>
      <point x="422" y="259" type="line"/>
    </contour>
  </outline>
</glyph>
<glyph name="five" format="1">
  <advance width="458"/>
  <unicode hex="0035"/>
  <outline>
    <contour>
      <point x="429" y="187" type="qcurve" smooth="yes"/>
      <point x="429" y="92"/>
      <point x="324" y="-9"/>
      <point x="226" y="-9" type="qcurve"/>
      <point x="160" y="-9"/>
      <point x="62" y="2"/>
      <point x="35" y="12" type="qcurve"/>
      <point x="35" y="118" type="line"/>
      <point x="71" y="111"/>
      <point x="148" y="104"/>
      <point x="193" y="104" type="qcurve"/>
      <point x="256" y="104"/>
      <point x="309" y="143"/>
      <point x="309" y="189" type="qcurve" smooth="yes"/>
      <point x="309" y="235"/>
      <point x="260" y="271"/>
      <point x="189" y="271" type="qcurve" smooth="yes"/>
      <point x="150" y="271"/>
      <point x="89" y="266"/>
      <point x="62" y="261" type="qcurve"/>
      <point x="62" y="627" type="line"/>
      <point x="389" y="627" type="line"/>
      <point x="389" y="519" type="line"/>
      <point x="182" y="519" type="line"/>
      <point x="182" y="367" type="line"/>
      <point x="204" y="369"/>
      <point x="239" y="371"/>
      <point x="255" y="371" type="qcurve" smooth="yes"/>
      <point x="348" y="371"/>
      <point x="429" y="282"/>
    </contour>
  </outline>
</glyph>
<glyph name="six" format="1">
  <advance width="512"/>
  <unicode hex="0036"/>
  <outline>
    <contour>
      <point x="269" y="-9" type="qcurve"/>
      <point x="141" y="-9"/>
      <point x="39" y="127"/>
      <point x="39" y="297" type="qcurve"/>
      <point x="39" y="475"/>
      <point x="175" y="637"/>
      <point x="324" y="637" type="qcurve"/>
      <point x="350" y="637"/>
      <point x="406" y="632"/>
      <point x="420" y="629" type="qcurve"/>
      <point x="420" y="527" type="line"/>
      <point x="396" y="530"/>
      <point x="348" y="532"/>
      <point x="324" y="532" type="qcurve"/>
      <point x="240" y="532"/>
      <point x="169" y="461"/>
      <point x="161" y="369" type="qcurve"/>
      <point x="201" y="391"/>
      <point x="275" y="409"/>
      <point x="318" y="409" type="qcurve"/>
      <point x="403" y="409"/>
      <point x="485" y="312"/>
      <point x="485" y="212" type="qcurve"/>
      <point x="485" y="108"/>
      <point x="371" y="-9"/>
    </contour>
    <contour>
      <point x="369" y="207" type="qcurve"/>
      <point x="369" y="264"/>
      <point x="328" y="309"/>
      <point x="274" y="309" type="qcurve"/>
      <point x="246" y="309"/>
      <point x="182" y="293"/>
      <point x="158" y="280" type="qcurve"/>
      <point x="159" y="174"/>
      <point x="203" y="99"/>
      <point x="265" y="99" type="qcurve"/>
      <point x="317" y="99"/>
      <point x="369" y="153"/>
    </contour>
  </outline>
</glyph>
<glyph name="seven" format="1">
  <advance width="447"/>
  <unicode hex="0037"/>
  <outline>
    <contour>
      <point x="426" y="627" type="line"/>
      <point x="426" y="519" type="line"/>
      <point x="161" y="0" type="line"/>
      <point x="26" y="0" type="line"/>
      <point x="298" y="519" type="line"/>
      <point x="27" y="519" type="line"/>
      <point x="27" y="627" type="line"/>
    </contour>
  </outline>
</glyph>
<glyph name="eight" format="1">
  <advance width="519"/>
  <unicode hex="0038"/>
  <outline>
    <contour>
      <point x="482" y="170" type="qcurve"/>
      <point x="482" y="77"/>
      <point x="375" y="-9"/>
      <point x="259" y="-9" type="qcurve"/>
      <point x="141" y="-9"/>
      <point x="38" y="73"/>
      <point x="38" y="167" type="qcurve"/>
      <point x="38" y="230"/>
      <point x="98" y="311"/>
      <point x="153" y="323" type="qcurve"/>
      <point x="100" y="337"/>
      <point x="48" y="411"/>
      <point x="49" y="472" type="qcurve"/>
      <point x="49" y="557"/>
      <point x="150" y="637"/>
      <point x="259" y="637" type="qcurve"/>
      <point x="373" y="637"/>
      <point x="471" y="561"/>
      <point x="471" y="473" type="qcurve"/>
      <point x="471" y="412"/>
      <point x="419" y="338"/>
      <point x="366" y="323" type="qcurve"/>
      <point x="422" y="311"/>
      <point x="482" y="232"/>
    </contour>
    <contour>
      <point x="364" y="455" type="qcurve"/>
      <point x="364" y="498"/>
      <point x="315" y="536"/>
      <point x="259" y="536" type="qcurve"/>
      <point x="204" y="536"/>
      <point x="156" y="498"/>
      <point x="156" y="454" type="qcurve"/>
      <point x="156" y="407"/>
      <point x="205" y="366"/>
      <point x="259" y="366" type="qcurve"/>
      <point x="314" y="366"/>
      <point x="364" y="408"/>
    </contour>
    <contour>
      <point x="370" y="186" type="qcurve"/>
      <point x="370" y="231"/>
      <point x="318" y="271"/>
      <point x="259" y="271" type="qcurve"/>
      <point x="201" y="271"/>
      <point x="150" y="230"/>
      <point x="150" y="184" type="qcurve"/>
      <point x="150" y="137"/>
      <point x="201" y="96"/>
      <point x="259" y="96" type="qcurve"/>
      <point x="318" y="96"/>
      <point x="370" y="138"/>
    </contour>
  </outline>
</glyph>
<glyph name="nine" format="1">
  <advance width="512"/>
  <unicode hex="0039"/>
  <outline>
    <contour>
      <point x="247" y="637" type="qcurve"/>
      <point x="374" y="637"/>
      <point x="473" y="502"/>
      <point x="473" y="331" type="qcurve"/>
      <point x="473" y="153"/>
      <point x="336" y="-9"/>
      <point x="187" y="-9" type="qcurve"/>
      <point x="161" y="-9"/>
      <point x="101" y="-4"/>
      <point x="87" y="-1" type="qcurve"/>
      <point x="87" y="104" type="line"/>
      <point x="104" y="102"/>
      <point x="155" y="99"/>
      <point x="187" y="99" type="qcurve"/>
      <point x="270" y="99"/>
      <point x="342" y="170"/>
      <point x="350" y="260" type="qcurve"/>
      <point x="312" y="240"/>
      <point x="240" y="221"/>
      <point x="200" y="221" type="qcurve"/>
      <point x="112" y="221"/>
      <point x="27" y="318"/>
      <point x="27" y="419" type="qcurve"/>
      <point x="27" y="522"/>
      <point x="143" y="637"/>
    </contour>
    <contour>
      <point x="247" y="531" type="qcurve"/>
      <point x="196" y="531"/>
      <point x="144" y="478"/>
      <point x="144" y="425" type="qcurve"/>
      <point x="144" y="366"/>
      <point x="185" y="321"/>
      <point x="242" y="321" type="qcurve"/>
      <point x="273" y="321"/>
      <point x="327" y="335"/>
      <point x="353" y="351" type="qcurve"/>
      <point x="352" y="458"/>
      <point x="309" y="531"/>
    </contour>
  </outline>
</glyph>
<glyph name="greater" format="1">
  <advance width="500"/>
  <unicode hex="003E"/>
  <outline>
    <contour>
      <point x="463" y="247" type="line"/>
      <point x="37" y="80" type="line"/>
      <point x="37" y="195" type="line"/>
      <point x="369" y="314" type="line"/>
      <point x="37" y="432" type="line"/>
      <point x="37" y="545" type="line"/>
      <point x="463" y="378" type="line"/>
    </contour>
  </outline>
</glyph>
<glyph name="question" format="1">
  <advance width="375"/>
  <unicode hex="003F"/>
  <outline>
    <contour>
      <point x="185" y="637" type="qcurve"/>
      <point x="265" y="637"/>
      <point x="356" y="566"/>
      <point x="356" y="501" type="qcurve" smooth="yes"/>
      <point x="356" y="443"/>
      <point x="289" y="346"/>
      <point x="214" y="298" type="qcurve"/>
      <point x="214" y="188" type="line"/>
      <point x="108" y="188" type="line"/>
      <point x="108" y="338" type="line"/>
      <point x="182" y="378"/>
      <point x="243" y="442"/>
      <point x="243" y="474" type="qcurve" smooth="yes"/>
      <point x="243" y="503"/>
      <point x="205" y="532"/>
      <point x="167" y="532" type="qcurve"/>
      <point x="133" y="532"/>
      <point x="49" y="517"/>
      <point x="20" y="506" type="qcurve"/>
      <point x="20" y="609" type="line"/>
      <point x="58" y="623"/>
      <point x="138" y="637"/>
    </contour>
    <contour>
      <point x="221" y="108" type="line"/>
      <point x="221" y="0" type="line"/>
      <point x="100" y="0" type="line"/>
      <point x="100" y="108" type="line"/>
    </contour>
  </outline>
</glyph>
<glyph name="at" format="1">
  <advance width="631"/>
  <unicode hex="0040"/>
  <outline>
    <contour>
      <point x="290" y="79" type="qcurve"/>
      <point x="243" y="79"/>
      <point x="197" y="128"/>
      <point x="197" y="178" type="qcurve"/>
      <point x="197" y="230"/>
      <point x="250" y="273"/>
      <point x="315" y="273" type="qcurve"/>
      <point x="332" y="273"/>
      <point x="368" y="270"/>
      <point x="381" y="267" type="qcurve"/>
      <point x="381" y="287" type="line" smooth="yes"/>
      <point x="381" y="310"/>
      <point x="352" y="333"/>
      <point x="322" y="333" type="qcurve" smooth="yes"/>
      <point x="292" y="333"/>
      <point x="244" y="329"/>
      <point x="226" y="324" type="qcurve"/>
      <point x="226" y="394" type="line"/>
      <point x="249" y="400"/>
      <point x="306" y="405"/>
      <point x="343" y="405" type="qcurve"/>
      <point x="400" y="405"/>
      <point x="456" y="352"/>
      <point x="456" y="299" type="qcurve"/>
      <point x="456" y="173" type="line" smooth="yes"/>
      <point x="456" y="160"/>
      <point x="464" y="149"/>
      <point x="472" y="149" type="qcurve"/>
      <point x="495" y="149"/>
      <point x="526" y="226"/>
      <point x="526" y="286" type="qcurve"/>
      <point x="526" y="381"/>
      <point x="431" y="479"/>
      <point x="337" y="479" type="qcurve"/>
      <point x="218" y="479"/>
      <point x="121" y="369"/>
      <point x="121" y="236" type="qcurve" smooth="yes"/>
      <point x="121" y="115"/>
      <point x="233" y="5"/>
      <point x="359" y="5" type="qcurve"/>
      <point x="404" y="5"/>
      <point x="490" y="25"/>
      <point x="523" y="43" type="qcurve"/>
      <point x="523" y="-36" type="line"/>
      <point x="489" y="-56"/>
      <point x="395" y="-76"/>
      <point x="338" y="-76" type="qcurve"/>
      <point x="186" y="-76"/>
      <point x="34" y="80"/>
      <point x="34" y="236" type="qcurve" smooth="yes"/>
      <point x="34" y="395"/>
      <point x="187" y="557"/>
      <point x="336" y="557" type="qcurve"/>
      <point x="468" y="557"/>
      <point x="607" y="422"/>
      <point x="607" y="296" type="qcurve"/>
      <point x="607" y="198"/>
      <point x="526" y="79"/>
      <point x="460" y="79" type="qcurve"/>
      <point x="438" y="79"/>
      <point x="407" y="99"/>
      <point x="399" y="118" type="qcurve"/>
      <point x="380" y="100"/>
      <point x="322" y="79"/>
    </contour>
    <contour>
      <point x="327" y="218" type="qcurve"/>
      <point x="294" y="218"/>
      <point x="272" y="204"/>
      <point x="272" y="183" type="qcurve"/>
      <point x="272" y="163"/>
      <point x="291" y="146"/>
      <point x="313" y="146" type="qcurve"/>
      <point x="332" y="146"/>
      <point x="369" y="157"/>
      <point x="381" y="165" type="qcurve"/>
      <point x="381" y="213" type="line"/>
      <point x="370" y="216"/>
      <point x="345" y="218"/>
    </contour>
  </outline>
</glyph>
<glyph name="A" format="1">
  <advance width="607"/>
  <unicode hex="0041"/>
  <outline>
    <contour>
      <point x="129" y="0" type="line"/>
      <point x="3" y="0" type="line"/>
      <point x="243" y="627" type="line"/>
      <point x="367" y="627" type="line"/>
      <point x="603" y="0" type="line"/>
      <point x="477" y="0" type="line"/>
      <point x="432" y="128" type="line"/>
      <point x="173" y="128" type="line"/>
    </contour>
    <contour>
      <point x="302" y="512" type="qcurve"/>
      <point x="291" y="474"/>
      <point x="264" y="390"/>
      <point x="252" y="354" type="qcurve"/>
      <point x="208" y="227" type="line"/>
      <point x="397" y="227" type="line"/>
      <point x="353" y="354" type="line" smooth="yes"/>
      <point x="342" y="386"/>
      <point x="314" y="471"/>
    </contour>
    <contour>
      <point x="304" y="645" type="move" name="top"/>
    </contour>
    <contour>
      <point x="600" y="0" type="move" name="ogonek"/>
    </contour>
  </outline>
</glyph>
<glyph name="B" format="1">
  <advance width="559"/>
  <unicode hex="0042"/>
  <outline>
    <contour>
      <point x="530" y="182" type="qcurve"/>
      <point x="530" y="86"/>
      <point x="422" y="0"/>
      <point x="305" y="0" type="qcurve"/>
      <point x="60" y="0" type="line"/>
      <point x="60" y="627" type="line"/>
      <point x="305" y="627" type="line" smooth="yes"/>
      <point x="411" y="627"/>
      <point x="500" y="555"/>
      <point x="500" y="468" type="qcurve"/>
      <point x="500" y="409"/>
      <point x="464" y="347"/>
      <point x="416" y="333" type="qcurve"/>
      <point x="473" y="323"/>
      <point x="530" y="248"/>
    </contour>
    <contour>
      <point x="389" y="451" type="qcurve"/>
      <point x="389" y="494"/>
      <point x="352" y="527"/>
      <point x="305" y="527" type="qcurve"/>
      <point x="180" y="527" type="line"/>
      <point x="180" y="365" type="line"/>
      <point x="305" y="365" type="line" smooth="yes"/>
      <point x="350" y="365"/>
      <point x="389" y="405"/>
    </contour>
    <contour>
      <point x="414" y="190" type="qcurve"/>
      <point x="414" y="236"/>
      <point x="365" y="272"/>
      <point x="305" y="272" type="qcurve"/>
      <point x="180" y="272" type="line"/>
      <point x="180" y="104" type="line"/>
      <point x="305" y="104" type="line" smooth="yes"/>
      <point x="365" y="104"/>
      <point x="414" y="142"/>
    </contour>
  </outline>
</glyph>
<glyph name="C" format="1">
  <advance width="513"/>
  <unicode hex="0043"/>
  <outline>
    <contour>
      <point x="321" y="104" type="qcurve" smooth="yes"/>
      <point x="362" y="104"/>
      <point x="455" y="122"/>
      <point x="492" y="137" type="qcurve"/>
      <point x="492" y="30" type="line"/>
      <point x="437" y="8"/>
      <point x="350" y="-9"/>
      <point x="303" y="-9" type="qcurve" smooth="yes"/>
      <point x="154" y="-9"/>
      <point x="36" y="140"/>
      <point x="36" y="315" type="qcurve" smooth="yes"/>
      <point x="36" y="482"/>
      <point x="176" y="637"/>
      <point x="331" y="637" type="qcurve"/>
      <point x="377" y="637"/>
      <point x="449" y="633"/>
      <point x="478" y="628" type="qcurve"/>
      <point x="478" y="523" type="line"/>
      <point x="440" y="526"/>
      <point x="369" y="529"/>
      <point x="331" y="529" type="qcurve"/>
      <point x="230" y="529"/>
      <point x="159" y="435"/>
      <point x="159" y="315" type="qcurve" smooth="yes"/>
      <point x="159" y="195"/>
      <point x="224" y="104"/>
    </contour>
    <contour>
      <point x="306" y="655" type="move" name="top"/>
    </contour>
    <contour>
      <point x="296" y="0" type="move" name="bottom"/>
    </contour>
  </outline>
</glyph>
<glyph name="D" format="1">
  <advance width="604"/>
  <unicode hex="0044"/>
  <outline>
    <contour>
      <point x="261" y="0" type="qcurve"/>
      <point x="60" y="0" type="line"/>
      <point x="60" y="627" type="line"/>
      <point x="261" y="627" type="line" smooth="yes"/>
      <point x="357" y="627"/>
      <point x="470" y="595"/>
      <point x="504" y="560" type="qcurve" smooth="yes"/>
      <point x="538" y="525"/>
      <point x="569" y="406"/>
      <point x="569" y="314" type="qcurve"/>
      <point x="569" y="151"/>
      <point x="423" y="0"/>
    </contour>
    <contour>
      <point x="412" y="473" type="qcurve" smooth="yes"/>
      <point x="393" y="498"/>
      <point x="325" y="519"/>
      <point x="261" y="519" type="qcurve"/>
      <point x="180" y="519" type="line"/>
      <point x="180" y="113" type="line"/>
      <point x="261" y="113" type="line" smooth="yes"/>
      <point x="369" y="113"/>
      <point x="445" y="201"/>
      <point x="445" y="314" type="qcurve"/>
      <point x="445" y="374"/>
      <point x="429" y="450"/>
    </contour>
    <contour>
      <point x="286" y="645" type="move" name="top"/>
    </contour>
  </outline>
</glyph>
<glyph name="E" format="1">
  <advance width="514"/>
  <unicode hex="0045"/>
  <outline>
    <contour>
      <point x="484" y="113" type="line"/>
      <point x="484" y="0" type="line"/>
      <point x="60" y="0" type="line"/>
      <point x="60" y="627" type="line"/>
      <point x="475" y="627" type="line"/>
      <point x="475" y="519" type="line"/>
      <point x="180" y="519" type="line"/>
      <point x="180" y="371" type="line"/>
      <point x="438" y="371" type="line"/>
      <point x="438" y="268" type="line"/>
      <point x="180" y="268" type="line"/>
      <point x="180" y="113" type="line"/>
    </contour>
    <contour>
      <point x="278" y="645" type="move" name="top"/>
    </contour>
    <contour>
      <point x="440" y="0" type="move" name="ogonek"/>
    </contour>
  </outline>
</glyph>
<glyph name="F" format="1">
  <advance width="494"/>
  <unicode hex="0046"/>
  <outline>
    <contour>
      <point x="180" y="243" type="line"/>
      <point x="180" y="0" type="line"/>
      <point x="60" y="0" type="line"/>
      <point x="60" y="627" type="line"/>
      <point x="473" y="627" type="line"/>
      <point x="473" y="519" type="line"/>
      <point x="180" y="519" type="line"/>
      <point x="180" y="346" type="line"/>
      <point x="436" y="346" type="line"/>
      <point x="436" y="243" type="line"/>
    </contour>
  </outline>
</glyph>
<glyph name="G" format="1">
  <advance width="587"/>
  <unicode hex="0047"/>
  <outline>
    <contour>
      <point x="437" y="245" type="line"/>
      <point x="301" y="245" type="line"/>
      <point x="301" y="345" type="line"/>
      <point x="549" y="345" type="line"/>
      <point x="549" y="29" type="line"/>
      <point x="521" y="16"/>
      <point x="377" y="-9"/>
      <point x="318" y="-9" type="qcurve"/>
      <point x="159" y="-9"/>
      <point x="36" y="139"/>
      <point x="36" y="314" type="qcurve" smooth="yes"/>
      <point x="36" y="481"/>
      <point x="181" y="637"/>
      <point x="338" y="637" type="qcurve"/>
      <point x="397" y="637"/>
      <point x="490" y="632"/>
      <point x="515" y="627" type="qcurve"/>
      <point x="515" y="522" type="line"/>
      <point x="479" y="525"/>
      <point x="385" y="529"/>
      <point x="338" y="529" type="qcurve" smooth="yes"/>
      <point x="235" y="529"/>
      <point x="160" y="435"/>
      <point x="160" y="314" type="qcurve" smooth="yes"/>
      <point x="160" y="256"/>
      <point x="173" y="180"/>
      <point x="186" y="156" type="qcurve" smooth="yes"/>
      <point x="203" y="126"/>
      <point x="266" y="100"/>
      <point x="328" y="100" type="qcurve"/>
      <point x="349" y="100"/>
      <point x="405" y="106"/>
      <point x="437" y="111" type="qcurve"/>
    </contour>
    <contour>
      <point x="328" y="655" type="move" name="top"/>
    </contour>
    <contour>
      <point x="323" y="0" type="move" name="bottom"/>
    </contour>
  </outline>
</glyph>
<glyph name="H" format="1">
  <advance width="634"/>
  <unicode hex="0048"/>
  <outline>
    <contour>
      <point x="180" y="0" type="line"/>
      <point x="60" y="0" type="line"/>
      <point x="60" y="627" type="line"/>
      <point x="180" y="627" type="line"/>
      <point x="180" y="373" type="line"/>
      <point x="454" y="373" type="line"/>
      <point x="454" y="627" type="line"/>
      <point x="574" y="627" type="line"/>
      <point x="574" y="0" type="line"/>
      <point x="454" y="0" type="line"/>
      <point x="454" y="264" type="line"/>
      <point x="180" y="264" type="line"/>
    </contour>
    <contour>
      <point x="318" y="645" type="move" name="top"/>
    </contour>
  </outline>
</glyph>
<glyph name="J" format="1">
  <advance width="423"/>
  <unicode hex="004A"/>
  <outline>
    <contour>
      <point x="247" y="239" type="qcurve"/>
      <point x="247" y="627" type="line"/>
      <point x="367" y="627" type="line"/>
      <point x="367" y="232" type="line" smooth="yes"/>
      <point x="367" y="104"/>
      <point x="256" y="-9"/>
      <point x="129" y="-9" type="qcurve"/>
      <point x="93" y="-9"/>
      <point x="36" y="-3"/>
      <point x="15" y="3" type="qcurve"/>
      <point x="15" y="113" type="line"/>
      <point x="36" y="108"/>
      <point x="84" y="104"/>
      <point x="115" y="104" type="qcurve"/>
      <point x="193" y="104"/>
      <point x="247" y="161"/>
    </contour>
    <contour>
      <point x="308" y="645" type="move" name="top"/>
    </contour>
  </outline>
</glyph>
<glyph name="K" format="1">
  <advance width="590"/>
  <unicode hex="004B"/>
  <outline>
    <contour>
      <point x="345" y="322" type="line"/>
      <point x="595" y="0" type="line"/>
      <point x="442" y="0" type="line"/>
      <point x="242" y="269" type="line"/>
      <point x="180" y="269" type="line"/>
      <point x="180" y="0" type="line"/>
      <point x="60" y="0" type="line"/>
      <point x="60" y="627" type="line"/>
      <point x="180" y="627" type="line"/>
      <point x="180" y="368" type="line"/>
      <point x="242" y="368" type="line"/>
      <point x="441" y="627" type="line"/>
      <point x="586" y="627" type="line"/>
    </contour>
    <contour>
      <point x="287" y="0" type="move" name="bottom"/>
    </contour>
  </outline>
</glyph>
<glyph name="M" format="1">
  <advance width="730"/>
  <unicode hex="004D"/>
  <outline>
    <contour>
      <point x="670" y="627" type="line"/>
      <point x="670" y="0" type="line"/>
      <point x="557" y="0" type="line"/>
      <point x="557" y="435" type="line"/>
      <point x="414" y="123" type="line"/>
      <point x="315" y="123" type="line"/>
      <point x="173" y="436" type="line"/>
      <point x="173" y="0" type="line"/>
      <point x="60" y="0" type="line"/>
      <point x="60" y="627" type="line"/>
      <point x="208" y="627" type="line"/>
      <point x="367" y="270" type="line"/>
      <point x="527" y="627" type="line"/>
    </contour>
  </outline>
</glyph>
<glyph name="N" format="1">
  <advance width="647"/>
  <unicode hex="004E"/>
  <outline>
    <contour>
      <point x="587" y="627" type="line"/>
      <point x="587" y="0" type="line"/>
      <point x="470" y="0" type="line"/>
      <point x="173" y="425" type="line"/>
      <point x="173" y="0" type="line"/>
      <point x="60" y="0" type="line"/>
      <point x="60" y="627" type="line"/>
      <point x="177" y="627" type="line"/>
      <point x="475" y="192" type="line"/>
      <point x="475" y="627" type="line"/>
    </contour>
    <contour>
      <point x="330" y="645" type="move" name="top"/>
    </contour>
    <contour>
      <point x="323" y="0" type="move" name="bottom"/>
    </contour>
  </outline>
</glyph>
<glyph name="O" format="1">
  <advance width="647"/>
  <unicode hex="004F"/>
  <outline>
    <contour>
      <point x="611" y="315" type="qcurve"/>
      <point x="611" y="144"/>
      <point x="476" y="-9"/>
      <point x="324" y="-9" type="qcurve"/>
      <point x="162" y="-9"/>
      <point x="36" y="134"/>
      <point x="36" y="315" type="qcurve"/>
      <point x="36" y="485"/>
      <point x="172" y="637"/>
      <point x="324" y="637" type="qcurve"/>
      <point x="485" y="637"/>
      <point x="611" y="494"/>
    </contour>
    <contour>
      <point x="182" y="157" type="qcurve" smooth="yes"/>
      <point x="198" y="128"/>
      <point x="260" y="104"/>
      <point x="324" y="104" type="qcurve" smooth="yes"/>
      <point x="423" y="104"/>
      <point x="489" y="193"/>
      <point x="489" y="315" type="qcurve"/>
      <point x="489" y="374"/>
      <point x="478" y="450"/>
      <point x="465" y="474" type="qcurve" smooth="yes"/>
      <point x="449" y="504"/>
      <point x="387" y="529"/>
      <point x="324" y="529" type="qcurve"/>
      <point x="224" y="529"/>
      <point x="158" y="439"/>
      <point x="158" y="315" type="qcurve"/>
      <point x="158" y="256"/>
      <point x="170" y="180"/>
    </contour>
    <contour>
      <point x="324" y="655" type="move" name="top"/>
    </contour>
  </outline>
</glyph>
<glyph name="P" format="1">
  <advance width="562"/>
  <unicode hex="0050"/>
  <outline>
    <contour>
      <point x="180" y="190" type="line"/>
      <point x="180" y="0" type="line"/>
      <point x="60" y="0" type="line"/>
      <point x="60" y="627" type="line"/>
      <point x="281" y="627" type="line" smooth="yes"/>
      <point x="420" y="627"/>
      <point x="539" y="529"/>
      <point x="539" y="415" type="qcurve"/>
      <point x="539" y="300"/>
      <point x="414" y="190"/>
      <point x="284" y="190" type="qcurve"/>
    </contour>
    <contour>
      <point x="417" y="415" type="qcurve"/>
      <point x="417" y="472"/>
      <point x="356" y="519"/>
      <point x="281" y="519" type="qcurve"/>
      <point x="180" y="519" type="line"/>
      <point x="180" y="295" type="line"/>
      <point x="281" y="295" type="line" smooth="yes"/>
      <point x="356" y="295"/>
      <point x="417" y="350"/>
    </contour>
  </outline>
</glyph>
<glyph name="Q" format="1">
  <advance width="647"/>
  <unicode hex="0051"/>
  <outline>
    <contour>
      <point x="324" y="-9" type="qcurve"/>
      <point x="162" y="-9"/>
      <point x="36" y="134"/>
      <point x="36" y="315" type="qcurve"/>
      <point x="36" y="485"/>
      <point x="172" y="637"/>
      <point x="324" y="637" type="qcurve"/>
      <point x="485" y="637"/>
      <point x="611" y="494"/>
      <point x="611" y="315" type="qcurve"/>
      <point x="611" y="198"/>
      <point x="549" y="55"/>
      <point x="484" y="22" type="qcurve"/>
      <point x="601" y="-128" type="line"/>
      <point x="462" y="-128" type="line"/>
      <point x="370" y="-7" type="line"/>
      <point x="351" y="-8"/>
      <point x="332" y="-9"/>
    </contour>
    <contour>
      <point x="182" y="157" type="qcurve" smooth="yes"/>
      <point x="198" y="128"/>
      <point x="260" y="104"/>
      <point x="324" y="104" type="qcurve" smooth="yes"/>
      <point x="423" y="104"/>
      <point x="489" y="193"/>
      <point x="489" y="315" type="qcurve"/>
      <point x="489" y="374"/>
      <point x="478" y="450"/>
      <point x="465" y="474" type="qcurve" smooth="yes"/>
      <point x="449" y="504"/>
      <point x="387" y="529"/>
      <point x="324" y="529" type="qcurve"/>
      <point x="224" y="529"/>
      <point x="158" y="439"/>
      <point x="158" y="315" type="qcurve"/>
      <point x="158" y="256"/>
      <point x="170" y="180"/>
    </contour>
  </outline>
</glyph>
<glyph name="R" format="1">
  <advance width="578"/>
  <unicode hex="0052"/>
  <outline>
    <contour>
      <point x="180" y="214" type="line"/>
      <point x="180" y="0" type="line"/>
      <point x="60" y="0" type="line"/>
      <point x="60" y="627" type="line"/>
      <point x="281" y="627" type="line" smooth="yes"/>
      <point x="420" y="627"/>
      <point x="539" y="533"/>
      <point x="539" y="423" type="qcurve"/>
      <point x="539" y="344"/>
      <point x="470" y="247"/>
      <point x="400" y="228" type="qcurve"/>
      <point x="558" y="0" type="line"/>
      <point x="414" y="0" type="line"/>
      <point x="273" y="214" type="line"/>
    </contour>
    <contour>
      <point x="417" y="423" type="qcurve"/>
      <point x="417" y="475"/>
      <point x="356" y="519"/>
      <point x="281" y="519" type="qcurve"/>
      <point x="180" y="519" type="line"/>
      <point x="180" y="314" type="line"/>
      <point x="281" y="314" type="line" smooth="yes"/>
      <point x="356" y="314"/>
      <point x="417" y="364"/>
    </contour>
    <contour>
      <point x="277" y="645" type="move" name="top"/>
    </contour>
    <contour>
      <point x="287" y="0" type="move" name="bottom"/>
    </contour>
  </outline>
</glyph>
<glyph name="S" format="1">
  <advance width="497"/>
  <unicode hex="0053"/>
  <outline>
    <contour>
      <point x="300" y="249" type="qcurve"/>
      <point x="161" y="282" type="line" smooth="yes"/>
      <point x="92" y="298"/>
      <point x="36" y="371"/>
      <point x="36" y="439" type="qcurve"/>
      <point x="36" y="541"/>
      <point x="148" y="637"/>
      <point x="266" y="637" type="qcurve" smooth="yes"/>
      <point x="315" y="637"/>
      <point x="392" y="628"/>
      <point x="425" y="619" type="qcurve"/>
      <point x="425" y="511" type="line"/>
      <point x="368" y="522"/>
      <point x="300" y="529"/>
      <point x="264" y="529" type="qcurve" smooth="yes"/>
      <point x="204" y="529"/>
      <point x="154" y="492"/>
      <point x="154" y="447" type="qcurve"/>
      <point x="154" y="421"/>
      <point x="175" y="394"/>
      <point x="200" y="388" type="qcurve"/>
      <point x="335" y="356" type="line" smooth="yes"/>
      <point x="382" y="345"/>
      <point x="428" y="322"/>
      <point x="443" y="305" type="qcurve" smooth="yes"/>
      <point x="458" y="286"/>
      <point x="473" y="230"/>
      <point x="473" y="189" type="qcurve"/>
      <point x="473" y="83"/>
      <point x="361" y="-9"/>
      <point x="243" y="-9" type="qcurve"/>
      <point x="182" y="-9"/>
      <point x="69" y="7"/>
      <point x="37" y="19" type="qcurve"/>
      <point x="37" y="132" type="line"/>
      <point x="80" y="119"/>
      <point x="189" y="104"/>
      <point x="243" y="104" type="qcurve"/>
      <point x="302" y="104"/>
      <point x="349" y="137"/>
      <point x="349" y="185" type="qcurve"/>
      <point x="349" y="215"/>
      <point x="330" y="242"/>
    </contour>
    <contour>
      <point x="252" y="655" type="move" name="top"/>
    </contour>
    <contour>
      <point x="238" y="0" type="move" name="bottom"/>
    </contour>
  </outline>
</glyph>
<glyph name="T" format="1">
  <advance width="526"/>
  <unicode hex="0054"/>
  <outline>
    <contour>
      <point x="513" y="627" type="line"/>
      <point x="513" y="519" type="line"/>
      <point x="323" y="519" type="line"/>
      <point x="323" y="0" type="line"/>
      <point x="203" y="0" type="line"/>
      <point x="203" y="519" type="line"/>
      <point x="14" y="519" type="line"/>
      <point x="14" y="627" type="line"/>
    </contour>
    <contour>
      <point x="264" y="645" type="move" name="top"/>
    </contour>
    <contour>
      <point x="264" y="0" type="move" name="bottom"/>
    </contour>
  </outline>
</glyph>
<glyph name="U" format="1">
  <advance width="629"/>
  <unicode hex="0055"/>
  <outline>
    <contour>
      <point x="454" y="257" type="qcurve"/>
      <point x="454" y="627" type="line"/>
      <point x="574" y="627" type="line"/>
      <point x="574" y="257" type="line" smooth="yes"/>
      <point x="574" y="122"/>
      <point x="446" y="-9"/>
      <point x="314" y="-9" type="qcurve"/>
      <point x="179" y="-9"/>
      <point x="55" y="117"/>
      <point x="55" y="257" type="qcurve"/>
      <point x="55" y="627" type="line"/>
      <point x="175" y="627" type="line"/>
      <point x="175" y="257" type="line" smooth="yes"/>
      <point x="175" y="169"/>
      <point x="235" y="104"/>
      <point x="314" y="104" type="qcurve"/>
      <point x="394" y="104"/>
      <point x="454" y="170"/>
    </contour>
    <contour>
      <point x="313" y="645" type="move" name="top"/>
    </contour>
    <contour>
      <point x="475" y="29" type="move" name="ogonekalt"/>
    </contour>
  </outline>
</glyph>
<glyph name="V" format="1">
  <advance width="601"/>
  <unicode hex="0056"/>
  <outline>
    <contour>
      <point x="229" y="0" type="line"/>
      <point x="3" y="627" type="line"/>
      <point x="137" y="627" type="line"/>
      <point x="255" y="274" type="line" smooth="yes"/>
      <point x="264" y="247"/>
      <point x="289" y="156"/>
      <point x="303" y="99" type="qcurve"/>
      <point x="317" y="157"/>
      <point x="342" y="247"/>
      <point x="350" y="273" type="qcurve"/>
      <point x="468" y="627" type="line"/>
      <point x="598" y="627" type="line"/>
      <point x="372" y="0" type="line"/>
    </contour>
  </outline>
</glyph>
<glyph name="W" format="1">
  <advance width="852"/>
  <unicode hex="0057"/>
  <outline>
    <contour>
      <point x="176" y="0" type="line"/>
      <point x="7" y="627" type="line"/>
      <point x="137" y="627" type="line"/>
      <point x="222" y="274" type="line" smooth="yes"/>
      <point x="225" y="260"/>
      <point x="233" y="220"/>
      <point x="249" y="125" type="qcurve"/>
      <point x="265" y="218"/>
      <point x="273" y="260"/>
      <point x="276" y="273" type="qcurve"/>
      <point x="365" y="627" type="line"/>
      <point x="491" y="627" type="line"/>
      <point x="581" y="274" type="line" smooth="yes"/>
      <point x="585" y="260"/>
      <point x="593" y="219"/>
      <point x="609" y="126" type="qcurve"/>
      <point x="620" y="188"/>
      <point x="633" y="261"/>
      <point x="636" y="273" type="qcurve"/>
      <point x="719" y="627" type="line"/>
      <point x="845" y="627" type="line"/>
      <point x="676" y="0" type="line"/>
      <point x="539" y="0" type="line"/>
      <point x="468" y="263" type="line" smooth="yes"/>
      <point x="458" y="304"/>
      <point x="438" y="399"/>
      <point x="426" y="464" type="qcurve"/>
      <point x="417" y="415"/>
      <point x="396" y="314"/>
      <point x="384" y="263" type="qcurve"/>
      <point x="314" y="0" type="line"/>
    </contour>
    <contour>
      <point x="427" y="645" type="move" name="top"/>
    </contour>
  </outline>
</glyph>
<glyph name="X" format="1">
  <advance width="561"/>
  <unicode hex="0058"/>
  <outline>
    <contour>
      <point x="351" y="326" type="line"/>
      <point x="568" y="0" type="line"/>
      <point x="421" y="0" type="line"/>
      <point x="273" y="229" type="line"/>
      <point x="129" y="0" type="line"/>
      <point x="-3" y="0" type="line"/>
      <point x="209" y="321" type="line"/>
      <point x="8" y="627" type="line"/>
      <point x="154" y="627" type="line"/>
      <point x="284" y="417" type="line"/>
      <point x="418" y="627" type="line"/>
      <point x="547" y="627" type="line"/>
    </contour>
    <contour>
      <point x="285" y="645" type="move" name="top"/>
    </contour>
  </outline>
</glyph>
<glyph name="Y" format="1">
  <advance width="586"/>
  <unicode hex="0059"/>
  <outline>
    <contour>
      <point x="457" y="627" type="line"/>
      <point x="581" y="627" type="line"/>
      <point x="355" y="233" type="line"/>
      <point x="355" y="0" type="line"/>
      <point x="235" y="0" type="line"/>
      <point x="235" y="233" type="line"/>
      <point x="3" y="627" type="line"/>
      <point x="139" y="627" type="line"/>
      <point x="296" y="340" type="line"/>
    </contour>
    <contour>
      <point x="297" y="645" type="move" name="top"/>
    </contour>
  </outline>
</glyph>
<glyph name="Z" format="1">
  <advance width="506"/>
  <unicode hex="005A"/>
  <outline>
    <contour>
      <point x="485" y="113" type="line"/>
      <point x="485" y="0" type="line"/>
      <point x="21" y="0" type="line"/>
      <point x="21" y="113" type="line"/>
      <point x="331" y="519" type="line"/>
      <point x="50" y="519" type="line"/>
      <point x="50" y="627" type="line"/>
      <point x="466" y="627" type="line"/>
      <point x="466" y="519" type="line"/>
      <point x="158" y="113" type="line"/>
    </contour>
    <contour>
      <point x="261" y="645" type="move" name="top"/>
    </contour>
  </outline>
</glyph>
<glyph name="bracketleft" format="1">
  <advance width="253"/>
  <unicode hex="005B"/>
  <outline>
    <contour>
      <point x="230" y="-4" type="line"/>
      <point x="230" y="-82" type="line"/>
      <point x="59" y="-82" type="line"/>
      <point x="59" y="707" type="line"/>
      <point x="230" y="707" type="line"/>
      <point x="230" y="631" type="line"/>
      <point x="144" y="631" type="line"/>
      <point x="144" y="-4" type="line"/>
    </contour>
  </outline>
</glyph>
<glyph name="backslash" format="1">
  <advance width="326"/>
  <unicode hex="005C"/>
  <outline>
    <contour>
      <point x="102" y="707" type="line"/>
      <point x="311" y="-80" type="line"/>
      <point x="224" y="-80" type="line"/>
      <point x="14" y="707" type="line"/>
    </contour>
  </outline>
</glyph>
<glyph name="bracketright" format="1">
  <advance width="253"/>
  <unicode hex="005D"/>
  <outline>
    <contour>
      <point x="194" y="-82" type="line"/>
      <point x="23" y="-82" type="line"/>
      <point x="23" y="-4" type="line"/>
      <point x="109" y="-4" type="line"/>
      <point x="109" y="631" type="line"/>
      <point x="23" y="631" type="line"/>
      <point x="23" y="707" type="line"/>
      <point x="194" y="707" type="line"/>
    </contour>
  </outline>
</glyph>
<glyph name="asciicircum" format="1">
  <advance width="500"/>
  <unicode hex="005E"/>
  <outline>
    <contour>
      <point x="182" y="365" type="line"/>
      <point x="75" y="365" type="line"/>
      <point x="202" y="627" type="line"/>
      <point x="299" y="627" type="line"/>
      <point x="425" y="365" type="line"/>
      <point x="319" y="365" type="line"/>
      <point x="251" y="525" type="line"/>
    </contour>
  </outline>
</glyph>
<glyph name="a" format="1">
  <advance width="492"/>
  <unicode hex="0061"/>
  <outline>
    <contour>
      <point x="171" y="-9" type="qcurve"/>
      <point x="95" y="-9"/>
      <point x="24" y="66"/>
      <point x="24" y="146" type="qcurve"/>
      <point x="24" y="228"/>
      <point x="109" y="296"/>
      <point x="213" y="296" type="qcurve"/>
      <point x="242" y="296"/>
      <point x="302" y="290"/>
      <point x="324" y="285" type="qcurve"/>
      <point x="324" y="327" type="line" smooth="yes"/>
      <point x="324" y="366"/>
      <point x="276" y="402"/>
      <point x="224" y="402" type="qcurve" smooth="yes"/>
      <point x="177" y="402"/>
      <point x="104" y="396"/>
      <point x="71" y="389" type="qcurve"/>
      <point x="71" y="486" type="line"/>
      <point x="109" y="495"/>
      <point x="198" y="504"/>
      <point x="259" y="504" type="qcurve" smooth="yes"/>
      <point x="350" y="504"/>
      <point x="440" y="421"/>
      <point x="440" y="338" type="qcurve"/>
      <point x="440" y="0" type="line"/>
      <point x="333" y="0" type="line"/>
      <point x="328" y="44" type="line"/>
      <point x="326" y="44" type="line"/>
      <point x="294" y="20"/>
      <point x="211" y="-9"/>
    </contour>
    <contour>
      <point x="227" y="213" type="qcurve"/>
      <point x="173" y="213"/>
      <point x="133" y="188"/>
      <point x="133" y="153" type="qcurve"/>
      <point x="133" y="119"/>
      <point x="166" y="90"/>
      <point x="206" y="90" type="qcurve"/>
      <point x="235" y="90"/>
      <point x="300" y="107"/>
      <point x="324" y="120" type="qcurve"/>
      <point x="324" y="205" type="line"/>
      <point x="300" y="209"/>
      <point x="253" y="213"/>
    </contour>
    <contour>
      <point x="248" y="530" type="move" name="top"/>
    </contour>
    <contour>
      <point x="440" y="0" type="move" name="ogonek"/>
    </contour>
  </outline>
</glyph>
<glyph name="b" format="1">
  <advance width="541"/>
  <unicode hex="0062"/>
  <outline>
    <contour>
      <point x="323" y="504" type="qcurve"/>
      <point x="423" y="504"/>
      <point x="507" y="387"/>
      <point x="507" y="251" type="qcurve" smooth="yes"/>
      <point x="507" y="113"/>
      <point x="398" y="-9"/>
      <point x="273" y="-9" type="qcurve"/>
      <point x="209" y="-9"/>
      <point x="98" y="5"/>
      <point x="54" y="18" type="qcurve"/>
      <point x="54" y="665" type="line"/>
      <point x="170" y="665" type="line"/>
      <point x="170" y="465" type="line"/>
      <point x="205" y="484"/>
      <point x="285" y="504"/>
    </contour>
    <contour>
      <point x="391" y="251" type="qcurve" smooth="yes"/>
      <point x="391" y="338"/>
      <point x="348" y="400"/>
      <point x="281" y="400" type="qcurve"/>
      <point x="252" y="400"/>
      <point x="193" y="387"/>
      <point x="170" y="376" type="qcurve"/>
      <point x="170" y="108" type="line"/>
      <point x="188" y="103"/>
      <point x="234" y="99"/>
      <point x="265" y="99" type="qcurve"/>
      <point x="342" y="99"/>
      <point x="391" y="161"/>
    </contour>
  </outline>
</glyph>
<glyph name="c" format="1">
  <advance width="434"/>
  <unicode hex="0063"/>
  <outline>
    <contour>
      <point x="411" y="125" type="qcurve"/>
      <point x="411" y="28" type="line"/>
      <point x="385" y="13"/>
      <point x="282" y="-9"/>
      <point x="227" y="-9" type="qcurve"/>
      <point x="121" y="-9"/>
      <point x="35" y="105"/>
      <point x="35" y="248" type="qcurve" smooth="yes"/>
      <point x="35" y="389"/>
      <point x="146" y="504"/>
      <point x="282" y="504" type="qcurve"/>
      <point x="315" y="504"/>
      <point x="368" y="501"/>
      <point x="398" y="497" type="qcurve"/>
      <point x="398" y="394" type="line"/>
      <point x="359" y="397"/>
      <point x="301" y="400"/>
      <point x="282" y="400" type="qcurve"/>
      <point x="200" y="400"/>
      <point x="151" y="342"/>
      <point x="151" y="248" type="qcurve" smooth="yes"/>
      <point x="151" y="157"/>
      <point x="190" y="99"/>
      <point x="252" y="99" type="qcurve"/>
      <point x="293" y="99"/>
      <point x="380" y="114"/>
    </contour>
    <contour>
      <point x="262" y="530" type="move" name="top"/>
    </contour>
    <contour>
      <point x="246" y="0" type="move" name="bottom"/>
    </contour>
  </outline>
</glyph>
<glyph name="d" format="1">
  <advance width="541"/>
  <unicode hex="0064"/>
  <outline>
    <contour>
      <point x="371" y="665" type="line"/>
      <point x="487" y="665" type="line"/>
      <point x="487" y="0" type="line"/>
      <point x="385" y="0" type="line"/>
      <point x="378" y="46" type="line"/>
      <point x="373" y="46" type="line"/>
      <point x="345" y="18"/>
      <point x="268" y="-9"/>
      <point x="218" y="-9" type="qcurve"/>
      <point x="119" y="-9"/>
      <point x="34" y="111"/>
      <point x="34" y="248" type="qcurve" smooth="yes"/>
      <point x="34" y="383"/>
      <point x="139" y="504"/>
      <point x="260" y="504" type="qcurve"/>
      <point x="292" y="504"/>
      <point x="349" y="495"/>
      <point x="371" y="487" type="qcurve"/>
    </contour>
    <contour>
      <point x="276" y="400" type="qcurve"/>
      <point x="199" y="400"/>
      <point x="150" y="338"/>
      <point x="150" y="248" type="qcurve" smooth="yes"/>
      <point x="150" y="161"/>
      <point x="193" y="99"/>
      <point x="260" y="99" type="qcurve"/>
      <point x="292" y="99"/>
      <point x="348" y="112"/>
      <point x="371" y="125" type="qcurve"/>
      <point x="371" y="383" type="line"/>
      <point x="350" y="392"/>
      <point x="304" y="400"/>
    </contour>
    <contour>
      <point x="547" y="665" type="move" name="caronalt"/>
    </contour>
  </outline>
</glyph>
<glyph name="e" format="1">
  <advance width="499"/>
  <unicode hex="0065"/>
  <outline>
    <contour>
      <point x="445" y="121" type="qcurve"/>
      <point x="445" y="27" type="line"/>
      <point x="420" y="12"/>
      <point x="313" y="-9"/>
      <point x="255" y="-9" type="qcurve" smooth="yes"/>
      <point x="137" y="-9"/>
      <point x="34" y="111"/>
      <point x="34" y="249" type="qcurve" smooth="yes"/>
      <point x="34" y="382"/>
      <point x="142" y="504"/>
      <point x="259" y="504" type="qcurve"/>
      <point x="372" y="504"/>
      <point x="466" y="410"/>
      <point x="466" y="296" type="qcurve"/>
      <point x="466" y="275"/>
      <point x="464" y="240"/>
      <point x="461" y="209" type="qcurve"/>
      <point x="151" y="209" type="line"/>
      <point x="152" y="147"/>
      <point x="205" y="97"/>
      <point x="273" y="97" type="qcurve" smooth="yes"/>
      <point x="318" y="97"/>
      <point x="414" y="111"/>
    </contour>
    <contour>
      <point x="259" y="403" type="qcurve"/>
      <point x="198" y="403"/>
      <point x="151" y="355"/>
      <point x="151" y="292" type="qcurve"/>
      <point x="360" y="292" type="line"/>
      <point x="360" y="313" type="line"/>
      <point x="359" y="364"/>
      <point x="315" y="403"/>
    </contour>
    <contour>
      <point x="260" y="530" type="move" name="top"/>
    </contour>
    <contour>
      <point x="407" y="13" type="move" name="ogonekalt"/>
    </contour>
  </outline>
</glyph>
<glyph name="f" format="1">
  <advance width="357"/>
  <unicode hex="0066"/>
  <outline>
    <contour>
      <point x="88" y="397" type="line"/>
      <point x="22" y="397" type="line"/>
      <point x="22" y="494" type="line"/>
      <point x="88" y="494" type="line"/>
      <point x="88" y="499" type="line"/>
      <point x="88" y="587"/>
      <point x="178" y="675"/>
      <point x="269" y="675" type="qcurve"/>
      <point x="291" y="675"/>
      <point x="339" y="670"/>
      <point x="360" y="666" type="qcurve"/>
      <point x="360" y="574" type="line"/>
      <point x="345" y="576"/>
      <point x="306" y="579"/>
      <point x="290" y="579" type="qcurve"/>
      <point x="239" y="579"/>
      <point x="204" y="550"/>
      <point x="204" y="508" type="qcurve"/>
      <point x="204" y="494" type="line"/>
      <point x="345" y="494" type="line"/>
      <point x="345" y="397" type="line"/>
      <point x="204" y="397" type="line"/>
      <point x="204" y="0" type="line"/>
      <point x="88" y="0" type="line"/>
    </contour>
  </outline>
</glyph>
<glyph name="g" format="1">
  <advance width="540"/>
  <unicode hex="0067"/>
  <outline>
    <contour>
      <point x="267" y="-162" type="qcurve"/>
      <point x="215" y="-162"/>
      <point x="122" y="-149"/>
      <point x="94" y="-138" type="qcurve"/>
      <point x="94" y="-38" type="line"/>
      <point x="117" y="-46"/>
      <point x="210" y="-57"/>
      <point x="256" y="-57" type="qcurve"/>
      <point x="320" y="-57"/>
      <point x="369" y="-11"/>
      <point x="370" y="48" type="qcurve"/>
      <point x="370" y="76" type="line"/>
      <point x="333" y="56"/>
      <point x="253" y="34"/>
      <point x="214" y="34" type="qcurve"/>
      <point x="117" y="34"/>
      <point x="35" y="142"/>
      <point x="35" y="269" type="qcurve" smooth="yes"/>
      <point x="35" y="396"/>
      <point x="146" y="504"/>
      <point x="278" y="504" type="qcurve"/>
      <point x="329" y="504"/>
      <point x="452" y="492"/>
      <point x="486" y="485" type="qcurve"/>
      <point x="486" y="83" type="line" smooth="yes"/>
      <point x="486" y="-53"/>
      <point x="388" y="-162"/>
    </contour>
    <contour>
      <point x="278" y="400" type="qcurve"/>
      <point x="197" y="400"/>
      <point x="151" y="351"/>
      <point x="151" y="269" type="qcurve" smooth="yes"/>
      <point x="151" y="193"/>
      <point x="190" y="142"/>
      <point x="253" y="142" type="qcurve"/>
      <point x="280" y="142"/>
      <point x="341" y="155"/>
      <point x="370" y="166" type="qcurve"/>
      <point x="370" y="391" type="line"/>
      <point x="349" y="395"/>
      <point x="302" y="400"/>
    </contour>
    <contour>
      <point x="277" y="530" type="move" name="top"/>
    </contour>
  </outline>
</glyph>
<glyph name="h" format="1">
  <advance width="553"/>
  <unicode hex="0068"/>
  <outline>
    <contour>
      <point x="171" y="0" type="line"/>
      <point x="55" y="0" type="line"/>
      <point x="55" y="665" type="line"/>
      <point x="171" y="665" type="line"/>
      <point x="171" y="457" type="line"/>
      <point x="213" y="480"/>
      <point x="297" y="504"/>
      <point x="336" y="504" type="qcurve" smooth="yes"/>
      <point x="419" y="504"/>
      <point x="502" y="423"/>
      <point x="502" y="342" type="qcurve"/>
      <point x="502" y="0" type="line"/>
      <point x="386" y="0" type="line"/>
      <point x="386" y="327" type="line" smooth="yes"/>
      <point x="386" y="365"/>
      <point x="345" y="400"/>
      <point x="300" y="400" type="qcurve" smooth="yes"/>
      <point x="269" y="400"/>
      <point x="201" y="386"/>
      <point x="171" y="374" type="qcurve"/>
    </contour>
    <contour>
      <point x="113" y="682" type="move" name="top"/>
    </contour>
  </outline>
</glyph>
<glyph name="j" format="1">
  <advance width="233"/>
  <unicode hex="006A"/>
  <outline>
    <contour>
      <point x="182" y="564" type="line"/>
      <point x="59" y="564" type="line"/>
      <point x="59" y="665" type="line"/>
      <point x="182" y="665" type="line"/>
    </contour>
    <contour>
      <point x="15" y="-162" type="qcurve"/>
      <point x="4" y="-162"/>
      <point x="-34" y="-159"/>
      <point x="-59" y="-156" type="qcurve"/>
      <point x="-59" y="-58" type="line"/>
      <point x="-50" y="-60"/>
      <point x="-32" y="-61"/>
      <point x="-23" y="-61" type="qcurve"/>
      <point x="26" y="-61"/>
      <point x="63" y="-26"/>
      <point x="63" y="19" type="qcurve"/>
      <point x="63" y="494" type="line"/>
      <point x="179" y="494" type="line"/>
      <point x="179" y="5" type="line"/>
      <point x="179" y="-77"/>
      <point x="95" y="-162"/>
    </contour>
  </outline>
</glyph>
<glyph name="k" format="1">
  <advance width="506"/>
  <unicode hex="006B"/>
  <outline>
    <contour>
      <point x="171" y="203" type="line"/>
      <point x="171" y="0" type="line"/>
      <point x="55" y="0" type="line"/>
      <point x="55" y="665" type="line"/>
      <point x="171" y="665" type="line"/>
      <point x="171" y="297" type="line"/>
      <point x="213" y="297" type="line"/>
      <point x="361" y="494" type="line"/>
      <point x="499" y="494" type="line"/>
      <point x="310" y="255" type="line"/>
      <point x="509" y="0" type="line"/>
      <point x="366" y="0" type="line"/>
      <point x="214" y="203" type="line"/>
    </contour>
    <contour>
      <point x="260" y="0" type="move" name="bottom"/>
    </contour>
  </outline>
</glyph>
<glyph name="l" format="1">
  <advance width="225"/>
  <unicode hex="006C"/>
  <outline>
    <contour>
      <point x="171" y="665" type="line"/>
      <point x="171" y="0" type="line"/>
      <point x="55" y="0" type="line"/>
      <point x="55" y="665" type="line"/>
    </contour>
    <contour>
      <point x="113" y="682" type="move" name="top"/>
    </contour>
    <contour>
      <point x="231" y="665" type="move" name="caronalt"/>
    </contour>
    <contour>
      <point x="113" y="0" type="move" name="bottom"/>
    </contour>
  </outline>
</glyph>
<glyph name="m" format="1">
  <advance width="796"/>
  <unicode hex="006D"/>
  <outline>
    <contour>
      <point x="171" y="0" type="line"/>
      <point x="55" y="0" type="line"/>
      <point x="55" y="494" type="line"/>
      <point x="162" y="494" type="line"/>
      <point x="167" y="457" type="line"/>
      <point x="170" y="457" type="line"/>
      <point x="209" y="481"/>
      <point x="280" y="504"/>
      <point x="314" y="504" type="qcurve" smooth="yes"/>
      <point x="355" y="504"/>
      <point x="414" y="479"/>
      <point x="432" y="453" type="qcurve"/>
      <point x="435" y="453" type="line"/>
      <point x="472" y="477"/>
      <point x="559" y="504"/>
      <point x="601" y="504" type="qcurve" smooth="yes"/>
      <point x="673" y="504"/>
      <point x="745" y="426"/>
      <point x="745" y="349" type="qcurve"/>
      <point x="745" y="0" type="line"/>
      <point x="629" y="0" type="line"/>
      <point x="629" y="334" type="line" smooth="yes"/>
      <point x="629" y="368"/>
      <point x="592" y="400"/>
      <point x="552" y="400" type="qcurve" smooth="yes"/>
      <point x="528" y="400"/>
      <point x="478" y="388"/>
      <point x="457" y="378" type="qcurve"/>
      <point x="458" y="373"/>
      <point x="458" y="361"/>
      <point x="458" y="349" type="qcurve"/>
      <point x="458" y="0" type="line"/>
      <point x="342" y="0" type="line"/>
      <point x="342" y="334" type="line" smooth="yes"/>
      <point x="342" y="368"/>
      <point x="305" y="400"/>
      <point x="265" y="400" type="qcurve" smooth="yes"/>
      <point x="244" y="400"/>
      <point x="197" y="389"/>
      <point x="171" y="377" type="qcurve"/>
    </contour>
  </outline>
</glyph>
<glyph name="n" format="1">
  <advance width="554"/>
  <unicode hex="006E"/>
  <outline>
    <contour>
      <point x="171" y="0" type="line"/>
      <point x="55" y="0" type="line"/>
      <point x="55" y="494" type="line"/>
      <point x="155" y="494" type="line"/>
      <point x="160" y="444" type="line"/>
      <point x="163" y="444" type="line"/>
      <point x="198" y="475"/>
      <point x="279" y="504"/>
      <point x="334" y="504" type="qcurve" smooth="yes"/>
      <point x="416" y="504"/>
      <point x="502" y="422"/>
      <point x="502" y="342" type="qcurve"/>
      <point x="502" y="0" type="line"/>
      <point x="386" y="0" type="line"/>
      <point x="386" y="327" type="line" smooth="yes"/>
      <point x="386" y="363"/>
      <point x="339" y="400"/>
      <point x="293" y="400" type="qcurve" smooth="yes"/>
      <point x="260" y="400"/>
      <point x="198" y="383"/>
      <point x="171" y="366" type="qcurve"/>
    </contour>
    <contour>
      <point x="279" y="530" type="move" name="top"/>
    </contour>
    <contour>
      <point x="-55" y="665" type="move" name="caronalt"/>
    </contour>
    <contour>
      <point x="278" y="0" type="move" name="bottom"/>
    </contour>
  </outline>
</glyph>
<glyph name="o" format="1">
  <advance width="541"/>
  <unicode hex="006F"/>
  <outline>
    <contour>
      <point x="507" y="248" type="qcurve" smooth="yes"/>
      <point x="507" y="108"/>
      <point x="400" y="-9"/>
      <point x="271" y="-9" type="qcurve" smooth="yes"/>
      <point x="140" y="-9"/>
      <point x="34" y="106"/>
      <point x="34" y="248" type="qcurve" smooth="yes"/>
      <point x="34" y="387"/>
      <point x="142" y="504"/>
      <point x="271" y="504" type="qcurve" smooth="yes"/>
      <point x="401" y="504"/>
      <point x="507" y="389"/>
    </contour>
    <contour>
      <point x="150" y="249" type="qcurve" smooth="yes"/>
      <point x="150" y="157"/>
      <point x="196" y="99"/>
      <point x="271" y="99" type="qcurve" smooth="yes"/>
      <point x="344" y="99"/>
      <point x="391" y="158"/>
      <point x="391" y="249" type="qcurve" smooth="yes"/>
      <point x="391" y="342"/>
      <point x="346" y="400"/>
      <point x="271" y="400" type="qcurve" smooth="yes"/>
      <point x="197" y="400"/>
      <point x="150" y="340"/>
    </contour>
    <contour>
      <point x="271" y="530" type="move" name="top"/>
    </contour>
  </outline>
</glyph>
<glyph name="p" format="1">
  <advance width="541"/>
  <unicode hex="0070"/>
  <outline>
    <contour>
      <point x="171" y="-152" type="line"/>
      <point x="55" y="-152" type="line"/>
      <point x="55" y="494" type="line"/>
      <point x="156" y="494" type="line"/>
      <point x="163" y="449" type="line"/>
      <point x="168" y="449" type="line"/>
      <point x="196" y="476"/>
      <point x="274" y="504"/>
      <point x="323" y="504" type="qcurve"/>
      <point x="423" y="504"/>
      <point x="508" y="385"/>
      <point x="508" y="248" type="qcurve" smooth="yes"/>
      <point x="508" y="112"/>
      <point x="402" y="-9"/>
      <point x="281" y="-9" type="qcurve"/>
      <point x="247" y="-9"/>
      <point x="191" y="0"/>
      <point x="171" y="8" type="qcurve"/>
    </contour>
    <contour>
      <point x="392" y="248" type="qcurve" smooth="yes"/>
      <point x="392" y="335"/>
      <point x="347" y="400"/>
      <point x="282" y="400" type="qcurve"/>
      <point x="251" y="400"/>
      <point x="195" y="386"/>
      <point x="171" y="373" type="qcurve"/>
      <point x="171" y="115" type="line"/>
      <point x="189" y="107"/>
      <point x="236" y="99"/>
      <point x="266" y="99" type="qcurve"/>
      <point x="343" y="99"/>
      <point x="392" y="160"/>
    </contour>
  </outline>
</glyph>
<glyph name="q" format="1">
  <advance width="541"/>
  <unicode hex="0071"/>
  <outline>
    <contour>
      <point x="487" y="485" type="qcurve"/>
      <point x="487" y="-152" type="line"/>
      <point x="371" y="-152" type="line"/>
      <point x="371" y="32" type="line"/>
      <point x="335" y="12"/>
      <point x="253" y="-9"/>
      <point x="213" y="-9" type="qcurve"/>
      <point x="116" y="-9"/>
      <point x="34" y="109"/>
      <point x="34" y="248" type="qcurve" smooth="yes"/>
      <point x="34" y="387"/>
      <point x="145" y="504"/>
      <point x="278" y="504" type="qcurve"/>
      <point x="332" y="504"/>
      <point x="455" y="492"/>
    </contour>
    <contour>
      <point x="278" y="400" type="qcurve"/>
      <point x="196" y="400"/>
      <point x="150" y="343"/>
      <point x="150" y="248" type="qcurve" smooth="yes"/>
      <point x="150" y="159"/>
      <point x="189" y="99"/>
      <point x="253" y="99" type="qcurve"/>
      <point x="281" y="99"/>
      <point x="343" y="111"/>
      <point x="371" y="122" type="qcurve"/>
      <point x="371" y="391" type="line"/>
      <point x="350" y="395"/>
      <point x="302" y="400"/>
    </contour>
  </outline>
</glyph>
<glyph name="r" format="1">
  <advance width="354"/>
  <unicode hex="0072"/>
  <outline>
    <contour>
      <point x="171" y="0" type="line"/>
      <point x="55" y="0" type="line"/>
      <point x="55" y="494" type="line"/>
      <point x="162" y="494" type="line"/>
      <point x="167" y="454" type="line"/>
      <point x="170" y="454" type="line"/>
      <point x="207" y="476"/>
      <point x="283" y="500"/>
      <point x="319" y="500" type="qcurve"/>
      <point x="329" y="500"/>
      <point x="336" y="500"/>
      <point x="338" y="499" type="qcurve"/>
      <point x="338" y="387" type="line"/>
      <point x="332" y="389"/>
      <point x="313" y="390"/>
      <point x="290" y="390" type="qcurve"/>
      <point x="255" y="390"/>
      <point x="195" y="378"/>
      <point x="171" y="367" type="qcurve"/>
    </contour>
    <contour>
      <point x="196" y="523" type="move" name="top"/>
    </contour>
    <contour>
      <point x="112" y="0" type="move" name="bottom"/>
    </contour>
  </outline>
</glyph>
<glyph name="s" format="1">
  <advance width="440"/>
  <unicode hex="0073"/>
  <outline>
    <contour>
      <point x="240" y="404" type="qcurve" smooth="yes"/>
      <point x="187" y="404"/>
      <point x="148" y="383"/>
      <point x="148" y="348" type="qcurve" smooth="yes"/>
      <point x="148" y="331"/>
      <point x="164" y="314"/>
      <point x="183" y="311" type="qcurve"/>
      <point x="306" y="293" type="line" smooth="yes"/>
      <point x="365" y="285"/>
      <point x="412" y="227"/>
      <point x="412" y="164" type="qcurve" smooth="yes"/>
      <point x="412" y="73"/>
      <point x="328" y="-9"/>
      <point x="227" y="-9" type="qcurve" smooth="yes"/>
      <point x="169" y="-9"/>
      <point x="73" y="1"/>
      <point x="40" y="11" type="qcurve"/>
      <point x="40" y="114" type="line"/>
      <point x="71" y="106"/>
      <point x="161" y="95"/>
      <point x="207" y="95" type="qcurve" smooth="yes"/>
      <point x="259" y="95"/>
      <point x="296" y="121"/>
      <point x="296" y="157" type="qcurve" smooth="yes"/>
      <point x="296" y="175"/>
      <point x="278" y="194"/>
      <point x="257" y="197" type="qcurve"/>
      <point x="132" y="215" type="line" smooth="yes"/>
      <point x="81" y="222"/>
      <point x="33" y="285"/>
      <point x="33" y="345" type="qcurve" smooth="yes"/>
      <point x="33" y="426"/>
      <point x="132" y="504"/>
      <point x="233" y="504" type="qcurve" smooth="yes"/>
      <point x="274" y="504"/>
      <point x="342" y="500"/>
      <point x="378" y="494" type="qcurve"/>
      <point x="378" y="395" type="line"/>
      <point x="352" y="399"/>
      <point x="279" y="404"/>
    </contour>
    <contour>
      <point x="222" y="530" type="move" name="top"/>
    </contour>
    <contour>
      <point x="215" y="0" type="move" name="bottom"/>
    </contour>
  </outline>
</glyph>
<glyph name="t" format="1">
  <advance width="376"/>
  <unicode hex="0074"/>
  <outline>
    <contour>
      <point x="364" y="108" type="qcurve"/>
      <point x="364" y="9" type="line"/>
      <point x="347" y="2"/>
      <point x="286" y="-9"/>
      <point x="261" y="-9" type="qcurve" smooth="yes"/>
      <point x="166" y="-9"/>
      <point x="84" y="74"/>
      <point x="84" y="171" type="qcurve"/>
      <point x="84" y="397" type="line"/>
      <point x="18" y="397" type="line"/>
      <point x="18" y="494" type="line"/>
      <point x="87" y="494" type="line"/>
      <point x="103" y="612" type="line"/>
      <point x="200" y="612" type="line"/>
      <point x="200" y="494" type="line"/>
      <point x="358" y="494" type="line"/>
      <point x="358" y="397" type="line"/>
      <point x="200" y="397" type="line"/>
      <point x="200" y="175" type="line" smooth="yes"/>
      <point x="200" y="131"/>
      <point x="238" y="99"/>
      <point x="287" y="99" type="qcurve" smooth="yes"/>
      <point x="304" y="99"/>
      <point x="350" y="104"/>
    </contour>
    <contour>
      <point x="260" y="723" type="move" name="caronalt"/>
    </contour>
    <contour>
      <point x="232" y="0" type="move" name="bottom"/>
    </contour>
  </outline>
</glyph>
<glyph name="u" format="1">
  <advance width="535"/>
  <unicode hex="0075"/>
  <outline>
    <contour>
      <point x="217" y="-9" type="qcurve" smooth="yes"/>
      <point x="134" y="-9"/>
      <point x="52" y="74"/>
      <point x="52" y="157" type="qcurve"/>
      <point x="52" y="494" type="line"/>
      <point x="168" y="494" type="line"/>
      <point x="168" y="172" type="line" smooth="yes"/>
      <point x="168" y="134"/>
      <point x="208" y="100"/>
      <point x="253" y="100" type="qcurve" smooth="yes"/>
      <point x="281" y="100"/>
      <point x="339" y="112"/>
      <point x="364" y="122" type="qcurve"/>
      <point x="364" y="494" type="line"/>
      <point x="480" y="494" type="line"/>
      <point x="480" y="0" type="line"/>
      <point x="373" y="0" type="line"/>
      <point x="369" y="34" type="line"/>
      <point x="366" y="34" type="line"/>
      <point x="325" y="13"/>
      <point x="250" y="-9"/>
    </contour>
    <contour>
      <point x="270" y="520" type="move" name="top"/>
    </contour>
    <contour>
      <point x="480" y="0" type="move" name="ogonek"/>
    </contour>
  </outline>
</glyph>
<glyph name="v" format="1">
  <advance width="504"/>
  <unicode hex="0076"/>
  <outline>
    <contour>
      <point x="372" y="494" type="line"/>
      <point x="499" y="494" type="line"/>
      <point x="319" y="0" type="line"/>
      <point x="186" y="0" type="line"/>
      <point x="5" y="494" type="line"/>
      <point x="133" y="494" type="line"/>
      <point x="253" y="106" type="line"/>
    </contour>
  </outline>
</glyph>
<glyph name="w" format="1">
  <advance width="727"/>
  <unicode hex="0077"/>
  <outline>
    <contour>
      <point x="590" y="494" type="line"/>
      <point x="717" y="494" type="line"/>
      <point x="582" y="0" type="line"/>
      <point x="446" y="0" type="line"/>
      <point x="358" y="334" type="line"/>
      <point x="279" y="0" type="line"/>
      <point x="145" y="0" type="line"/>
      <point x="10" y="494" type="line"/>
      <point x="137" y="494" type="line"/>
      <point x="214" y="107" type="line"/>
      <point x="306" y="494" type="line"/>
      <point x="417" y="494" type="line"/>
      <point x="513" y="107" type="line"/>
    </contour>
    <contour>
      <point x="360" y="520" type="move" name="top"/>
    </contour>
  </outline>
</glyph>
<glyph name="x" format="1">
  <advance width="460"/>
  <unicode hex="0078"/>
  <outline>
    <contour>
      <point x="298" y="257" type="line"/>
      <point x="456" y="0" type="line"/>
      <point x="328" y="0" type="line"/>
      <point x="226" y="177" type="line"/>
      <point x="125" y="0" type="line"/>
      <point x="4" y="0" type="line"/>
      <point x="163" y="257" type="line"/>
      <point x="9" y="494" type="line"/>
      <point x="145" y="494" type="line"/>
      <point x="235" y="333" type="line"/>
      <point x="330" y="494" type="line"/>
      <point x="451" y="494" type="line"/>
    </contour>
    <contour>
      <point x="236" y="520" type="move" name="top"/>
    </contour>
  </outline>
</glyph>
<glyph name="y" format="1">
  <advance width="503"/>
  <unicode hex="0079"/>
  <outline>
    <contour>
      <point x="111" y="-61" type="qcurve"/>
      <point x="148" y="-61"/>
      <point x="184" y="-34"/>
      <point x="197" y="9" type="qcurve"/>
      <point x="3" y="494" type="line"/>
      <point x="133" y="494" type="line"/>
      <point x="256" y="123" type="line"/>
      <point x="373" y="494" type="line"/>
      <point x="498" y="494" type="line"/>
      <point x="309" y="-22" type="line" smooth="yes"/>
      <point x="281" y="-98"/>
      <point x="200" y="-162"/>
      <point x="134" y="-162" type="qcurve"/>
      <point x="114" y="-162"/>
      <point x="72" y="-158"/>
      <point x="56" y="-155" type="qcurve"/>
      <point x="56" y="-58" type="line"/>
      <point x="64" y="-60"/>
      <point x="86" y="-61"/>
    </contour>
    <contour>
      <point x="257" y="520" type="move" name="top"/>
    </contour>
  </outline>
</glyph>
<glyph name="z" format="1">
  <advance width="426"/>
  <unicode hex="007A"/>
  <outline>
    <contour>
      <point x="403" y="101" type="line"/>
      <point x="403" y="0" type="line"/>
      <point x="26" y="0" type="line"/>
      <point x="26" y="101" type="line"/>
      <point x="256" y="397" type="line"/>
      <point x="44" y="397" type="line"/>
      <point x="44" y="494" type="line"/>
      <point x="386" y="494" type="line"/>
      <point x="386" y="397" type="line"/>
      <point x="158" y="101" type="line"/>
    </contour>
    <contour>
      <point x="214" y="520" type="move" name="top"/>
    </contour>
  </outline>
</glyph>
<glyph name="braceleft" format="1">
  <advance width="294"/>
  <unicode hex="007B"/>
  <outline>
    <contour>
      <point x="105" y="318" type="qcurve"/>
      <point x="106" y="314" type="line"/>
      <point x="144" y="307"/>
      <point x="192" y="223"/>
      <point x="192" y="157" type="qcurve"/>
      <point x="192" y="53" type="line"/>
      <point x="192" y="14"/>
      <point x="228" y="-15"/>
      <point x="274" y="-15" type="qcurve"/>
      <point x="274" y="-92" type="line"/>
      <point x="191" y="-92"/>
      <point x="107" y="-21"/>
      <point x="107" y="50" type="qcurve"/>
      <point x="107" y="157" type="line" smooth="yes"/>
      <point x="107" y="214"/>
      <point x="57" y="281"/>
      <point x="22" y="281" type="qcurve"/>
      <point x="7" y="281" type="line"/>
      <point x="7" y="350" type="line"/>
      <point x="22" y="350" type="line"/>
      <point x="57" y="350"/>
      <point x="107" y="416"/>
      <point x="107" y="473" type="qcurve"/>
      <point x="107" y="576" type="line"/>
      <point x="107" y="647"/>
      <point x="191" y="718"/>
      <point x="274" y="718" type="qcurve"/>
      <point x="274" y="641" type="line"/>
      <point x="228" y="641"/>
      <point x="192" y="613"/>
      <point x="192" y="574" type="qcurve"/>
      <point x="192" y="473" type="line" smooth="yes"/>
      <point x="192" y="408"/>
      <point x="144" y="326"/>
    </contour>
  </outline>
</glyph>
<glyph name="bar" format="1">
  <advance width="202"/>
  <unicode hex="007C"/>
  <outline>
    <contour>
      <point x="144" y="707" type="line"/>
      <point x="144" y="-80" type="line"/>
      <point x="59" y="-80" type="line"/>
      <point x="59" y="707" type="line"/>
    </contour>
  </outline>
</glyph>
<glyph name="braceright" format="1">
  <advance width="294"/>
  <unicode hex="007D"/>
  <outline>
    <contour>
      <point x="188" y="314" type="qcurve"/>
      <point x="189" y="318" type="line"/>
      <point x="150" y="326"/>
      <point x="102" y="408"/>
      <point x="102" y="473" type="qcurve"/>
      <point x="102" y="574" type="line"/>
      <point x="102" y="613"/>
      <point x="66" y="641"/>
      <point x="20" y="641" type="qcurve"/>
      <point x="20" y="718" type="line"/>
      <point x="103" y="718"/>
      <point x="187" y="647"/>
      <point x="187" y="576" type="qcurve"/>
      <point x="187" y="473" type="line" smooth="yes"/>
      <point x="187" y="416"/>
      <point x="237" y="350"/>
      <point x="272" y="350" type="qcurve"/>
      <point x="287" y="350" type="line"/>
      <point x="287" y="281" type="line"/>
      <point x="272" y="281" type="line"/>
      <point x="237" y="281"/>
      <point x="187" y="214"/>
      <point x="187" y="157" type="qcurve"/>
      <point x="187" y="50" type="line"/>
      <point x="187" y="-21"/>
      <point x="103" y="-92"/>
      <point x="20" y="-92" type="qcurve"/>
      <point x="20" y="-15" type="line"/>
      <point x="66" y="-15"/>
      <point x="102" y="14"/>
      <point x="102" y="53" type="qcurve"/>
      <point x="102" y="157" type="line"/>
      <point x="102" y="223"/>
      <point x="150" y="307"/>
    </contour>
  </outline>
</glyph>
<glyph name="asciitilde" format="1">
  <advance width="626"/>
  <unicode hex="007E"/>
  <outline>
    <contour>
      <point x="482" y="451" type="qcurve"/>
      <point x="595" y="451" type="line"/>
      <point x="595" y="337"/>
      <point x="517" y="209"/>
      <point x="444" y="209" type="qcurve"/>
      <point x="412" y="209"/>
      <point x="345" y="240"/>
      <point x="290" y="288" type="qcurve" smooth="yes"/>
      <point x="252" y="320"/>
      <point x="219" y="339"/>
      <point x="205" y="339" type="qcurve"/>
      <point x="175" y="339"/>
      <point x="145" y="276"/>
      <point x="145" y="217" type="qcurve"/>
      <point x="32" y="217" type="line"/>
      <point x="32" y="330"/>
      <point x="112" y="459"/>
      <point x="186" y="459" type="qcurve"/>
      <point x="218" y="459"/>
      <point x="285" y="428"/>
      <point x="341" y="381" type="qcurve" smooth="yes"/>
      <point x="378" y="349"/>
      <point x="412" y="331"/>
      <point x="425" y="331" type="qcurve"/>
      <point x="453" y="331"/>
      <point x="482" y="395"/>
    </contour>
  </outline>
</glyph>
<glyph name="exclamdown" format="1">
  <advance width="227"/>
  <unicode hex="00A1"/>
  <outline>
    <contour>
      <point x="53" y="494" type="line"/>
      <point x="173" y="494" type="line"/>
      <point x="173" y="386" type="line"/>
      <point x="53" y="386" type="line"/>
    </contour>
    <contour>
      <point x="164" y="307" type="line"/>
      <point x="179" y="-133" type="line"/>
      <point x="47" y="-133" type="line"/>
      <point x="62" y="307" type="line"/>
    </contour>
  </outline>
</glyph>
<glyph name="cent" format="1">
  <advance width="437"/>
  <unicode hex="00A2"/>
  <outline>
    <contour>
      <point x="293" y="67" type="qcurve"/>
      <point x="293" y="-21" type="line"/>
      <point x="212" y="-21" type="line"/>
      <point x="212" y="63" type="line"/>
      <point x="114" y="67"/>
      <point x="34" y="182"/>
      <point x="34" y="320" type="qcurve" smooth="yes"/>
      <point x="34" y="443"/>
      <point x="116" y="559"/>
      <point x="212" y="572" type="qcurve"/>
      <point x="212" y="659" type="line"/>
      <point x="293" y="659" type="line"/>
      <point x="293" y="576" type="line"/>
      <point x="326" y="575"/>
      <point x="374" y="572"/>
      <point x="397" y="569" type="qcurve"/>
      <point x="397" y="466" type="line"/>
      <point x="358" y="469"/>
      <point x="300" y="472"/>
      <point x="281" y="472" type="qcurve"/>
      <point x="199" y="472"/>
      <point x="150" y="414"/>
      <point x="150" y="320" type="qcurve" smooth="yes"/>
      <point x="150" y="229"/>
      <point x="189" y="171"/>
      <point x="251" y="171" type="qcurve"/>
      <point x="292" y="171"/>
      <point x="379" y="186"/>
      <point x="410" y="197" type="qcurve"/>
      <point x="410" y="100" type="line"/>
      <point x="393" y="90"/>
      <point x="330" y="72"/>
    </contour>
  </outline>
</glyph>
<glyph name="sterling" format="1">
  <advance width="486"/>
  <unicode hex="00A3"/>
  <outline>
    <contour>
      <point x="33" y="263" type="line"/>
      <point x="33" y="345" type="line"/>
      <point x="106" y="345" type="line"/>
      <point x="106" y="453" type="line" smooth="yes"/>
      <point x="106" y="544"/>
      <point x="204" y="637"/>
      <point x="300" y="637" type="qcurve" smooth="yes"/>
      <point x="333" y="637"/>
      <point x="391" y="631"/>
      <point x="443" y="620" type="qcurve"/>
      <point x="443" y="516" type="line"/>
      <point x="403" y="524"/>
      <point x="344" y="531"/>
      <point x="319" y="531" type="qcurve" smooth="yes"/>
      <point x="271" y="531"/>
      <point x="226" y="485"/>
      <point x="226" y="436" type="qcurve"/>
      <point x="226" y="345" type="line"/>
      <point x="409" y="345" type="line"/>
      <point x="409" y="263" type="line"/>
      <point x="226" y="263" type="line"/>
      <point x="226" y="243" type="line"/>
      <point x="226" y="195"/>
      <point x="188" y="132"/>
      <point x="150" y="116" type="qcurve"/>
      <point x="150" y="113" type="line"/>
      <point x="459" y="113" type="line"/>
      <point x="459" y="0" type="line"/>
      <point x="33" y="0" type="line"/>
      <point x="33" y="114" type="line"/>
      <point x="67" y="133"/>
      <point x="106" y="202"/>
      <point x="106" y="243" type="qcurve"/>
      <point x="106" y="263" type="line"/>
    </contour>
  </outline>
</glyph>
<glyph name="currency" format="1">
  <advance width="621"/>
  <unicode hex="00A4"/>
  <outline>
    <contour>
      <point x="92" y="39" type="line"/>
      <point x="33" y="98" type="line"/>
      <point x="97" y="162" type="line"/>
      <point x="74" y="195"/>
      <point x="50" y="273"/>
      <point x="50" y="316" type="qcurve" smooth="yes"/>
      <point x="50" y="360"/>
      <point x="74" y="438"/>
      <point x="98" y="471" type="qcurve"/>
      <point x="34" y="534" type="line"/>
      <point x="93" y="593" type="line"/>
      <point x="157" y="529" type="line"/>
      <point x="190" y="552"/>
      <point x="267" y="575"/>
      <point x="309" y="575" type="qcurve" smooth="yes"/>
      <point x="352" y="575"/>
      <point x="431" y="552"/>
      <point x="463" y="529" type="qcurve"/>
      <point x="527" y="593" type="line"/>
      <point x="586" y="534" type="line"/>
      <point x="523" y="471" type="line"/>
      <point x="547" y="438"/>
      <point x="572" y="358"/>
      <point x="572" y="315" type="qcurve" smooth="yes"/>
      <point x="572" y="273"/>
      <point x="548" y="196"/>
      <point x="524" y="162" type="qcurve"/>
      <point x="588" y="98" type="line"/>
      <point x="529" y="39" type="line"/>
      <point x="464" y="104" type="line"/>
      <point x="432" y="81"/>
      <point x="354" y="56"/>
      <point x="311" y="56" type="qcurve" smooth="yes"/>
      <point x="268" y="56"/>
      <point x="189" y="80"/>
      <point x="156" y="103" type="qcurve"/>
    </contour>
    <contour>
      <point x="311" y="474" type="qcurve" smooth="yes"/>
      <point x="243" y="474"/>
      <point x="157" y="387"/>
      <point x="156" y="318" type="qcurve" smooth="yes"/>
      <point x="157" y="248"/>
      <point x="243" y="161"/>
      <point x="311" y="162" type="qcurve" smooth="yes"/>
      <point x="380" y="161"/>
      <point x="465" y="248"/>
      <point x="465" y="318" type="qcurve" smooth="yes"/>
      <point x="465" y="386"/>
      <point x="380" y="473"/>
    </contour>
  </outline>
</glyph>
<glyph name="yen" format="1">
  <advance width="554"/>
  <unicode hex="00A5"/>
  <outline>
    <contour>
      <point x="66" y="104" type="line"/>
      <point x="66" y="176" type="line"/>
      <point x="219" y="176" type="line"/>
      <point x="219" y="226" type="line"/>
      <point x="66" y="226" type="line"/>
      <point x="66" y="297" type="line"/>
      <point x="187" y="297" type="line"/>
      <point x="15" y="627" type="line"/>
      <point x="152" y="627" type="line"/>
      <point x="280" y="342" type="line"/>
      <point x="413" y="627" type="line"/>
      <point x="537" y="627" type="line"/>
      <point x="370" y="297" type="line"/>
      <point x="493" y="297" type="line"/>
      <point x="493" y="226" type="line"/>
      <point x="339" y="226" type="line"/>
      <point x="339" y="176" type="line"/>
      <point x="493" y="176" type="line"/>
      <point x="493" y="104" type="line"/>
      <point x="339" y="104" type="line"/>
      <point x="339" y="0" type="line"/>
      <point x="219" y="0" type="line"/>
      <point x="219" y="104" type="line"/>
    </contour>
  </outline>
</glyph>
<glyph name="section" format="1">
  <advance width="463"/>
  <unicode hex="00A7"/>
  <outline>
    <contour>
      <point x="257" y="550" type="qcurve"/>
      <point x="212" y="550"/>
      <point x="172" y="531"/>
      <point x="172" y="511" type="qcurve"/>
      <point x="172" y="497"/>
      <point x="193" y="478"/>
      <point x="225" y="466" type="qcurve"/>
      <point x="359" y="413" type="line" smooth="yes"/>
      <point x="399" y="397"/>
      <point x="439" y="346"/>
      <point x="439" y="310" type="qcurve"/>
      <point x="439" y="276"/>
      <point x="408" y="213"/>
      <point x="379" y="190" type="qcurve"/>
      <point x="393" y="176"/>
      <point x="405" y="141"/>
      <point x="405" y="117" type="qcurve"/>
      <point x="405" y="56"/>
      <point x="316" y="-10"/>
      <point x="234" y="-10" type="qcurve"/>
      <point x="185" y="-10"/>
      <point x="108" y="-1"/>
      <point x="75" y="9" type="qcurve"/>
      <point x="75" y="97" type="line"/>
      <point x="109" y="86"/>
      <point x="173" y="76"/>
      <point x="206" y="77" type="qcurve"/>
      <point x="250" y="77"/>
      <point x="291" y="96"/>
      <point x="291" y="116" type="qcurve"/>
      <point x="291" y="130"/>
      <point x="270" y="149"/>
      <point x="238" y="162" type="qcurve"/>
      <point x="108" y="212" type="line" smooth="yes"/>
      <point x="66" y="228"/>
      <point x="24" y="280"/>
      <point x="24" y="317" type="qcurve"/>
      <point x="24" y="352"/>
      <point x="55" y="416"/>
      <point x="84" y="438" type="qcurve"/>
      <point x="71" y="452"/>
      <point x="59" y="488"/>
      <point x="59" y="511" type="qcurve"/>
      <point x="59" y="571"/>
      <point x="148" y="637"/>
      <point x="229" y="637" type="qcurve"/>
      <point x="276" y="637"/>
      <point x="351" y="629"/>
      <point x="388" y="619" type="qcurve"/>
      <point x="388" y="531" type="line"/>
      <point x="353" y="541"/>
      <point x="289" y="551"/>
    </contour>
    <contour>
      <point x="129" y="339" type="qcurve"/>
      <point x="129" y="317"/>
      <point x="147" y="294"/>
      <point x="174" y="284" type="qcurve"/>
      <point x="308" y="231" type="line"/>
      <point x="321" y="244"/>
      <point x="335" y="275"/>
      <point x="335" y="289" type="qcurve"/>
      <point x="335" y="311"/>
      <point x="317" y="333"/>
      <point x="289" y="344" type="qcurve"/>
      <point x="156" y="397" type="line"/>
      <point x="143" y="384"/>
      <point x="129" y="353"/>
    </contour>
  </outline>
</glyph>
<glyph name="copyright" format="1">
  <advance width="688"/>
  <unicode hex="00A9"/>
  <outline>
    <contour>
      <point x="655" y="314" type="qcurve"/>
      <point x="655" y="158"/>
      <point x="495" y="-10"/>
      <point x="345" y="-10" type="qcurve"/>
      <point x="192" y="-10"/>
      <point x="34" y="154"/>
      <point x="34" y="314" type="qcurve"/>
      <point x="34" y="471"/>
      <point x="194" y="637"/>
      <point x="345" y="637" type="qcurve"/>
      <point x="499" y="637"/>
      <point x="655" y="474"/>
    </contour>
    <contour>
      <point x="579" y="314" type="qcurve"/>
      <point x="579" y="441"/>
      <point x="464" y="566"/>
      <point x="346" y="566" type="qcurve"/>
      <point x="227" y="566"/>
      <point x="110" y="441"/>
      <point x="110" y="314" type="qcurve"/>
      <point x="110" y="189"/>
      <point x="226" y="67"/>
      <point x="346" y="67" type="qcurve"/>
      <point x="465" y="67"/>
      <point x="579" y="188"/>
    </contour>
    <contour>
      <point x="367" y="219" type="qcurve"/>
      <point x="389" y="219"/>
      <point x="438" y="228"/>
      <point x="461" y="237" type="qcurve"/>
      <point x="461" y="159" type="line"/>
      <point x="440" y="149"/>
      <point x="383" y="137"/>
      <point x="352" y="137" type="qcurve"/>
      <point x="260" y="137"/>
      <point x="179" y="222"/>
      <point x="179" y="316" type="qcurve" smooth="yes"/>
      <point x="179" y="407"/>
      <point x="268" y="494"/>
      <point x="361" y="494" type="qcurve"/>
      <point x="384" y="494"/>
      <point x="425" y="490"/>
      <point x="452" y="484" type="qcurve"/>
      <point x="452" y="408" type="line"/>
      <point x="426" y="412"/>
      <point x="390" y="415"/>
      <point x="365" y="415" type="qcurve"/>
      <point x="317" y="415"/>
      <point x="278" y="369"/>
      <point x="278" y="316" type="qcurve" smooth="yes"/>
      <point x="278" y="264"/>
      <point x="319" y="219"/>
    </contour>
  </outline>
</glyph>
<glyph name="ordfeminine" format="1">
  <advance width="339"/>
  <unicode hex="00AA"/>
  <outline>
    <contour>
      <point x="290" y="355" type="line"/>
      <point x="219" y="355" type="line"/>
      <point x="217" y="379" type="line"/>
      <point x="215" y="379" type="line"/>
      <point x="193" y="364"/>
      <point x="150" y="349"/>
      <point x="129" y="349" type="qcurve"/>
      <point x="84" y="349"/>
      <point x="41" y="392"/>
      <point x="41" y="437" type="qcurve"/>
      <point x="41" y="482"/>
      <point x="92" y="521"/>
      <point x="153" y="521" type="qcurve"/>
      <point x="169" y="521"/>
      <point x="203" y="518"/>
      <point x="214" y="516" type="qcurve"/>
      <point x="214" y="533" type="line" smooth="yes"/>
      <point x="214" y="553"/>
      <point x="187" y="570"/>
      <point x="158" y="570" type="qcurve" smooth="yes"/>
      <point x="129" y="570"/>
      <point x="85" y="567"/>
      <point x="69" y="563" type="qcurve"/>
      <point x="69" y="627" type="line"/>
      <point x="94" y="632"/>
      <point x="145" y="637"/>
      <point x="181" y="637" type="qcurve"/>
      <point x="235" y="637"/>
      <point x="290" y="591"/>
      <point x="290" y="545" type="qcurve"/>
    </contour>
    <contour>
      <point x="162" y="470" type="qcurve"/>
      <point x="134" y="470"/>
      <point x="113" y="457"/>
      <point x="113" y="441" type="qcurve"/>
      <point x="113" y="426"/>
      <point x="131" y="412"/>
      <point x="152" y="412" type="qcurve"/>
      <point x="168" y="412"/>
      <point x="202" y="420"/>
      <point x="214" y="427" type="qcurve"/>
      <point x="214" y="466" type="line"/>
      <point x="202" y="468"/>
      <point x="176" y="470"/>
    </contour>
    <contour>
      <point x="294" y="243" type="line"/>
      <point x="42" y="243" type="line"/>
      <point x="42" y="310" type="line"/>
      <point x="294" y="310" type="line"/>
    </contour>
  </outline>
</glyph>
<glyph name="guillemotleft" format="1">
  <advance width="509"/>
  <unicode hex="00AB"/>
  <outline>
    <contour>
      <point x="275" y="64" type="line"/>
      <point x="166" y="64" type="line"/>
      <point x="17" y="281" type="line"/>
      <point x="166" y="494" type="line"/>
      <point x="275" y="494" type="line"/>
      <point x="127" y="282" type="line"/>
    </contour>
    <contour>
      <point x="488" y="64" type="line"/>
      <point x="379" y="64" type="line"/>
      <point x="230" y="281" type="line"/>
      <point x="379" y="494" type="line"/>
      <point x="488" y="494" type="line"/>
      <point x="341" y="282" type="line"/>
    </contour>
  </outline>
</glyph>
<glyph name="registered" format="1">
  <advance width="419"/>
  <unicode hex="00AE"/>
  <outline>
    <contour>
      <point x="390" y="454" type="qcurve"/>
      <point x="390" y="364"/>
      <point x="298" y="270"/>
      <point x="210" y="270" type="qcurve"/>
      <point x="119" y="270"/>
      <point x="29" y="362"/>
      <point x="29" y="454" type="qcurve"/>
      <point x="29" y="544"/>
      <point x="122" y="637"/>
      <point x="211" y="637" type="qcurve"/>
      <point x="300" y="637"/>
      <point x="390" y="545"/>
    </contour>
    <contour>
      <point x="337" y="454" type="qcurve"/>
      <point x="337" y="524"/>
      <point x="276" y="590"/>
      <point x="211" y="590" type="qcurve"/>
      <point x="146" y="590"/>
      <point x="83" y="524"/>
      <point x="83" y="454" type="qcurve"/>
      <point x="83" y="386"/>
      <point x="146" y="321"/>
      <point x="211" y="321" type="qcurve"/>
      <point x="276" y="321"/>
      <point x="337" y="386"/>
    </contour>
    <contour>
      <point x="184" y="421" type="line"/>
      <point x="184" y="355" type="line"/>
      <point x="136" y="355" type="line"/>
      <point x="136" y="557" type="line"/>
      <point x="209" y="557" type="line" smooth="yes"/>
      <point x="256" y="557"/>
      <point x="294" y="524"/>
      <point x="294" y="489" type="qcurve"/>
      <point x="294" y="465"/>
      <point x="273" y="433"/>
      <point x="252" y="426" type="qcurve"/>
      <point x="298" y="355" type="line"/>
      <point x="238" y="355" type="line"/>
      <point x="201" y="421" type="line"/>
    </contour>
    <contour>
      <point x="244" y="489" type="qcurve"/>
      <point x="244" y="501"/>
      <point x="229" y="513"/>
      <point x="209" y="513" type="qcurve"/>
      <point x="184" y="513" type="line"/>
      <point x="184" y="460" type="line"/>
      <point x="209" y="460" type="line" smooth="yes"/>
      <point x="229" y="460"/>
      <point x="244" y="474"/>
    </contour>
  </outline>
</glyph>
<glyph name="degree" format="1">
  <advance width="323"/>
  <unicode hex="00B0"/>
  <outline>
    <contour>
      <point x="297" y="500" type="qcurve" smooth="yes"/>
      <point x="297" y="439"/>
      <point x="224" y="366"/>
      <point x="162" y="366" type="qcurve" smooth="yes"/>
      <point x="100" y="366"/>
      <point x="26" y="439"/>
      <point x="26" y="500" type="qcurve" smooth="yes"/>
      <point x="26" y="560"/>
      <point x="101" y="634"/>
      <point x="162" y="634" type="qcurve" smooth="yes"/>
      <point x="223" y="634"/>
      <point x="297" y="561"/>
    </contour>
    <contour>
      <point x="101" y="501" type="qcurve" smooth="yes"/>
      <point x="101" y="472"/>
      <point x="134" y="438"/>
      <point x="162" y="438" type="qcurve" smooth="yes"/>
      <point x="190" y="438"/>
      <point x="223" y="472"/>
      <point x="223" y="501" type="qcurve" smooth="yes"/>
      <point x="223" y="529"/>
      <point x="190" y="562"/>
      <point x="162" y="562" type="qcurve" smooth="yes"/>
      <point x="134" y="562"/>
      <point x="101" y="529"/>
    </contour>
  </outline>
</glyph>
<glyph name="plusminus" format="1">
  <advance width="500"/>
  <unicode hex="00B1"/>
  <outline>
    <contour>
      <point x="463" y="466" type="line"/>
      <point x="463" y="357" type="line"/>
      <point x="307" y="357" type="line"/>
      <point x="307" y="219" type="line"/>
      <point x="194" y="219" type="line"/>
      <point x="194" y="357" type="line"/>
      <point x="37" y="357" type="line"/>
      <point x="37" y="466" type="line"/>
      <point x="194" y="466" type="line"/>
      <point x="194" y="601" type="line"/>
      <point x="307" y="601" type="line"/>
      <point x="307" y="466" type="line"/>
    </contour>
    <contour>
      <point x="463" y="155" type="line"/>
      <point x="463" y="46" type="line"/>
      <point x="37" y="46" type="line"/>
      <point x="37" y="155" type="line"/>
    </contour>
  </outline>
</glyph>
<glyph name="uni00B2" format="1">
  <advance width="295"/>
  <unicode hex="00B2"/>
  <outline>
    <contour>
      <point x="267" y="352" type="line"/>
      <point x="267" y="270" type="line"/>
      <point x="22" y="270" type="line"/>
      <point x="22" y="352" type="line"/>
      <point x="154" y="480" type="line" smooth="yes"/>
      <point x="167" y="493"/>
      <point x="179" y="515"/>
      <point x="179" y="527" type="qcurve"/>
      <point x="179" y="540"/>
      <point x="161" y="554"/>
      <point x="144" y="554" type="qcurve"/>
      <point x="129" y="554"/>
      <point x="84" y="550"/>
      <point x="49" y="545" type="qcurve" smooth="yes"/>
      <point x="44" y="544"/>
      <point x="40" y="544"/>
      <point x="40" y="544" type="qcurve"/>
      <point x="40" y="620" type="line"/>
      <point x="65" y="626"/>
      <point x="128" y="633"/>
      <point x="159" y="633" type="qcurve"/>
      <point x="210" y="633"/>
      <point x="266" y="583"/>
      <point x="266" y="539" type="qcurve"/>
      <point x="266" y="510"/>
      <point x="247" y="467"/>
      <point x="224" y="445" type="qcurve"/>
      <point x="126" y="352" type="line"/>
    </contour>
  </outline>
</glyph>
<glyph name="uni00B3" format="1">
  <advance width="288"/>
  <unicode hex="00B3"/>
  <outline>
    <contour>
      <point x="248" y="541" type="qcurve"/>
      <point x="248" y="508"/>
      <point x="217" y="466"/>
      <point x="189" y="459" type="qcurve"/>
      <point x="189" y="458" type="line"/>
      <point x="226" y="455"/>
      <point x="263" y="412"/>
      <point x="263" y="373" type="qcurve"/>
      <point x="263" y="321"/>
      <point x="196" y="265"/>
      <point x="133" y="265" type="qcurve"/>
      <point x="96" y="265"/>
      <point x="39" y="271"/>
      <point x="24" y="277" type="qcurve"/>
      <point x="24" y="349" type="line"/>
      <point x="47" y="345"/>
      <point x="89" y="342"/>
      <point x="117" y="342" type="qcurve"/>
      <point x="154" y="342"/>
      <point x="183" y="359"/>
      <point x="183" y="381" type="qcurve"/>
      <point x="183" y="400"/>
      <point x="157" y="418"/>
      <point x="130" y="418" type="qcurve"/>
      <point x="66" y="418" type="line"/>
      <point x="66" y="488" type="line"/>
      <point x="115" y="488" type="line"/>
      <point x="141" y="488"/>
      <point x="169" y="507"/>
      <point x="169" y="525" type="qcurve"/>
      <point x="169" y="543"/>
      <point x="146" y="559"/>
      <point x="120" y="559" type="qcurve"/>
      <point x="108" y="559"/>
      <point x="69" y="555"/>
      <point x="40" y="551" type="qcurve" smooth="yes"/>
      <point x="36" y="550"/>
      <point x="33" y="550"/>
      <point x="33" y="550" type="qcurve"/>
      <point x="33" y="618" type="line"/>
      <point x="51" y="625"/>
      <point x="114" y="633"/>
      <point x="146" y="633" type="qcurve"/>
      <point x="196" y="633"/>
      <point x="248" y="586"/>
    </contour>
  </outline>
</glyph>
<glyph name="acute" format="1">
  <advance width="335"/>
  <unicode hex="00B4"/>
  <outline>
    <contour>
      <point x="154" y="684" type="line"/>
      <point x="285" y="684" type="line"/>
      <point x="146" y="558" type="line"/>
      <point x="50" y="558" type="line"/>
    </contour>
    <contour>
      <point x="132" y="530" type="move" name="_top"/>
    </contour>
  </outline>
</glyph>
<glyph name="paragraph" format="1">
  <advance width="483"/>
  <unicode hex="00B6"/>
  <outline>
    <contour>
      <point x="426" y="627" type="qcurve"/>
      <point x="426" y="17" type="line" smooth="yes"/>
      <point x="426" y="-66"/>
      <point x="339" y="-162"/>
      <point x="265" y="-162" type="qcurve"/>
      <point x="248" y="-162"/>
      <point x="221" y="-161"/>
      <point x="189" y="-157" type="qcurve"/>
      <point x="189" y="-58" type="line"/>
      <point x="190" y="-58"/>
      <point x="218" y="-61"/>
      <point x="229" y="-61" type="qcurve"/>
      <point x="274" y="-61"/>
      <point x="310" y="-26"/>
      <point x="310" y="17" type="qcurve"/>
      <point x="310" y="138" type="line"/>
      <point x="286" y="134"/>
      <point x="238" y="129"/>
      <point x="215" y="129" type="qcurve"/>
      <point x="108" y="129"/>
      <point x="22" y="242"/>
      <point x="22" y="383" type="qcurve" smooth="yes"/>
      <point x="22" y="524"/>
      <point x="133" y="639"/>
      <point x="269" y="639" type="qcurve"/>
      <point x="311" y="639"/>
      <point x="389" y="633"/>
    </contour>
    <contour>
      <point x="264" y="532" type="qcurve"/>
      <point x="186" y="532"/>
      <point x="138" y="473"/>
      <point x="138" y="383" type="qcurve" smooth="yes"/>
      <point x="138" y="293"/>
      <point x="177" y="235"/>
      <point x="239" y="235" type="qcurve"/>
      <point x="254" y="235"/>
      <point x="290" y="238"/>
      <point x="310" y="241" type="qcurve"/>
      <point x="310" y="530" type="line"/>
      <point x="299" y="531"/>
      <point x="276" y="532"/>
    </contour>
  </outline>
</glyph>
<glyph name="cedilla" format="1">
  <advance width="328"/>
  <unicode hex="00B8"/>
  <outline>
    <contour>
      <point x="279" y="-112" type="qcurve"/>
      <point x="279" y="-155"/>
      <point x="225" y="-195"/>
      <point x="165" y="-195" type="qcurve" smooth="yes"/>
      <point x="134" y="-195"/>
      <point x="71" y="-188"/>
      <point x="60" y="-184" type="qcurve"/>
      <point x="60" y="-124" type="line"/>
      <point x="70" y="-127"/>
      <point x="124" y="-135"/>
      <point x="145" y="-135" type="qcurve" smooth="yes"/>
      <point x="168" y="-135"/>
      <point x="186" y="-124"/>
      <point x="186" y="-108" type="qcurve"/>
      <point x="186" y="-96"/>
      <point x="163" y="-85"/>
      <point x="137" y="-85" type="qcurve"/>
      <point x="119" y="-85"/>
      <point x="100" y="-85"/>
      <point x="88" y="-86" type="qcurve"/>
      <point x="108" y="17" type="line"/>
      <point x="188" y="10" type="line"/>
      <point x="178" y="-44" type="line"/>
      <point x="226" y="-43"/>
      <point x="279" y="-78"/>
    </contour>
    <contour>
      <point x="151" y="0" type="move" name="_bottom"/>
    </contour>
  </outline>
</glyph>
<glyph name="uni00B9" format="1">
  <advance width="244"/>
  <unicode hex="00B9"/>
  <outline>
    <contour>
      <point x="200" y="270" type="line"/>
      <point x="113" y="270" type="line"/>
      <point x="113" y="550" type="line"/>
      <point x="13" y="538" type="line"/>
      <point x="13" y="611" type="line"/>
      <point x="200" y="633" type="line"/>
    </contour>
  </outline>
</glyph>
<glyph name="ordmasculine" format="1">
  <advance width="363"/>
  <unicode hex="00BA"/>
  <outline>
    <contour>
      <point x="323" y="493" type="qcurve" smooth="yes"/>
      <point x="323" y="419"/>
      <point x="255" y="349"/>
      <point x="183" y="349" type="qcurve" smooth="yes"/>
      <point x="109" y="349"/>
      <point x="41" y="418"/>
      <point x="41" y="493" type="qcurve" smooth="yes"/>
      <point x="41" y="567"/>
      <point x="110" y="637"/>
      <point x="183" y="637" type="qcurve" smooth="yes"/>
      <point x="255" y="637"/>
      <point x="323" y="568"/>
    </contour>
    <contour>
      <point x="118" y="494" type="qcurve" smooth="yes"/>
      <point x="118" y="452"/>
      <point x="147" y="420"/>
      <point x="183" y="420" type="qcurve" smooth="yes"/>
      <point x="218" y="420"/>
      <point x="247" y="453"/>
      <point x="247" y="494" type="qcurve" smooth="yes"/>
      <point x="247" y="535"/>
      <point x="219" y="568"/>
      <point x="183" y="568" type="qcurve" smooth="yes"/>
      <point x="147" y="568"/>
      <point x="118" y="535"/>
    </contour>
    <contour>
      <point x="316" y="243" type="line"/>
      <point x="46" y="243" type="line"/>
      <point x="46" y="310" type="line"/>
      <point x="316" y="310" type="line"/>
    </contour>
  </outline>
</glyph>
<glyph name="guillemotright" format="1">
  <advance width="509"/>
  <unicode hex="00BB"/>
  <outline>
    <contour>
      <point x="492" y="281" type="line"/>
      <point x="343" y="64" type="line"/>
      <point x="234" y="64" type="line"/>
      <point x="382" y="282" type="line"/>
      <point x="234" y="494" type="line"/>
      <point x="343" y="494" type="line"/>
    </contour>
    <contour>
      <point x="279" y="281" type="line"/>
      <point x="130" y="64" type="line"/>
      <point x="21" y="64" type="line"/>
      <point x="168" y="282" type="line"/>
      <point x="21" y="494" type="line"/>
      <point x="130" y="494" type="line"/>
    </contour>
  </outline>
</glyph>
<glyph name="questiondown" format="1">
  <advance width="373"/>
  <unicode hex="00BF"/>
  <outline>
    <contour>
      <point x="153" y="386" type="line"/>
      <point x="153" y="494" type="line"/>
      <point x="274" y="494" type="line"/>
      <point x="274" y="386" type="line"/>
    </contour>
    <contour>
      <point x="189" y="-143" type="qcurve"/>
      <point x="109" y="-143"/>
      <point x="18" y="-72"/>
      <point x="18" y="-7" type="qcurve" smooth="yes"/>
      <point x="18" y="51"/>
      <point x="85" y="148"/>
      <point x="160" y="196" type="qcurve"/>
      <point x="160" y="306" type="line"/>
      <point x="266" y="306" type="line"/>
      <point x="266" y="156" type="line"/>
      <point x="192" y="116"/>
      <point x="131" y="52"/>
      <point x="131" y="20" type="qcurve" smooth="yes"/>
      <point x="131" y="-9"/>
      <point x="169" y="-38"/>
      <point x="207" y="-38" type="qcurve"/>
      <point x="241" y="-38"/>
      <point x="325" y="-23"/>
      <point x="354" y="-12" type="qcurve"/>
      <point x="354" y="-115" type="line"/>
      <point x="316" y="-129"/>
      <point x="236" y="-143"/>
    </contour>
  </outline>
</glyph>
<glyph name="AE" format="1">
  <advance width="740"/>
  <unicode hex="00C6"/>
  <outline>
    <contour>
      <point x="129" y="0" type="line"/>
      <point x="3" y="0" type="line"/>
      <point x="233" y="627" type="line"/>
      <point x="701" y="627" type="line"/>
      <point x="701" y="519" type="line"/>
      <point x="397" y="519" type="line"/>
      <point x="448" y="371" type="line"/>
      <point x="664" y="371" type="line"/>
      <point x="664" y="268" type="line"/>
      <point x="483" y="268" type="line"/>
      <point x="536" y="113" type="line"/>
      <point x="710" y="113" type="line"/>
      <point x="710" y="0" type="line"/>
      <point x="457" y="0" type="line"/>
      <point x="413" y="128" type="line"/>
      <point x="173" y="128" type="line"/>
    </contour>
    <contour>
      <point x="292" y="502" type="qcurve"/>
      <point x="282" y="465"/>
      <point x="261" y="385"/>
      <point x="251" y="354" type="qcurve"/>
      <point x="207" y="227" type="line"/>
      <point x="379" y="227" type="line"/>
      <point x="335" y="354" type="line" smooth="yes"/>
      <point x="327" y="380"/>
      <point x="304" y="458"/>
    </contour>
    <contour>
      <point x="442" y="645" type="move" name="top"/>
    </contour>
  </outline>
</glyph>
<glyph name="Ccedilla" format="1">
  <advance width="513"/>
  <unicode hex="00C7"/>
  <outline>
    <contour>
      <point x="425" y="-112" type="qcurve"/>
      <point x="425" y="-155"/>
      <point x="371" y="-195"/>
      <point x="311" y="-195" type="qcurve" smooth="yes"/>
      <point x="280" y="-195"/>
      <point x="217" y="-188"/>
      <point x="206" y="-184" type="qcurve"/>
      <point x="206" y="-124" type="line"/>
      <point x="216" y="-127"/>
      <point x="270" y="-135"/>
      <point x="291" y="-135" type="qcurve" smooth="yes"/>
      <point x="314" y="-135"/>
      <point x="332" y="-124"/>
      <point x="332" y="-108" type="qcurve"/>
      <point x="332" y="-96"/>
      <point x="309" y="-85"/>
      <point x="283" y="-85" type="qcurve"/>
      <point x="265" y="-85"/>
      <point x="246" y="-85"/>
      <point x="234" y="-86" type="qcurve"/>
      <point x="249" y="-7" type="line"/>
      <point x="133" y="4"/>
      <point x="36" y="155"/>
      <point x="36" y="315" type="qcurve" smooth="yes"/>
      <point x="36" y="482"/>
      <point x="176" y="637"/>
      <point x="331" y="637" type="qcurve"/>
      <point x="377" y="637"/>
      <point x="449" y="633"/>
      <point x="478" y="628" type="qcurve"/>
      <point x="478" y="523" type="line"/>
      <point x="440" y="526"/>
      <point x="369" y="529"/>
      <point x="331" y="529" type="qcurve"/>
      <point x="230" y="529"/>
      <point x="159" y="435"/>
      <point x="159" y="315" type="qcurve" smooth="yes"/>
      <point x="159" y="195"/>
      <point x="224" y="104"/>
      <point x="321" y="104" type="qcurve" smooth="yes"/>
      <point x="362" y="104"/>
      <point x="455" y="122"/>
      <point x="492" y="137" type="qcurve"/>
      <point x="492" y="30" type="line"/>
      <point x="445" y="11"/>
      <point x="371" y="-6"/>
      <point x="331" y="-8" type="qcurve"/>
      <point x="324" y="-44" type="line"/>
      <point x="372" y="-43"/>
      <point x="425" y="-78"/>
    </contour>
  </outline>
</glyph>
<glyph name="multiply" format="1">
  <advance width="500"/>
  <unicode hex="00D7"/>
  <outline>
    <contour>
      <point x="37" y="457" type="line"/>
      <point x="116" y="536" type="line"/>
      <point x="251" y="401" type="line"/>
      <point x="387" y="537" type="line"/>
      <point x="464" y="460" type="line"/>
      <point x="328" y="324" type="line"/>
      <point x="466" y="186" type="line"/>
      <point x="386" y="107" type="line"/>
      <point x="249" y="245" type="line"/>
      <point x="112" y="108" type="line"/>
      <point x="35" y="185" type="line"/>
      <point x="172" y="322" type="line"/>
    </contour>
  </outline>
</glyph>
<glyph name="Oslash" format="1">
  <advance width="647"/>
  <unicode hex="00D8"/>
  <outline>
    <contour>
      <point x="111" y="-62" type="line"/>
      <point x="45" y="-19" type="line"/>
      <point x="100" y="62" type="line"/>
      <point x="67" y="99"/>
      <point x="36" y="222"/>
      <point x="36" y="315" type="qcurve"/>
      <point x="36" y="485"/>
      <point x="172" y="637"/>
      <point x="324" y="637" type="qcurve"/>
      <point x="370" y="637"/>
      <point x="444" y="626"/>
      <point x="474" y="615" type="qcurve"/>
      <point x="530" y="699" type="line"/>
      <point x="597" y="656" type="line"/>
      <point x="541" y="573" type="line"/>
      <point x="577" y="536"/>
      <point x="611" y="411"/>
      <point x="611" y="315" type="qcurve"/>
      <point x="611" y="144"/>
      <point x="476" y="-9"/>
      <point x="324" y="-9" type="qcurve"/>
      <point x="274" y="-9"/>
      <point x="195" y="3"/>
      <point x="164" y="16" type="qcurve"/>
    </contour>
    <contour>
      <point x="324" y="529" type="qcurve"/>
      <point x="224" y="529"/>
      <point x="158" y="439"/>
      <point x="158" y="315" type="qcurve"/>
      <point x="158" y="265"/>
      <point x="166" y="197"/>
      <point x="175" y="174" type="qcurve"/>
      <point x="409" y="520" type="line"/>
      <point x="394" y="525"/>
      <point x="354" y="529"/>
    </contour>
    <contour>
      <point x="324" y="104" type="qcurve" smooth="yes"/>
      <point x="423" y="104"/>
      <point x="489" y="193"/>
      <point x="489" y="315" type="qcurve"/>
      <point x="489" y="369"/>
      <point x="479" y="442"/>
      <point x="469" y="466" type="qcurve"/>
      <point x="231" y="115" type="line"/>
      <point x="248" y="109"/>
      <point x="293" y="104"/>
    </contour>
    <contour>
      <point x="324" y="655" type="move" name="top"/>
    </contour>
  </outline>
</glyph>
<glyph name="Thorn" format="1">
  <advance width="570"/>
  <unicode hex="00DE"/>
  <outline>
    <contour>
      <point x="180" y="98" type="line"/>
      <point x="180" y="0" type="line"/>
      <point x="60" y="0" type="line"/>
      <point x="60" y="627" type="line"/>
      <point x="180" y="627" type="line"/>
      <point x="180" y="535" type="line"/>
      <point x="281" y="535" type="line" smooth="yes"/>
      <point x="420" y="535"/>
      <point x="539" y="436"/>
      <point x="539" y="322" type="qcurve"/>
      <point x="539" y="208"/>
      <point x="414" y="98"/>
      <point x="284" y="98" type="qcurve"/>
    </contour>
    <contour>
      <point x="417" y="322" type="qcurve"/>
      <point x="417" y="379"/>
      <point x="356" y="426"/>
      <point x="281" y="426" type="qcurve"/>
      <point x="180" y="426" type="line"/>
      <point x="180" y="203" type="line"/>
      <point x="281" y="203" type="line" smooth="yes"/>
      <point x="356" y="203"/>
      <point x="417" y="258"/>
    </contour>
  </outline>
</glyph>
<glyph name="germandbls" format="1">
  <advance width="582"/>
  <unicode hex="00DF"/>
  <outline>
    <contour>
      <point x="260" y="677" type="qcurve"/>
      <point x="360" y="677"/>
      <point x="456" y="610"/>
      <point x="456" y="538" type="qcurve" smooth="yes"/>
      <point x="456" y="522"/>
      <point x="449" y="480"/>
      <point x="443" y="457" type="qcurve"/>
      <point x="415" y="340" type="line"/>
      <point x="464" y="325" type="line" smooth="yes"/>
      <point x="514" y="310"/>
      <point x="552" y="244"/>
      <point x="552" y="176" type="qcurve" smooth="yes"/>
      <point x="552" y="82"/>
      <point x="468" y="-10"/>
      <point x="380" y="-10" type="qcurve" smooth="yes"/>
      <point x="344" y="-10"/>
      <point x="282" y="-3"/>
      <point x="260" y="3" type="qcurve"/>
      <point x="260" y="105" type="line"/>
      <point x="281" y="100"/>
      <point x="331" y="94"/>
      <point x="360" y="94" type="qcurve" smooth="yes"/>
      <point x="405" y="94"/>
      <point x="442" y="131"/>
      <point x="442" y="176" type="qcurve" smooth="yes"/>
      <point x="442" y="205"/>
      <point x="425" y="232"/>
      <point x="400" y="239" type="qcurve"/>
      <point x="293" y="267" type="line"/>
      <point x="332" y="461" type="line" smooth="yes"/>
      <point x="338" y="484"/>
      <point x="340" y="502"/>
      <point x="340" y="511" type="qcurve" smooth="yes"/>
      <point x="340" y="542"/>
      <point x="301" y="573"/>
      <point x="260" y="573" type="qcurve"/>
      <point x="211" y="573"/>
      <point x="171" y="534"/>
      <point x="171" y="487" type="qcurve"/>
      <point x="171" y="0" type="line"/>
      <point x="55" y="0" type="line"/>
      <point x="55" y="488" type="line" smooth="yes"/>
      <point x="55" y="585"/>
      <point x="155" y="677"/>
    </contour>
  </outline>
</glyph>
<glyph name="ae" format="1">
  <advance width="750"/>
  <unicode hex="00E6"/>
  <outline>
    <contour>
      <point x="171" y="-9" type="qcurve"/>
      <point x="95" y="-9"/>
      <point x="24" y="66"/>
      <point x="24" y="145" type="qcurve"/>
      <point x="24" y="225"/>
      <point x="111" y="291"/>
      <point x="214" y="291" type="qcurve"/>
      <point x="308" y="291" type="line"/>
      <point x="308" y="327" type="line" smooth="yes"/>
      <point x="308" y="366"/>
      <point x="265" y="402"/>
      <point x="218" y="402" type="qcurve" smooth="yes"/>
      <point x="172" y="402"/>
      <point x="102" y="396"/>
      <point x="71" y="389" type="qcurve"/>
      <point x="71" y="486" type="line"/>
      <point x="108" y="495"/>
      <point x="194" y="504"/>
      <point x="253" y="504" type="qcurve" smooth="yes"/>
      <point x="296" y="504"/>
      <point x="357" y="478"/>
      <point x="375" y="453" type="qcurve"/>
      <point x="401" y="478"/>
      <point x="474" y="504"/>
      <point x="520" y="504" type="qcurve"/>
      <point x="626" y="504"/>
      <point x="716" y="410"/>
      <point x="716" y="296" type="qcurve"/>
      <point x="716" y="268"/>
      <point x="714" y="231"/>
      <point x="712" y="209" type="qcurve"/>
      <point x="421" y="209" type="line"/>
      <point x="422" y="147"/>
      <point x="471" y="97"/>
      <point x="534" y="97" type="qcurve" smooth="yes"/>
      <point x="576" y="97"/>
      <point x="667" y="111"/>
      <point x="695" y="121" type="qcurve"/>
      <point x="695" y="27" type="line"/>
      <point x="671" y="12"/>
      <point x="569" y="-9"/>
      <point x="515" y="-9" type="qcurve" smooth="yes"/>
      <point x="456" y="-9"/>
      <point x="376" y="24"/>
      <point x="351" y="58" type="qcurve"/>
      <point x="315" y="26"/>
      <point x="221" y="-9"/>
    </contour>
    <contour>
      <point x="611" y="313" type="qcurve"/>
      <point x="609" y="364"/>
      <point x="570" y="403"/>
      <point x="520" y="403" type="qcurve"/>
      <point x="464" y="403"/>
      <point x="421" y="354"/>
      <point x="421" y="291" type="qcurve"/>
      <point x="610" y="291" type="line"/>
      <point x="611" y="294"/>
      <point x="611" y="304"/>
    </contour>
    <contour>
      <point x="133" y="151" type="qcurve"/>
      <point x="133" y="118"/>
      <point x="164" y="90"/>
      <point x="202" y="90" type="qcurve"/>
      <point x="233" y="90"/>
      <point x="298" y="111"/>
      <point x="321" y="127" type="qcurve"/>
      <point x="316" y="145"/>
      <point x="310" y="186"/>
      <point x="309" y="209" type="qcurve"/>
      <point x="221" y="209" type="line" smooth="yes"/>
      <point x="170" y="209"/>
      <point x="133" y="185"/>
    </contour>
    <contour>
      <point x="381" y="530" type="move" name="top"/>
    </contour>
  </outline>
</glyph>
<glyph name="ccedilla" format="1">
  <advance width="434"/>
  <unicode hex="00E7"/>
  <outline>
    <contour>
      <point x="374" y="-112" type="qcurve"/>
      <point x="374" y="-155"/>
      <point x="320" y="-195"/>
      <point x="260" y="-195" type="qcurve" smooth="yes"/>
      <point x="229" y="-195"/>
      <point x="166" y="-188"/>
      <point x="155" y="-184" type="qcurve"/>
      <point x="155" y="-124" type="line"/>
      <point x="165" y="-127"/>
      <point x="219" y="-135"/>
      <point x="240" y="-135" type="qcurve" smooth="yes"/>
      <point x="263" y="-135"/>
      <point x="281" y="-124"/>
      <point x="281" y="-108" type="qcurve"/>
      <point x="281" y="-96"/>
      <point x="258" y="-85"/>
      <point x="232" y="-85" type="qcurve"/>
      <point x="214" y="-85"/>
      <point x="195" y="-85"/>
      <point x="183" y="-86" type="qcurve"/>
      <point x="198" y="-8" type="line"/>
      <point x="109" y="-1"/>
      <point x="35" y="114"/>
      <point x="35" y="248" type="qcurve" smooth="yes"/>
      <point x="35" y="389"/>
      <point x="146" y="504"/>
      <point x="282" y="504" type="qcurve"/>
      <point x="315" y="504"/>
      <point x="368" y="501"/>
      <point x="398" y="497" type="qcurve"/>
      <point x="398" y="394" type="line"/>
      <point x="359" y="397"/>
      <point x="301" y="400"/>
      <point x="282" y="400" type="qcurve"/>
      <point x="200" y="400"/>
      <point x="151" y="342"/>
      <point x="151" y="248" type="qcurve" smooth="yes"/>
      <point x="151" y="157"/>
      <point x="190" y="99"/>
      <point x="252" y="99" type="qcurve"/>
      <point x="293" y="99"/>
      <point x="380" y="114"/>
      <point x="411" y="125" type="qcurve"/>
      <point x="411" y="28" type="line"/>
      <point x="393" y="17"/>
      <point x="321" y="-2"/>
      <point x="280" y="-6" type="qcurve"/>
      <point x="273" y="-44" type="line"/>
      <point x="321" y="-43"/>
      <point x="374" y="-78"/>
    </contour>
  </outline>
</glyph>
<glyph name="eth" format="1">
  <advance width="545"/>
  <unicode hex="00F0"/>
  <outline>
    <contour>
      <point x="507" y="237" type="qcurve" smooth="yes"/>
      <point x="507" y="103"/>
      <point x="400" y="-9"/>
      <point x="271" y="-9" type="qcurve" smooth="yes"/>
      <point x="140" y="-9"/>
      <point x="34" y="101"/>
      <point x="34" y="237" type="qcurve" smooth="yes"/>
      <point x="34" y="370"/>
      <point x="142" y="482"/>
      <point x="271" y="482" type="qcurve" smooth="yes"/>
      <point x="296" y="482"/>
      <point x="339" y="478"/>
      <point x="359" y="473" type="qcurve"/>
      <point x="351" y="492"/>
      <point x="333" y="530"/>
      <point x="323" y="547" type="qcurve"/>
      <point x="154" y="509" type="line"/>
      <point x="154" y="575" type="line"/>
      <point x="284" y="605" type="line"/>
      <point x="272" y="620"/>
      <point x="247" y="650"/>
      <point x="233" y="665" type="qcurve"/>
      <point x="359" y="665" type="line"/>
      <point x="365" y="659"/>
      <point x="378" y="644"/>
      <point x="390" y="629" type="qcurve"/>
      <point x="501" y="654" type="line"/>
      <point x="501" y="587" type="line"/>
      <point x="430" y="571" type="line"/>
      <point x="470" y="505"/>
      <point x="507" y="343"/>
    </contour>
    <contour>
      <point x="150" y="238" type="qcurve" smooth="yes"/>
      <point x="150" y="152"/>
      <point x="196" y="99"/>
      <point x="271" y="99" type="qcurve" smooth="yes"/>
      <point x="344" y="99"/>
      <point x="391" y="154"/>
      <point x="391" y="238" type="qcurve" smooth="yes"/>
      <point x="391" y="264"/>
      <point x="389" y="297"/>
      <point x="386" y="310" type="qcurve"/>
      <point x="384" y="311" type="line"/>
      <point x="384" y="313"/>
      <point x="384" y="316"/>
      <point x="384" y="317" type="qcurve"/>
      <point x="376" y="351"/>
      <point x="328" y="378"/>
      <point x="271" y="378" type="qcurve" smooth="yes"/>
      <point x="197" y="378"/>
      <point x="150" y="323"/>
    </contour>
  </outline>
</glyph>
<glyph name="oslash" format="1">
  <advance width="541"/>
  <unicode hex="00F8"/>
  <outline>
    <contour>
      <point x="99" y="-74" type="line"/>
      <point x="35" y="-29" type="line"/>
      <point x="87" y="49" type="line"/>
      <point x="60" y="78"/>
      <point x="34" y="175"/>
      <point x="34" y="248" type="qcurve" smooth="yes"/>
      <point x="34" y="387"/>
      <point x="142" y="504"/>
      <point x="271" y="504" type="qcurve" smooth="yes"/>
      <point x="309" y="504"/>
      <point x="367" y="496"/>
      <point x="390" y="487" type="qcurve"/>
      <point x="444" y="565" type="line"/>
      <point x="508" y="521" type="line"/>
      <point x="456" y="445" type="line"/>
      <point x="482" y="415"/>
      <point x="507" y="320"/>
      <point x="507" y="248" type="qcurve" smooth="yes"/>
      <point x="507" y="108"/>
      <point x="400" y="-9"/>
      <point x="271" y="-9" type="qcurve" smooth="yes"/>
      <point x="236" y="-9"/>
      <point x="178" y="-1"/>
      <point x="155" y="6" type="qcurve"/>
    </contour>
    <contour>
      <point x="271" y="400" type="qcurve" smooth="yes"/>
      <point x="197" y="400"/>
      <point x="150" y="340"/>
      <point x="150" y="249" type="qcurve" smooth="yes"/>
      <point x="150" y="213"/>
      <point x="155" y="166"/>
      <point x="161" y="150" type="qcurve"/>
      <point x="329" y="395" type="line"/>
      <point x="319" y="398"/>
      <point x="292" y="400"/>
    </contour>
    <contour>
      <point x="271" y="99" type="qcurve" smooth="yes"/>
      <point x="344" y="99"/>
      <point x="391" y="158"/>
      <point x="391" y="249" type="qcurve" smooth="yes"/>
      <point x="391" y="284"/>
      <point x="387" y="328"/>
      <point x="382" y="344" type="qcurve"/>
      <point x="217" y="103" type="line"/>
      <point x="227" y="101"/>
      <point x="253" y="99"/>
    </contour>
    <contour>
      <point x="271" y="530" type="move" name="top"/>
    </contour>
  </outline>
</glyph>
<glyph name="thorn" format="1">
  <advance width="541"/>
  <unicode hex="00FE"/>
  <outline>
    <contour>
      <point x="171" y="-152" type="line"/>
      <point x="55" y="-152" type="line"/>
      <point x="55" y="665" type="line"/>
      <point x="171" y="665" type="line"/>
      <point x="171" y="460" type="line"/>
      <point x="200" y="481"/>
      <point x="278" y="504"/>
      <point x="323" y="504" type="qcurve"/>
      <point x="423" y="504"/>
      <point x="508" y="385"/>
      <point x="508" y="248" type="qcurve" smooth="yes"/>
      <point x="508" y="112"/>
      <point x="402" y="-9"/>
      <point x="281" y="-9" type="qcurve"/>
      <point x="247" y="-9"/>
      <point x="191" y="0"/>
      <point x="171" y="8" type="qcurve"/>
    </contour>
    <contour>
      <point x="392" y="248" type="qcurve" smooth="yes"/>
      <point x="392" y="335"/>
      <point x="347" y="400"/>
      <point x="282" y="400" type="qcurve"/>
      <point x="250" y="400"/>
      <point x="194" y="387"/>
      <point x="171" y="374" type="qcurve"/>
      <point x="171" y="115" type="line"/>
      <point x="189" y="107"/>
      <point x="236" y="99"/>
      <point x="266" y="99" type="qcurve"/>
      <point x="343" y="99"/>
      <point x="392" y="160"/>
    </contour>
  </outline>
</glyph>
<glyph name="Aogonek" format="1">
  <advance width="607"/>
  <unicode hex="0104"/>
  <outline>
    <contour>
      <point x="129" y="0" type="line"/>
      <point x="3" y="0" type="line"/>
      <point x="243" y="627" type="line"/>
      <point x="367" y="627" type="line"/>
      <point x="603" y="0" type="line"/>
      <point x="600" y="0" type="line"/>
      <point x="539" y="-12"/>
      <point x="468" y="-58"/>
      <point x="468" y="-88" type="qcurve"/>
      <point x="468" y="-109"/>
      <point x="494" y="-129"/>
      <point x="523" y="-129" type="qcurve"/>
      <point x="534" y="-129"/>
      <point x="563" y="-125"/>
      <point x="575" y="-122" type="qcurve"/>
      <point x="575" y="-193" type="line"/>
      <point x="551" y="-199"/>
      <point x="512" y="-204"/>
      <point x="494" y="-204" type="qcurve"/>
      <point x="440" y="-204"/>
      <point x="384" y="-155"/>
      <point x="384" y="-109" type="qcurve"/>
      <point x="384" y="-69"/>
      <point x="430" y="-12"/>
      <point x="475" y="4" type="qcurve"/>
      <point x="432" y="128" type="line"/>
      <point x="173" y="128" type="line"/>
    </contour>
    <contour>
      <point x="302" y="512" type="qcurve"/>
      <point x="291" y="474"/>
      <point x="264" y="390"/>
      <point x="252" y="354" type="qcurve"/>
      <point x="208" y="227" type="line"/>
      <point x="397" y="227" type="line"/>
      <point x="353" y="354" type="line" smooth="yes"/>
      <point x="342" y="386"/>
      <point x="314" y="471"/>
    </contour>
  </outline>
</glyph>
<glyph name="aogonek" format="1">
  <advance width="492"/>
  <unicode hex="0105"/>
  <outline>
    <contour>
      <point x="171" y="-9" type="qcurve"/>
      <point x="95" y="-9"/>
      <point x="24" y="66"/>
      <point x="24" y="146" type="qcurve"/>
      <point x="24" y="228"/>
      <point x="109" y="296"/>
      <point x="213" y="296" type="qcurve"/>
      <point x="242" y="296"/>
      <point x="302" y="290"/>
      <point x="324" y="285" type="qcurve"/>
      <point x="324" y="327" type="line" smooth="yes"/>
      <point x="324" y="366"/>
      <point x="276" y="402"/>
      <point x="224" y="402" type="qcurve" smooth="yes"/>
      <point x="177" y="402"/>
      <point x="104" y="396"/>
      <point x="71" y="389" type="qcurve"/>
      <point x="71" y="486" type="line"/>
      <point x="109" y="495"/>
      <point x="198" y="504"/>
      <point x="259" y="504" type="qcurve" smooth="yes"/>
      <point x="350" y="504"/>
      <point x="440" y="421"/>
      <point x="440" y="338" type="qcurve"/>
      <point x="440" y="0" type="line"/>
      <point x="379" y="-12"/>
      <point x="308" y="-58"/>
      <point x="308" y="-88" type="qcurve"/>
      <point x="308" y="-109"/>
      <point x="334" y="-129"/>
      <point x="363" y="-129" type="qcurve"/>
      <point x="374" y="-129"/>
      <point x="403" y="-125"/>
      <point x="415" y="-122" type="qcurve"/>
      <point x="415" y="-193" type="line"/>
      <point x="391" y="-199"/>
      <point x="352" y="-204"/>
      <point x="334" y="-204" type="qcurve"/>
      <point x="280" y="-204"/>
      <point x="224" y="-155"/>
      <point x="224" y="-109" type="qcurve"/>
      <point x="224" y="-66"/>
      <point x="278" y="-7"/>
      <point x="332" y="10" type="qcurve"/>
      <point x="328" y="44" type="line"/>
      <point x="326" y="44" type="line"/>
      <point x="294" y="20"/>
      <point x="211" y="-9"/>
    </contour>
    <contour>
      <point x="227" y="213" type="qcurve"/>
      <point x="173" y="213"/>
      <point x="133" y="188"/>
      <point x="133" y="153" type="qcurve"/>
      <point x="133" y="119"/>
      <point x="166" y="90"/>
      <point x="206" y="90" type="qcurve"/>
      <point x="235" y="90"/>
      <point x="300" y="107"/>
      <point x="324" y="120" type="qcurve"/>
      <point x="324" y="205" type="line"/>
      <point x="300" y="209"/>
      <point x="253" y="213"/>
    </contour>
  </outline>
</glyph>
<glyph name="Dcroat" format="1">
  <advance width="634"/>
  <unicode hex="0110"/>
  <outline>
    <contour>
      <point x="20" y="280" type="line"/>
      <point x="20" y="362" type="line"/>
      <point x="90" y="362" type="line"/>
      <point x="90" y="627" type="line"/>
      <point x="291" y="627" type="line" smooth="yes"/>
      <point x="387" y="627"/>
      <point x="500" y="595"/>
      <point x="534" y="560" type="qcurve" smooth="yes"/>
      <point x="568" y="525"/>
      <point x="599" y="406"/>
      <point x="599" y="314" type="qcurve"/>
      <point x="599" y="151"/>
      <point x="453" y="0"/>
      <point x="291" y="0" type="qcurve"/>
      <point x="90" y="0" type="line"/>
      <point x="90" y="280" type="line"/>
    </contour>
    <contour>
      <point x="352" y="362" type="line"/>
      <point x="352" y="280" type="line"/>
      <point x="210" y="280" type="line"/>
      <point x="210" y="113" type="line"/>
      <point x="291" y="113" type="line" smooth="yes"/>
      <point x="399" y="113"/>
      <point x="475" y="201"/>
      <point x="475" y="314" type="qcurve"/>
      <point x="475" y="374"/>
      <point x="459" y="450"/>
      <point x="442" y="473" type="qcurve" smooth="yes"/>
      <point x="423" y="498"/>
      <point x="355" y="519"/>
      <point x="291" y="519" type="qcurve"/>
      <point x="210" y="519" type="line"/>
      <point x="210" y="362" type="line"/>
    </contour>
  </outline>
</glyph>
<glyph name="dcroat" format="1">
  <advance width="542"/>
  <unicode hex="0111"/>
  <outline>
    <contour>
      <point x="557" y="617" type="line"/>
      <point x="557" y="551" type="line"/>
      <point x="487" y="551" type="line"/>
      <point x="487" y="0" type="line"/>
      <point x="385" y="0" type="line"/>
      <point x="378" y="47" type="line"/>
      <point x="373" y="47" type="line"/>
      <point x="345" y="19"/>
      <point x="268" y="-9"/>
      <point x="218" y="-9" type="qcurve"/>
      <point x="119" y="-9"/>
      <point x="34" y="107"/>
      <point x="34" y="240" type="qcurve" smooth="yes"/>
      <point x="34" y="372"/>
      <point x="139" y="489"/>
      <point x="260" y="489" type="qcurve"/>
      <point x="294" y="489"/>
      <point x="350" y="481"/>
      <point x="371" y="473" type="qcurve"/>
      <point x="371" y="551" type="line"/>
      <point x="210" y="551" type="line"/>
      <point x="210" y="617" type="line"/>
      <point x="371" y="617" type="line"/>
      <point x="371" y="665" type="line"/>
      <point x="487" y="665" type="line"/>
      <point x="487" y="617" type="line"/>
    </contour>
    <contour>
      <point x="276" y="385" type="qcurve"/>
      <point x="200" y="385"/>
      <point x="150" y="326"/>
      <point x="150" y="240" type="qcurve" smooth="yes"/>
      <point x="150" y="158"/>
      <point x="193" y="99"/>
      <point x="260" y="99" type="qcurve"/>
      <point x="292" y="99"/>
      <point x="348" y="112"/>
      <point x="371" y="125" type="qcurve"/>
      <point x="371" y="368" type="line"/>
      <point x="350" y="377"/>
      <point x="304" y="385"/>
    </contour>
  </outline>
</glyph>
<glyph name="Eogonek" format="1">
  <advance width="514"/>
  <unicode hex="0118"/>
  <outline>
    <contour>
      <point x="484" y="0" type="line"/>
      <point x="440" y="0" type="line"/>
      <point x="379" y="-12"/>
      <point x="308" y="-58"/>
      <point x="308" y="-88" type="qcurve"/>
      <point x="308" y="-109"/>
      <point x="334" y="-129"/>
      <point x="363" y="-129" type="qcurve"/>
      <point x="374" y="-129"/>
      <point x="403" y="-125"/>
      <point x="415" y="-122" type="qcurve"/>
      <point x="415" y="-193" type="line"/>
      <point x="391" y="-199"/>
      <point x="352" y="-204"/>
      <point x="334" y="-204" type="qcurve"/>
      <point x="280" y="-204"/>
      <point x="224" y="-155"/>
      <point x="224" y="-109" type="qcurve"/>
      <point x="224" y="-72"/>
      <point x="265" y="-18"/>
      <point x="305" y="0" type="qcurve"/>
      <point x="60" y="0" type="line"/>
      <point x="60" y="627" type="line"/>
      <point x="475" y="627" type="line"/>
      <point x="475" y="519" type="line"/>
      <point x="180" y="519" type="line"/>
      <point x="180" y="371" type="line"/>
      <point x="438" y="371" type="line"/>
      <point x="438" y="268" type="line"/>
      <point x="180" y="268" type="line"/>
      <point x="180" y="113" type="line"/>
      <point x="484" y="113" type="line"/>
    </contour>
  </outline>
</glyph>
<glyph name="eogonek" format="1">
  <advance width="499"/>
  <unicode hex="0119"/>
  <outline>
    <contour>
      <point x="445" y="121" type="qcurve"/>
      <point x="445" y="27" type="line"/>
      <point x="437" y="22"/>
      <point x="417" y="14"/>
      <point x="407" y="11" type="qcurve"/>
      <point x="339" y="-27"/>
      <point x="290" y="-79"/>
      <point x="290" y="-106" type="qcurve"/>
      <point x="290" y="-126"/>
      <point x="317" y="-146"/>
      <point x="344" y="-146" type="qcurve"/>
      <point x="355" y="-146"/>
      <point x="384" y="-142"/>
      <point x="398" y="-139" type="qcurve"/>
      <point x="398" y="-208" type="line"/>
      <point x="355" y="-217"/>
      <point x="330" y="-219"/>
      <point x="318" y="-219" type="qcurve"/>
      <point x="265" y="-219"/>
      <point x="209" y="-171"/>
      <point x="209" y="-125" type="qcurve"/>
      <point x="209" y="-93"/>
      <point x="247" y="-34"/>
      <point x="284" y="-8" type="qcurve"/>
      <point x="279" y="-9"/>
      <point x="267" y="-9"/>
      <point x="255" y="-9" type="qcurve" smooth="yes"/>
      <point x="137" y="-9"/>
      <point x="34" y="111"/>
      <point x="34" y="249" type="qcurve" smooth="yes"/>
      <point x="34" y="382"/>
      <point x="142" y="504"/>
      <point x="259" y="504" type="qcurve"/>
      <point x="372" y="504"/>
      <point x="466" y="410"/>
      <point x="466" y="296" type="qcurve"/>
      <point x="466" y="275"/>
      <point x="464" y="240"/>
      <point x="461" y="209" type="qcurve"/>
      <point x="151" y="209" type="line"/>
      <point x="152" y="147"/>
      <point x="205" y="97"/>
      <point x="273" y="97" type="qcurve" smooth="yes"/>
      <point x="318" y="97"/>
      <point x="414" y="111"/>
    </contour>
    <contour>
      <point x="259" y="403" type="qcurve"/>
      <point x="198" y="403"/>
      <point x="151" y="355"/>
      <point x="151" y="292" type="qcurve"/>
      <point x="360" y="292" type="line"/>
      <point x="360" y="313" type="line"/>
      <point x="359" y="364"/>
      <point x="315" y="403"/>
    </contour>
  </outline>
</glyph>
<glyph name="Hbar" format="1">
  <advance width="683"/>
  <unicode hex="0126"/>
  <outline>
    <contour>
      <point x="205" y="0" type="line"/>
      <point x="85" y="0" type="line"/>
      <point x="85" y="458" type="line"/>
      <point x="24" y="458" type="line"/>
      <point x="24" y="535" type="line"/>
      <point x="85" y="535" type="line"/>
      <point x="85" y="627" type="line"/>
      <point x="205" y="627" type="line"/>
      <point x="205" y="535" type="line"/>
      <point x="479" y="535" type="line"/>
      <point x="479" y="627" type="line"/>
      <point x="599" y="627" type="line"/>
      <point x="599" y="535" type="line"/>
      <point x="659" y="535" type="line"/>
      <point x="659" y="458" type="line"/>
      <point x="599" y="458" type="line"/>
      <point x="599" y="0" type="line"/>
      <point x="479" y="0" type="line"/>
      <point x="479" y="264" type="line"/>
      <point x="205" y="264" type="line"/>
    </contour>
    <contour>
      <point x="205" y="458" type="line"/>
      <point x="205" y="373" type="line"/>
      <point x="479" y="373" type="line"/>
      <point x="479" y="458" type="line"/>
    </contour>
  </outline>
</glyph>
<glyph name="hbar" format="1">
  <advance width="553"/>
  <unicode hex="0127"/>
  <outline>
    <contour>
      <point x="171" y="0" type="line"/>
      <point x="55" y="0" type="line"/>
      <point x="55" y="551" type="line"/>
      <point x="-16" y="551" type="line"/>
      <point x="-16" y="617" type="line"/>
      <point x="55" y="617" type="line"/>
      <point x="55" y="665" type="line"/>
      <point x="171" y="665" type="line"/>
      <point x="171" y="617" type="line"/>
      <point x="332" y="617" type="line"/>
      <point x="332" y="551" type="line"/>
      <point x="171" y="551" type="line"/>
      <point x="171" y="457" type="line"/>
      <point x="213" y="480"/>
      <point x="297" y="504"/>
      <point x="336" y="504" type="qcurve" smooth="yes"/>
      <point x="419" y="504"/>
      <point x="502" y="423"/>
      <point x="502" y="342" type="qcurve"/>
      <point x="502" y="0" type="line"/>
      <point x="386" y="0" type="line"/>
      <point x="386" y="327" type="line" smooth="yes"/>
      <point x="386" y="365"/>
      <point x="345" y="400"/>
      <point x="300" y="400" type="qcurve" smooth="yes"/>
      <point x="269" y="400"/>
      <point x="201" y="386"/>
      <point x="171" y="374" type="qcurve"/>
    </contour>
  </outline>
</glyph>
<glyph name="Iogonek" format="1">
  <advance width="241"/>
  <unicode hex="012E"/>
  <outline>
    <contour>
      <point x="181" y="0" type="line"/>
      <point x="179" y="0" type="line"/>
      <point x="118" y="-12"/>
      <point x="47" y="-58"/>
      <point x="47" y="-88" type="qcurve"/>
      <point x="47" y="-109"/>
      <point x="73" y="-129"/>
      <point x="102" y="-129" type="qcurve"/>
      <point x="113" y="-129"/>
      <point x="142" y="-125"/>
      <point x="154" y="-122" type="qcurve"/>
      <point x="154" y="-193" type="line"/>
      <point x="130" y="-199"/>
      <point x="91" y="-204"/>
      <point x="73" y="-204" type="qcurve"/>
      <point x="19" y="-204"/>
      <point x="-37" y="-155"/>
      <point x="-37" y="-109" type="qcurve"/>
      <point x="-37" y="-68"/>
      <point x="12" y="-10"/>
      <point x="61" y="7" type="qcurve"/>
      <point x="61" y="627" type="line"/>
      <point x="181" y="627" type="line"/>
    </contour>
  </outline>
</glyph>
<glyph name="iogonek" format="1">
  <advance width="227"/>
  <unicode hex="012F"/>
  <outline>
    <contour>
      <point x="176" y="564" type="line"/>
      <point x="53" y="564" type="line"/>
      <point x="53" y="665" type="line"/>
      <point x="176" y="665" type="line"/>
    </contour>
    <contour>
      <point x="173" y="0" type="line"/>
      <point x="172" y="0" type="line"/>
      <point x="111" y="-12"/>
      <point x="40" y="-58"/>
      <point x="40" y="-88" type="qcurve"/>
      <point x="40" y="-109"/>
      <point x="66" y="-129"/>
      <point x="95" y="-129" type="qcurve"/>
      <point x="106" y="-129"/>
      <point x="135" y="-125"/>
      <point x="147" y="-122" type="qcurve"/>
      <point x="147" y="-193" type="line"/>
      <point x="123" y="-199"/>
      <point x="84" y="-204"/>
      <point x="66" y="-204" type="qcurve"/>
      <point x="12" y="-204"/>
      <point x="-44" y="-155"/>
      <point x="-44" y="-109" type="qcurve"/>
      <point x="-44" y="-68"/>
      <point x="7" y="-9"/>
      <point x="57" y="8" type="qcurve"/>
      <point x="57" y="494" type="line"/>
      <point x="173" y="494" type="line"/>
    </contour>
  </outline>
</glyph>
<glyph name="Lslash" format="1">
  <advance width="504"/>
  <unicode hex="0141"/>
  <outline>
    <contour>
      <point x="489" y="113" type="line"/>
      <point x="489" y="0" type="line"/>
      <point x="97" y="0" type="line"/>
      <point x="97" y="266" type="line"/>
      <point x="27" y="246" type="line"/>
      <point x="27" y="329" type="line"/>
      <point x="97" y="349" type="line"/>
      <point x="97" y="627" type="line"/>
      <point x="217" y="627" type="line"/>
      <point x="217" y="383" type="line"/>
      <point x="377" y="429" type="line"/>
      <point x="377" y="346" type="line"/>
      <point x="217" y="300" type="line"/>
      <point x="217" y="113" type="line"/>
    </contour>
  </outline>
</glyph>
<glyph name="lslash" format="1">
  <advance width="306"/>
  <unicode hex="0142"/>
  <outline>
    <contour>
      <point x="204" y="302" type="line"/>
      <point x="204" y="0" type="line"/>
      <point x="88" y="0" type="line"/>
      <point x="88" y="267" type="line"/>
      <point x="26" y="248" type="line"/>
      <point x="26" y="329" type="line"/>
      <point x="88" y="348" type="line"/>
      <point x="88" y="665" type="line"/>
      <point x="204" y="665" type="line"/>
      <point x="204" y="383" type="line"/>
      <point x="289" y="409" type="line"/>
      <point x="289" y="328" type="line"/>
    </contour>
  </outline>
</glyph>
<glyph name="Eng" format="1">
  <advance width="647"/>
  <unicode hex="014A"/>
  <outline>
    <contour>
      <point x="587" y="627" type="line"/>
      <point x="587" y="14" type="line" smooth="yes"/>
      <point x="587" y="-69"/>
      <point x="499" y="-166"/>
      <point x="426" y="-166" type="qcurve"/>
      <point x="416" y="-166"/>
      <point x="379" y="-163"/>
      <point x="352" y="-160" type="qcurve"/>
      <point x="352" y="-62" type="line"/>
      <point x="361" y="-64"/>
      <point x="379" y="-65"/>
      <point x="388" y="-65" type="qcurve"/>
      <point x="431" y="-65"/>
      <point x="470" y="-34"/>
      <point x="472" y="2" type="qcurve"/>
      <point x="173" y="425" type="line"/>
      <point x="173" y="0" type="line"/>
      <point x="60" y="0" type="line"/>
      <point x="60" y="627" type="line"/>
      <point x="177" y="627" type="line"/>
      <point x="475" y="196" type="line"/>
      <point x="475" y="627" type="line"/>
    </contour>
  </outline>
</glyph>
<glyph name="eng" format="1">
  <advance width="554"/>
  <unicode hex="014B"/>
  <outline>
    <contour>
      <point x="171" y="0" type="line"/>
      <point x="55" y="0" type="line"/>
      <point x="55" y="494" type="line"/>
      <point x="155" y="494" type="line"/>
      <point x="160" y="445" type="line"/>
      <point x="163" y="445" type="line"/>
      <point x="199" y="476"/>
      <point x="280" y="504"/>
      <point x="334" y="504" type="qcurve" smooth="yes"/>
      <point x="417" y="504"/>
      <point x="502" y="422"/>
      <point x="502" y="342" type="qcurve"/>
      <point x="502" y="5" type="line" smooth="yes"/>
      <point x="502" y="-77"/>
      <point x="419" y="-162"/>
      <point x="339" y="-162" type="qcurve"/>
      <point x="328" y="-162"/>
      <point x="291" y="-159"/>
      <point x="265" y="-156" type="qcurve"/>
      <point x="265" y="-58" type="line"/>
      <point x="274" y="-60"/>
      <point x="292" y="-61"/>
      <point x="301" y="-61" type="qcurve"/>
      <point x="348" y="-61"/>
      <point x="386" y="-26"/>
      <point x="386" y="19" type="qcurve"/>
      <point x="386" y="327" type="line" smooth="yes"/>
      <point x="386" y="364"/>
      <point x="340" y="400"/>
      <point x="293" y="400" type="qcurve" smooth="yes"/>
      <point x="262" y="400"/>
      <point x="199" y="382"/>
      <point x="171" y="366" type="qcurve"/>
    </contour>
  </outline>
</glyph>
<glyph name="OE" format="1">
  <advance width="866"/>
  <unicode hex="0152"/>
  <outline>
    <contour>
      <point x="310" y="-9" type="qcurve"/>
      <point x="155" y="-9"/>
      <point x="36" y="132"/>
      <point x="36" y="315" type="qcurve"/>
      <point x="36" y="486"/>
      <point x="164" y="637"/>
      <point x="310" y="637" type="qcurve"/>
      <point x="342" y="637"/>
      <point x="395" y="632"/>
      <point x="416" y="627" type="qcurve"/>
      <point x="827" y="627" type="line"/>
      <point x="827" y="519" type="line"/>
      <point x="553" y="519" type="line"/>
      <point x="565" y="492"/>
      <point x="580" y="419"/>
      <point x="583" y="370" type="qcurve"/>
      <point x="790" y="370" type="line"/>
      <point x="790" y="269" type="line"/>
      <point x="583" y="269" type="line"/>
      <point x="580" y="221"/>
      <point x="563" y="144"/>
      <point x="549" y="113" type="qcurve"/>
      <point x="836" y="113" type="line"/>
      <point x="836" y="0" type="line"/>
      <point x="402" y="0" type="line"/>
      <point x="382" y="-4"/>
      <point x="336" y="-9"/>
    </contour>
    <contour>
      <point x="178" y="161" type="qcurve" smooth="yes"/>
      <point x="191" y="130"/>
      <point x="249" y="104"/>
      <point x="310" y="104" type="qcurve"/>
      <point x="402" y="104"/>
      <point x="462" y="192"/>
      <point x="462" y="315" type="qcurve"/>
      <point x="462" y="373"/>
      <point x="453" y="447"/>
      <point x="443" y="470" type="qcurve" smooth="yes"/>
      <point x="429" y="502"/>
      <point x="371" y="529"/>
      <point x="310" y="529" type="qcurve"/>
      <point x="218" y="529"/>
      <point x="158" y="441"/>
      <point x="158" y="315" type="qcurve"/>
      <point x="158" y="257"/>
      <point x="167" y="184"/>
    </contour>
  </outline>
</glyph>
<glyph name="oe" format="1">
  <advance width="823"/>
  <unicode hex="0153"/>
  <outline>
    <contour>
      <point x="435" y="65" type="qcurve"/>
      <point x="412" y="27"/>
      <point x="329" y="-9"/>
      <point x="264" y="-9" type="qcurve" smooth="yes"/>
      <point x="137" y="-9"/>
      <point x="34" y="106"/>
      <point x="34" y="248" type="qcurve" smooth="yes"/>
      <point x="34" y="387"/>
      <point x="139" y="504"/>
      <point x="264" y="504" type="qcurve" smooth="yes"/>
      <point x="331" y="504"/>
      <point x="414" y="468"/>
      <point x="437" y="429" type="qcurve"/>
      <point x="460" y="467"/>
      <point x="537" y="504"/>
      <point x="593" y="504" type="qcurve"/>
      <point x="700" y="504"/>
      <point x="789" y="410"/>
      <point x="789" y="296" type="qcurve"/>
      <point x="789" y="268"/>
      <point x="787" y="231"/>
      <point x="785" y="209" type="qcurve"/>
      <point x="494" y="209" type="line"/>
      <point x="495" y="147"/>
      <point x="544" y="97"/>
      <point x="607" y="97" type="qcurve" smooth="yes"/>
      <point x="649" y="97"/>
      <point x="740" y="111"/>
      <point x="768" y="121" type="qcurve"/>
      <point x="768" y="27" type="line"/>
      <point x="744" y="12"/>
      <point x="642" y="-9"/>
      <point x="588" y="-9" type="qcurve" smooth="yes"/>
      <point x="531" y="-9"/>
      <point x="456" y="27"/>
    </contour>
    <contour>
      <point x="684" y="313" type="qcurve"/>
      <point x="682" y="364"/>
      <point x="643" y="403"/>
      <point x="593" y="403" type="qcurve"/>
      <point x="538" y="403"/>
      <point x="494" y="354"/>
      <point x="494" y="292" type="qcurve"/>
      <point x="683" y="292" type="line"/>
      <point x="683" y="294"/>
      <point x="684" y="309"/>
    </contour>
    <contour>
      <point x="150" y="249" type="qcurve" smooth="yes"/>
      <point x="150" y="157"/>
      <point x="193" y="99"/>
      <point x="264" y="99" type="qcurve" smooth="yes"/>
      <point x="334" y="99"/>
      <point x="378" y="158"/>
      <point x="378" y="249" type="qcurve" smooth="yes"/>
      <point x="378" y="342"/>
      <point x="335" y="400"/>
      <point x="264" y="400" type="qcurve" smooth="yes"/>
      <point x="194" y="400"/>
      <point x="150" y="340"/>
    </contour>
  </outline>
</glyph>
<glyph name="Scedilla" format="1">
  <advance width="497"/>
  <unicode hex="015E"/>
  <outline>
    <contour>
      <point x="300" y="249" type="qcurve"/>
      <point x="161" y="282" type="line" smooth="yes"/>
      <point x="92" y="298"/>
      <point x="36" y="371"/>
      <point x="36" y="439" type="qcurve"/>
      <point x="36" y="541"/>
      <point x="148" y="637"/>
      <point x="266" y="637" type="qcurve" smooth="yes"/>
      <point x="315" y="637"/>
      <point x="392" y="628"/>
      <point x="425" y="619" type="qcurve"/>
      <point x="425" y="511" type="line"/>
      <point x="368" y="522"/>
      <point x="300" y="529"/>
      <point x="264" y="529" type="qcurve" smooth="yes"/>
      <point x="204" y="529"/>
      <point x="154" y="492"/>
      <point x="154" y="447" type="qcurve"/>
      <point x="154" y="421"/>
      <point x="175" y="394"/>
      <point x="200" y="388" type="qcurve"/>
      <point x="335" y="356" type="line" smooth="yes"/>
      <point x="382" y="345"/>
      <point x="428" y="322"/>
      <point x="443" y="305" type="qcurve" smooth="yes"/>
      <point x="458" y="286"/>
      <point x="473" y="230"/>
      <point x="473" y="189" type="qcurve"/>
      <point x="473" y="89"/>
      <point x="376" y="-3"/>
      <point x="272" y="-8" type="qcurve"/>
      <point x="265" y="-44" type="line"/>
      <point x="313" y="-43"/>
      <point x="366" y="-78"/>
      <point x="366" y="-112" type="qcurve"/>
      <point x="366" y="-155"/>
      <point x="312" y="-195"/>
      <point x="252" y="-195" type="qcurve" smooth="yes"/>
      <point x="221" y="-195"/>
      <point x="158" y="-188"/>
      <point x="147" y="-184" type="qcurve"/>
      <point x="147" y="-124" type="line"/>
      <point x="157" y="-127"/>
      <point x="211" y="-135"/>
      <point x="232" y="-135" type="qcurve" smooth="yes"/>
      <point x="255" y="-135"/>
      <point x="273" y="-124"/>
      <point x="273" y="-108" type="qcurve"/>
      <point x="273" y="-96"/>
      <point x="250" y="-85"/>
      <point x="224" y="-85" type="qcurve"/>
      <point x="206" y="-85"/>
      <point x="187" y="-85"/>
      <point x="175" y="-86" type="qcurve"/>
      <point x="190" y="-7" type="line"/>
      <point x="144" y="-4"/>
      <point x="62" y="10"/>
      <point x="37" y="19" type="qcurve"/>
      <point x="37" y="132" type="line"/>
      <point x="80" y="119"/>
      <point x="189" y="104"/>
      <point x="243" y="104" type="qcurve"/>
      <point x="302" y="104"/>
      <point x="349" y="137"/>
      <point x="349" y="185" type="qcurve"/>
      <point x="349" y="215"/>
      <point x="330" y="242"/>
    </contour>
  </outline>
</glyph>
<glyph name="scedilla" format="1">
  <advance width="440"/>
  <unicode hex="015F"/>
  <outline>
    <contour>
      <point x="344" y="-112" type="qcurve"/>
      <point x="344" y="-155"/>
      <point x="290" y="-195"/>
      <point x="230" y="-195" type="qcurve" smooth="yes"/>
      <point x="199" y="-195"/>
      <point x="136" y="-188"/>
      <point x="125" y="-184" type="qcurve"/>
      <point x="125" y="-124" type="line"/>
      <point x="135" y="-127"/>
      <point x="189" y="-135"/>
      <point x="210" y="-135" type="qcurve" smooth="yes"/>
      <point x="233" y="-135"/>
      <point x="251" y="-124"/>
      <point x="251" y="-108" type="qcurve"/>
      <point x="251" y="-96"/>
      <point x="228" y="-85"/>
      <point x="202" y="-85" type="qcurve"/>
      <point x="184" y="-85"/>
      <point x="165" y="-85"/>
      <point x="153" y="-86" type="qcurve"/>
      <point x="168" y="-8" type="line"/>
      <point x="126" y="-5"/>
      <point x="61" y="4"/>
      <point x="40" y="11" type="qcurve"/>
      <point x="40" y="114" type="line"/>
      <point x="71" y="106"/>
      <point x="161" y="95"/>
      <point x="207" y="95" type="qcurve" smooth="yes"/>
      <point x="259" y="95"/>
      <point x="296" y="121"/>
      <point x="296" y="157" type="qcurve" smooth="yes"/>
      <point x="296" y="175"/>
      <point x="278" y="194"/>
      <point x="257" y="197" type="qcurve"/>
      <point x="132" y="215" type="line" smooth="yes"/>
      <point x="81" y="222"/>
      <point x="33" y="285"/>
      <point x="33" y="345" type="qcurve" smooth="yes"/>
      <point x="33" y="426"/>
      <point x="132" y="504"/>
      <point x="233" y="504" type="qcurve" smooth="yes"/>
      <point x="274" y="504"/>
      <point x="342" y="500"/>
      <point x="378" y="494" type="qcurve"/>
      <point x="378" y="395" type="line"/>
      <point x="352" y="399"/>
      <point x="279" y="404"/>
      <point x="240" y="404" type="qcurve" smooth="yes"/>
      <point x="187" y="404"/>
      <point x="148" y="383"/>
      <point x="148" y="348" type="qcurve" smooth="yes"/>
      <point x="148" y="331"/>
      <point x="164" y="314"/>
      <point x="183" y="311" type="qcurve"/>
      <point x="306" y="293" type="line" smooth="yes"/>
      <point x="365" y="285"/>
      <point x="412" y="227"/>
      <point x="412" y="164" type="qcurve" smooth="yes"/>
      <point x="412" y="78"/>
      <point x="337" y="-5"/>
      <point x="250" y="-9" type="qcurve"/>
      <point x="243" y="-44" type="line"/>
      <point x="291" y="-43"/>
      <point x="344" y="-78"/>
    </contour>
  </outline>
</glyph>
<glyph name="Tbar" format="1">
  <advance width="540"/>
  <unicode hex="0166"/>
  <outline>
    <contour>
      <point x="475" y="343" type="line"/>
      <point x="475" y="262" type="line"/>
      <point x="330" y="262" type="line"/>
      <point x="330" y="0" type="line"/>
      <point x="210" y="0" type="line"/>
      <point x="210" y="262" type="line"/>
      <point x="65" y="262" type="line"/>
      <point x="65" y="343" type="line"/>
      <point x="210" y="343" type="line"/>
      <point x="210" y="519" type="line"/>
      <point x="21" y="519" type="line"/>
      <point x="21" y="627" type="line"/>
      <point x="520" y="627" type="line"/>
      <point x="520" y="519" type="line"/>
      <point x="330" y="519" type="line"/>
      <point x="330" y="343" type="line"/>
    </contour>
  </outline>
</glyph>
<glyph name="tbar" format="1">
  <advance width="387"/>
  <unicode hex="0167"/>
  <outline>
    <contour>
      <point x="370" y="108" type="qcurve"/>
      <point x="370" y="9" type="line"/>
      <point x="353" y="2"/>
      <point x="292" y="-9"/>
      <point x="267" y="-9" type="qcurve" smooth="yes"/>
      <point x="172" y="-9"/>
      <point x="90" y="74"/>
      <point x="90" y="171" type="qcurve"/>
      <point x="90" y="227" type="line"/>
      <point x="24" y="227" type="line"/>
      <point x="24" y="308" type="line"/>
      <point x="90" y="308" type="line"/>
      <point x="90" y="397" type="line"/>
      <point x="24" y="397" type="line"/>
      <point x="24" y="494" type="line"/>
      <point x="93" y="494" type="line"/>
      <point x="109" y="612" type="line"/>
      <point x="206" y="612" type="line"/>
      <point x="206" y="494" type="line"/>
      <point x="364" y="494" type="line"/>
      <point x="364" y="397" type="line"/>
      <point x="206" y="397" type="line"/>
      <point x="206" y="308" type="line"/>
      <point x="364" y="308" type="line"/>
      <point x="364" y="227" type="line"/>
      <point x="206" y="227" type="line"/>
      <point x="206" y="175" type="line" smooth="yes"/>
      <point x="206" y="131"/>
      <point x="244" y="99"/>
      <point x="293" y="99" type="qcurve" smooth="yes"/>
      <point x="310" y="99"/>
      <point x="356" y="104"/>
    </contour>
  </outline>
</glyph>
<glyph name="Uogonek" format="1">
  <advance width="629"/>
  <unicode hex="0172"/>
  <outline>
    <contour>
      <point x="454" y="257" type="qcurve"/>
      <point x="454" y="627" type="line"/>
      <point x="574" y="627" type="line"/>
      <point x="574" y="257" type="line" smooth="yes"/>
      <point x="574" y="167"/>
      <point x="518" y="50"/>
      <point x="461" y="21" type="qcurve"/>
      <point x="402" y="-14"/>
      <point x="357" y="-63"/>
      <point x="357" y="-89" type="qcurve"/>
      <point x="357" y="-109"/>
      <point x="384" y="-129"/>
      <point x="411" y="-129" type="qcurve"/>
      <point x="422" y="-129"/>
      <point x="451" y="-125"/>
      <point x="465" y="-122" type="qcurve"/>
      <point x="465" y="-191" type="line"/>
      <point x="422" y="-200"/>
      <point x="397" y="-202"/>
      <point x="385" y="-202" type="qcurve"/>
      <point x="332" y="-202"/>
      <point x="276" y="-154"/>
      <point x="276" y="-108" type="qcurve"/>
      <point x="276" y="-81"/>
      <point x="302" y="-31"/>
      <point x="328" y="-9" type="qcurve"/>
      <point x="314" y="-9" type="line"/>
      <point x="179" y="-9"/>
      <point x="55" y="117"/>
      <point x="55" y="257" type="qcurve"/>
      <point x="55" y="627" type="line"/>
      <point x="175" y="627" type="line"/>
      <point x="175" y="257" type="line" smooth="yes"/>
      <point x="175" y="169"/>
      <point x="235" y="104"/>
      <point x="314" y="104" type="qcurve"/>
      <point x="394" y="104"/>
      <point x="454" y="170"/>
    </contour>
  </outline>
</glyph>
<glyph name="uogonek" format="1">
  <advance width="535"/>
  <unicode hex="0173"/>
  <outline>
    <contour>
      <point x="217" y="-9" type="qcurve" smooth="yes"/>
      <point x="134" y="-9"/>
      <point x="52" y="74"/>
      <point x="52" y="157" type="qcurve"/>
      <point x="52" y="494" type="line"/>
      <point x="168" y="494" type="line"/>
      <point x="168" y="172" type="line" smooth="yes"/>
      <point x="168" y="134"/>
      <point x="208" y="100"/>
      <point x="253" y="100" type="qcurve" smooth="yes"/>
      <point x="281" y="100"/>
      <point x="339" y="112"/>
      <point x="364" y="122" type="qcurve"/>
      <point x="364" y="494" type="line"/>
      <point x="480" y="494" type="line"/>
      <point x="480" y="0" type="line"/>
      <point x="419" y="-12"/>
      <point x="348" y="-58"/>
      <point x="348" y="-88" type="qcurve"/>
      <point x="348" y="-109"/>
      <point x="374" y="-129"/>
      <point x="403" y="-129" type="qcurve"/>
      <point x="414" y="-129"/>
      <point x="443" y="-125"/>
      <point x="455" y="-122" type="qcurve"/>
      <point x="455" y="-193" type="line"/>
      <point x="431" y="-199"/>
      <point x="392" y="-204"/>
      <point x="374" y="-204" type="qcurve"/>
      <point x="320" y="-204"/>
      <point x="264" y="-155"/>
      <point x="264" y="-109" type="qcurve"/>
      <point x="264" y="-66"/>
      <point x="318" y="-7"/>
      <point x="372" y="10" type="qcurve"/>
      <point x="369" y="34" type="line"/>
      <point x="366" y="34" type="line"/>
      <point x="325" y="13"/>
      <point x="250" y="-9"/>
    </contour>
  </outline>
</glyph>
<glyph name="uni018F" format="1">
  <advance width="589"/>
  <unicode hex="018F"/>
  <outline>
    <contour>
      <point x="266" y="637" type="qcurve"/>
      <point x="419" y="637"/>
      <point x="553" y="487"/>
      <point x="553" y="314" type="qcurve" smooth="yes"/>
      <point x="553" y="145"/>
      <point x="424" y="-9"/>
      <point x="279" y="-9" type="qcurve"/>
      <point x="155" y="-9"/>
      <point x="32" y="118"/>
      <point x="32" y="247" type="qcurve"/>
      <point x="32" y="285"/>
      <point x="35" y="340"/>
      <point x="39" y="368" type="qcurve"/>
      <point x="428" y="368" type="line"/>
      <point x="421" y="457"/>
      <point x="343" y="529"/>
      <point x="252" y="529" type="qcurve" smooth="yes"/>
      <point x="214" y="529"/>
      <point x="135" y="519"/>
      <point x="91" y="508" type="qcurve"/>
      <point x="91" y="614" type="line"/>
      <point x="127" y="625"/>
      <point x="218" y="637"/>
    </contour>
    <contour>
      <point x="151" y="232" type="qcurve"/>
      <point x="151" y="165"/>
      <point x="216" y="100"/>
      <point x="284" y="99" type="qcurve"/>
      <point x="359" y="100"/>
      <point x="424" y="175"/>
      <point x="429" y="268" type="qcurve"/>
      <point x="152" y="268" type="line"/>
      <point x="151" y="260"/>
      <point x="151" y="248"/>
    </contour>
  </outline>
</glyph>
<glyph name="florin" format="1">
  <advance width="430"/>
  <unicode hex="0192"/>
  <outline>
    <contour>
      <point x="104" y="296" type="line"/>
      <point x="32" y="296" type="line"/>
      <point x="32" y="378" type="line"/>
      <point x="117" y="378" type="line"/>
      <point x="132" y="470" type="line" smooth="yes"/>
      <point x="147" y="564"/>
      <point x="231" y="637"/>
      <point x="319" y="637" type="qcurve"/>
      <point x="330" y="637"/>
      <point x="376" y="633"/>
      <point x="412" y="628" type="qcurve"/>
      <point x="412" y="526" type="line"/>
      <point x="397" y="528"/>
      <point x="356" y="531"/>
      <point x="338" y="531" type="qcurve"/>
      <point x="294" y="531"/>
      <point x="257" y="499"/>
      <point x="250" y="451" type="qcurve"/>
      <point x="238" y="378" type="line"/>
      <point x="388" y="378" type="line"/>
      <point x="388" y="296" type="line"/>
      <point x="225" y="296" type="line"/>
      <point x="152" y="-152" type="line"/>
      <point x="32" y="-152" type="line"/>
    </contour>
  </outline>
</glyph>
<glyph name="uni01B5" format="1">
  <advance width="517"/>
  <unicode hex="01B5"/>
  <outline>
    <contour>
      <point x="490" y="113" type="line"/>
      <point x="490" y="0" type="line"/>
      <point x="26" y="0" type="line"/>
      <point x="26" y="113" type="line"/>
      <point x="154" y="281" type="line"/>
      <point x="49" y="281" type="line"/>
      <point x="49" y="362" type="line"/>
      <point x="216" y="362" type="line"/>
      <point x="336" y="519" type="line"/>
      <point x="55" y="519" type="line"/>
      <point x="55" y="627" type="line"/>
      <point x="471" y="627" type="line"/>
      <point x="471" y="519" type="line"/>
      <point x="352" y="362" type="line"/>
      <point x="472" y="362" type="line"/>
      <point x="472" y="281" type="line"/>
      <point x="290" y="281" type="line"/>
      <point x="163" y="113" type="line"/>
    </contour>
  </outline>
</glyph>
<glyph name="uni01B6" format="1">
  <advance width="434"/>
  <unicode hex="01B6"/>
  <outline>
    <contour>
      <point x="407" y="101" type="line"/>
      <point x="407" y="0" type="line"/>
      <point x="30" y="0" type="line"/>
      <point x="30" y="101" type="line"/>
      <point x="122" y="219" type="line"/>
      <point x="48" y="219" type="line"/>
      <point x="48" y="300" type="line"/>
      <point x="185" y="300" type="line"/>
      <point x="260" y="397" type="line"/>
      <point x="48" y="397" type="line"/>
      <point x="48" y="494" type="line"/>
      <point x="390" y="494" type="line"/>
      <point x="390" y="397" type="line"/>
      <point x="315" y="300" type="line"/>
      <point x="390" y="300" type="line"/>
      <point x="390" y="219" type="line"/>
      <point x="253" y="219" type="line"/>
      <point x="162" y="101" type="line"/>
    </contour>
  </outline>
</glyph>
<glyph name="uni0237" format="1">
  <advance width="233"/>
  <unicode hex="0237"/>
  <outline>
    <contour>
      <point x="15" y="-162" type="qcurve"/>
      <point x="4" y="-162"/>
      <point x="-34" y="-159"/>
      <point x="-59" y="-156" type="qcurve"/>
      <point x="-59" y="-58" type="line"/>
      <point x="-50" y="-60"/>
      <point x="-32" y="-61"/>
      <point x="-23" y="-61" type="qcurve"/>
      <point x="25" y="-61"/>
      <point x="63" y="-26"/>
      <point x="63" y="19" type="qcurve"/>
      <point x="63" y="494" type="line"/>
      <point x="179" y="494" type="line"/>
      <point x="179" y="5" type="line"/>
      <point x="179" y="-77"/>
      <point x="95" y="-162"/>
    </contour>
    <contour>
      <point x="121" y="520" type="move" name="top"/>
    </contour>
  </outline>
</glyph>
<glyph name="uni0259" format="1">
  <advance width="499"/>
  <unicode hex="0259"/>
  <outline>
    <contour>
      <point x="55" y="377" type="qcurve"/>
      <point x="55" y="468" type="line"/>
      <point x="79" y="483"/>
      <point x="187" y="504"/>
      <point x="245" y="504" type="qcurve" smooth="yes"/>
      <point x="362" y="504"/>
      <point x="466" y="385"/>
      <point x="466" y="251" type="qcurve" smooth="yes"/>
      <point x="466" y="116"/>
      <point x="358" y="-9"/>
      <point x="240" y="-9" type="qcurve"/>
      <point x="128" y="-9"/>
      <point x="34" y="86"/>
      <point x="34" y="201" type="qcurve"/>
      <point x="34" y="233"/>
      <point x="36" y="272"/>
      <point x="39" y="294" type="qcurve"/>
      <point x="349" y="294" type="line"/>
      <point x="348" y="353"/>
      <point x="294" y="401"/>
      <point x="226" y="401" type="qcurve" smooth="yes"/>
      <point x="181" y="401"/>
      <point x="84" y="387"/>
    </contour>
    <contour>
      <point x="240" y="94" type="qcurve"/>
      <point x="302" y="94"/>
      <point x="349" y="145"/>
      <point x="349" y="212" type="qcurve"/>
      <point x="140" y="212" type="line"/>
      <point x="140" y="184" type="line"/>
      <point x="141" y="133"/>
      <point x="185" y="94"/>
    </contour>
  </outline>
</glyph>
<glyph name="circumflex" format="1">
  <advance width="438"/>
  <unicode hex="02C6"/>
  <outline>
    <contour>
      <point x="388" y="558" type="line"/>
      <point x="296" y="558" type="line"/>
      <point x="219" y="623" type="line"/>
      <point x="143" y="558" type="line"/>
      <point x="50" y="558" type="line"/>
      <point x="165" y="684" type="line"/>
      <point x="273" y="684" type="line"/>
    </contour>
    <contour>
      <point x="219" y="530" type="move" name="_top"/>
    </contour>
  </outline>
</glyph>
<glyph name="breve" format="1">
  <advance width="383"/>
  <unicode hex="02D8"/>
  <outline>
    <contour>
      <point x="261" y="684" type="qcurve"/>
      <point x="333" y="684" type="line"/>
      <point x="333" y="623"/>
      <point x="257" y="551"/>
      <point x="192" y="551" type="qcurve" smooth="yes"/>
      <point x="126" y="551"/>
      <point x="50" y="623"/>
      <point x="50" y="684" type="qcurve"/>
      <point x="123" y="684" type="line"/>
      <point x="123" y="654"/>
      <point x="159" y="621"/>
      <point x="192" y="621" type="qcurve" smooth="yes"/>
      <point x="224" y="621"/>
      <point x="261" y="655"/>
    </contour>
    <contour>
      <point x="192" y="530" type="move" name="_top"/>
    </contour>
  </outline>
</glyph>
<glyph name="ring" format="1">
  <advance width="333"/>
  <unicode hex="02DA"/>
  <outline>
    <contour>
      <point x="281" y="643" type="qcurve" smooth="yes"/>
      <point x="281" y="597"/>
      <point x="219" y="543"/>
      <point x="165" y="543" type="qcurve" smooth="yes"/>
      <point x="112" y="543"/>
      <point x="50" y="597"/>
      <point x="50" y="643" type="qcurve" smooth="yes"/>
      <point x="50" y="687"/>
      <point x="113" y="740"/>
      <point x="165" y="740" type="qcurve" smooth="yes"/>
      <point x="219" y="740"/>
      <point x="281" y="688"/>
    </contour>
    <contour>
      <point x="113" y="643" type="qcurve" smooth="yes"/>
      <point x="113" y="623"/>
      <point x="140" y="602"/>
      <point x="165" y="602" type="qcurve" smooth="yes"/>
      <point x="191" y="602"/>
      <point x="219" y="624"/>
      <point x="219" y="643" type="qcurve" smooth="yes"/>
      <point x="219" y="662"/>
      <point x="190" y="684"/>
      <point x="165" y="684" type="qcurve" smooth="yes"/>
      <point x="141" y="684"/>
      <point x="113" y="662"/>
    </contour>
    <contour>
      <point x="165" y="530" type="move" name="_top"/>
    </contour>
  </outline>
</glyph>
<glyph name="ogonek" format="1">
  <advance width="320"/>
  <unicode hex="02DB"/>
  <outline>
    <contour>
      <point x="221" y="31" type="qcurve"/>
      <point x="270" y="9" type="line"/>
      <point x="209" y="-3"/>
      <point x="138" y="-49"/>
      <point x="138" y="-79" type="qcurve"/>
      <point x="138" y="-100"/>
      <point x="164" y="-120"/>
      <point x="193" y="-120" type="qcurve"/>
      <point x="204" y="-120"/>
      <point x="233" y="-116"/>
      <point x="245" y="-113" type="qcurve"/>
      <point x="245" y="-184" type="line"/>
      <point x="221" y="-190"/>
      <point x="182" y="-195"/>
      <point x="164" y="-195" type="qcurve"/>
      <point x="110" y="-195"/>
      <point x="54" y="-146"/>
      <point x="54" y="-100" type="qcurve"/>
      <point x="54" y="-69"/>
      <point x="82" y="-21"/>
      <point x="110" y="-4" type="qcurve" smooth="yes"/>
      <point x="125" y="6"/>
      <point x="163" y="20"/>
    </contour>
    <contour>
      <point x="270" y="9" type="move" name="_ogonek"/>
    </contour>
  </outline>
</glyph>
<glyph name="tilde" format="1">
  <advance width="399"/>
  <unicode hex="02DC"/>
  <outline>
    <contour>
      <point x="279" y="683" type="qcurve"/>
      <point x="349" y="683" type="line"/>
      <point x="349" y="622"/>
      <point x="307" y="554"/>
      <point x="268" y="554" type="qcurve"/>
      <point x="251" y="554"/>
      <point x="215" y="569"/>
      <point x="187" y="592" type="qcurve" smooth="yes"/>
      <point x="169" y="606"/>
      <point x="153" y="614"/>
      <point x="147" y="614" type="qcurve"/>
      <point x="134" y="614"/>
      <point x="120" y="586"/>
      <point x="120" y="558" type="qcurve"/>
      <point x="50" y="558" type="line"/>
      <point x="50" y="618"/>
      <point x="92" y="687"/>
      <point x="132" y="687" type="qcurve"/>
      <point x="149" y="687"/>
      <point x="185" y="672"/>
      <point x="214" y="650" type="qcurve" smooth="yes"/>
      <point x="232" y="636"/>
      <point x="248" y="628"/>
      <point x="254" y="628" type="qcurve"/>
      <point x="266" y="628"/>
      <point x="279" y="655"/>
    </contour>
    <contour>
      <point x="200" y="530" type="move" name="_top"/>
    </contour>
  </outline>
</glyph>
<glyph name="hungarumlaut" format="1">
  <advance width="512"/>
  <unicode hex="02DD"/>
  <outline>
    <contour>
      <point x="156" y="684" type="line"/>
      <point x="275" y="684" type="line"/>
      <point x="144" y="558" type="line"/>
      <point x="53" y="558" type="line"/>
    </contour>
    <contour>
      <point x="341" y="684" type="line"/>
      <point x="459" y="684" type="line"/>
      <point x="329" y="558" type="line"/>
      <point x="237" y="558" type="line"/>
    </contour>
    <contour>
      <point x="223" y="530" type="move" name="_top"/>
    </contour>
  </outline>
</glyph>
<glyph name="uni0312" format="1">
  <advance width="205"/>
  <unicode hex="0312"/>
  <outline>
    <contour>
      <point x="50" y="558" type="line"/>
      <point x="70" y="680" type="line" smooth="yes"/>
      <point x="73" y="700"/>
      <point x="100" y="722"/>
      <point x="121" y="722" type="qcurve"/>
      <point x="155" y="722" type="line"/>
      <point x="153" y="558" type="line"/>
    </contour>
    <contour>
      <point x="101" y="530" type="move" name="_top"/>
    </contour>
  </outline>
</glyph>
<glyph name="uni0326" format="1">
  <advance width="205"/>
  <unicode hex="0326"/>
  <outline>
    <contour>
      <point x="155" y="-57" type="line"/>
      <point x="135" y="-179" type="line" smooth="yes"/>
      <point x="131" y="-199"/>
      <point x="105" y="-221"/>
      <point x="84" y="-221" type="qcurve"/>
      <point x="50" y="-221" type="line"/>
      <point x="52" y="-57" type="line"/>
    </contour>
    <contour>
      <point x="105" y="0" type="move" name="_bottom"/>
    </contour>
  </outline>
</glyph>
<glyph name="uni0394" format="1">
  <advance width="613"/>
  <unicode hex="0394"/>
  <outline>
    <contour>
      <point x="20" y="0" type="line"/>
      <point x="20" y="113" type="line"/>
      <point x="245" y="627" type="line"/>
      <point x="369" y="627" type="line"/>
      <point x="593" y="113" type="line"/>
      <point x="593" y="0" type="line"/>
    </contour>
    <contour>
      <point x="307" y="495" type="line"/>
      <point x="140" y="113" type="line"/>
      <point x="473" y="113" type="line"/>
    </contour>
  </outline>
</glyph>
<glyph name="uni03A9" format="1">
  <advance width="681"/>
  <unicode hex="03A9"/>
  <outline>
    <contour>
      <point x="61" y="0" type="line"/>
      <point x="61" y="113" type="line"/>
      <point x="193" y="113" type="line"/>
      <point x="193" y="148" type="line"/>
      <point x="116" y="176"/>
      <point x="32" y="296"/>
      <point x="32" y="379" type="qcurve"/>
      <point x="32" y="504"/>
      <point x="195" y="647"/>
      <point x="341" y="647" type="qcurve" smooth="yes"/>
      <point x="486" y="647"/>
      <point x="649" y="504"/>
      <point x="649" y="379" type="qcurve"/>
      <point x="649" y="297"/>
      <point x="565" y="177"/>
      <point x="489" y="149" type="qcurve"/>
      <point x="489" y="113" type="line"/>
      <point x="621" y="113" type="line"/>
      <point x="621" y="0" type="line"/>
      <point x="382" y="0" type="line"/>
      <point x="382" y="213" type="line"/>
      <point x="448" y="226"/>
      <point x="521" y="309"/>
      <point x="521" y="374" type="qcurve"/>
      <point x="521" y="449"/>
      <point x="428" y="531"/>
      <point x="341" y="531" type="qcurve" smooth="yes"/>
      <point x="253" y="531"/>
      <point x="160" y="450"/>
      <point x="160" y="374" type="qcurve"/>
      <point x="160" y="309"/>
      <point x="236" y="223"/>
      <point x="300" y="213" type="qcurve"/>
      <point x="300" y="0" type="line"/>
    </contour>
  </outline>
</glyph>
<glyph name="uni03BC" format="1">
  <advance width="544"/>
  <unicode hex="03BC"/>
  <outline>
    <contour>
      <point x="230" y="-9" type="qcurve" smooth="yes"/>
      <point x="205" y="-9"/>
      <point x="177" y="1"/>
      <point x="171" y="12" type="qcurve"/>
      <point x="171" y="-47"/>
      <point x="184" y="-122"/>
      <point x="199" y="-152" type="qcurve"/>
      <point x="81" y="-152" type="line"/>
      <point x="67" y="-117"/>
      <point x="55" y="-31"/>
      <point x="55" y="60" type="qcurve"/>
      <point x="55" y="494" type="line"/>
      <point x="171" y="494" type="line"/>
      <point x="171" y="172" type="line" smooth="yes"/>
      <point x="171" y="133"/>
      <point x="209" y="100"/>
      <point x="253" y="100" type="qcurve" smooth="yes"/>
      <point x="283" y="100"/>
      <point x="345" y="113"/>
      <point x="373" y="125" type="qcurve"/>
      <point x="373" y="494" type="line"/>
      <point x="489" y="494" type="line"/>
      <point x="489" y="0" type="line"/>
      <point x="382" y="0" type="line"/>
      <point x="378" y="38" type="line"/>
      <point x="341" y="15"/>
      <point x="266" y="-9"/>
    </contour>
  </outline>
</glyph>
<glyph name="pi" format="1">
  <advance width="589"/>
  <unicode hex="03C0"/>
  <outline>
    <contour>
      <point x="168" y="0" type="qcurve"/>
      <point x="38" y="0" type="line"/>
      <point x="80" y="98"/>
      <point x="123" y="295"/>
      <point x="121" y="386" type="qcurve"/>
      <point x="25" y="386" type="line"/>
      <point x="25" y="494" type="line"/>
      <point x="562" y="494" type="line"/>
      <point x="562" y="386" type="line"/>
      <point x="464" y="386" type="line"/>
      <point x="464" y="173" type="line" smooth="yes"/>
      <point x="464" y="141"/>
      <point x="496" y="110"/>
      <point x="529" y="110" type="qcurve"/>
      <point x="543" y="110" type="line"/>
      <point x="543" y="0" type="line"/>
      <point x="492" y="0" type="line" smooth="yes"/>
      <point x="425" y="0"/>
      <point x="348" y="77"/>
      <point x="348" y="144" type="qcurve"/>
      <point x="348" y="386" type="line"/>
      <point x="236" y="386" type="line"/>
      <point x="237" y="286"/>
      <point x="203" y="93"/>
    </contour>
  </outline>
</glyph>
<glyph name="uni1E9E" format="1">
  <advance width="650"/>
  <unicode hex="1E9E"/>
  <outline>
    <contour>
      <point x="311" y="637" type="qcurve"/>
      <point x="378" y="637"/>
      <point x="499" y="619"/>
      <point x="544" y="603" type="qcurve"/>
      <point x="480" y="358" type="line"/>
      <point x="534" y="343" type="line" smooth="yes"/>
      <point x="585" y="329"/>
      <point x="623" y="264"/>
      <point x="623" y="195" type="qcurve" smooth="yes"/>
      <point x="623" y="91"/>
      <point x="535" y="-10"/>
      <point x="445" y="-10" type="qcurve" smooth="yes"/>
      <point x="403" y="-10"/>
      <point x="328" y="-3"/>
      <point x="301" y="3" type="qcurve"/>
      <point x="301" y="107" type="line"/>
      <point x="329" y="102"/>
      <point x="388" y="97"/>
      <point x="419" y="97" type="qcurve" smooth="yes"/>
      <point x="465" y="97"/>
      <point x="505" y="142"/>
      <point x="505" y="192" type="qcurve" smooth="yes"/>
      <point x="505" y="225"/>
      <point x="488" y="251"/>
      <point x="462" y="258" type="qcurve"/>
      <point x="354" y="285" type="line"/>
      <point x="415" y="524" type="line"/>
      <point x="403" y="527"/>
      <point x="332" y="532"/>
      <point x="302" y="532" type="qcurve"/>
      <point x="235" y="532"/>
      <point x="176" y="479"/>
      <point x="176" y="420" type="qcurve"/>
      <point x="176" y="0" type="line"/>
      <point x="56" y="0" type="line"/>
      <point x="56" y="421" type="line" smooth="yes"/>
      <point x="56" y="532"/>
      <point x="180" y="637"/>
    </contour>
  </outline>
</glyph>
<glyph name="endash" format="1">
  <advance width="496"/>
  <unicode hex="2013"/>
  <outline>
    <contour>
      <point x="453" y="363" type="line"/>
      <point x="453" y="274" type="line"/>
      <point x="44" y="274" type="line"/>
      <point x="44" y="363" type="line"/>
    </contour>
  </outline>
</glyph>
<glyph name="quoteleft" format="1">
  <advance width="175"/>
  <unicode hex="2018"/>
  <outline>
    <contour>
      <point x="27" y="420" type="line"/>
      <point x="55" y="586" type="line" smooth="yes"/>
      <point x="58" y="605"/>
      <point x="84" y="627"/>
      <point x="104" y="627" type="qcurve"/>
      <point x="136" y="627" type="line"/>
      <point x="133" y="420" type="line"/>
    </contour>
  </outline>
</glyph>
<glyph name="quoteright" format="1">
  <advance width="170"/>
  <unicode hex="2019"/>
  <outline>
    <contour>
      <point x="148" y="627" type="line"/>
      <point x="120" y="461" type="line" smooth="yes"/>
      <point x="117" y="442"/>
      <point x="91" y="420"/>
      <point x="71" y="420" type="qcurve"/>
      <point x="39" y="420" type="line"/>
      <point x="42" y="627" type="line"/>
    </contour>
  </outline>
</glyph>
<glyph name="dagger" format="1">
  <advance width="347"/>
  <unicode hex="2020"/>
  <outline>
    <contour>
      <point x="209" y="444" type="line"/>
      <point x="219" y="221" type="line"/>
      <point x="128" y="221" type="line"/>
      <point x="138" y="444" type="line"/>
      <point x="21" y="438" type="line"/>
      <point x="21" y="519" type="line"/>
      <point x="137" y="512" type="line"/>
      <point x="130" y="627" type="line"/>
      <point x="217" y="627" type="line"/>
      <point x="211" y="512" type="line"/>
      <point x="326" y="519" type="line"/>
      <point x="326" y="438" type="line"/>
    </contour>
  </outline>
</glyph>
<glyph name="daggerdbl" format="1">
  <advance width="376"/>
  <unicode hex="2021"/>
  <outline>
    <contour>
      <point x="341" y="308" type="line"/>
      <point x="341" y="227" type="line"/>
      <point x="225" y="233" type="line"/>
      <point x="231" y="118" type="line"/>
      <point x="144" y="118" type="line"/>
      <point x="150" y="234" type="line"/>
      <point x="36" y="227" type="line"/>
      <point x="36" y="308" type="line"/>
      <point x="154" y="302" type="line"/>
      <point x="154" y="444" type="line"/>
      <point x="36" y="438" type="line"/>
      <point x="36" y="519" type="line"/>
      <point x="151" y="512" type="line"/>
      <point x="144" y="627" type="line"/>
      <point x="231" y="627" type="line"/>
      <point x="225" y="512" type="line"/>
      <point x="341" y="519" type="line"/>
      <point x="341" y="438" type="line"/>
      <point x="222" y="444" type="line"/>
      <point x="222" y="301" type="line"/>
    </contour>
  </outline>
</glyph>
<glyph name="bullet" format="1">
  <advance width="309"/>
  <unicode hex="2022"/>
  <outline>
    <contour>
      <point x="246" y="240" type="line"/>
      <point x="67" y="240" type="line"/>
      <point x="67" y="401" type="line"/>
      <point x="246" y="401" type="line"/>
    </contour>
  </outline>
</glyph>
<glyph name="ellipsis" format="1">
  <advance width="556"/>
  <unicode hex="2026"/>
  <outline>
    <contour>
      <point x="327" y="0" type="line"/>
      <point x="229" y="0" type="line"/>
      <point x="229" y="111" type="line"/>
      <point x="327" y="111" type="line"/>
    </contour>
    <contour>
      <point x="136" y="0" type="line"/>
      <point x="38" y="0" type="line"/>
      <point x="38" y="111" type="line"/>
      <point x="136" y="111" type="line"/>
    </contour>
    <contour>
      <point x="519" y="0" type="line"/>
      <point x="420" y="0" type="line"/>
      <point x="420" y="111" type="line"/>
      <point x="519" y="111" type="line"/>
    </contour>
  </outline>
</glyph>
<glyph name="perthousand" format="1">
  <advance width="953"/>
  <unicode hex="2030"/>
  <outline>
    <contour>
      <point x="281" y="477" type="qcurve"/>
      <point x="281" y="392"/>
      <point x="222" y="320"/>
      <point x="152" y="320" type="qcurve"/>
      <point x="81" y="320"/>
      <point x="21" y="392"/>
      <point x="21" y="477" type="qcurve"/>
      <point x="21" y="561"/>
      <point x="81" y="633"/>
      <point x="152" y="633" type="qcurve"/>
      <point x="222" y="633"/>
      <point x="281" y="561"/>
    </contour>
    <contour>
      <point x="517" y="627" type="line"/>
      <point x="217" y="0" type="line"/>
      <point x="135" y="0" type="line"/>
      <point x="435" y="627" type="line"/>
    </contour>
    <contour>
      <point x="201" y="477" type="qcurve"/>
      <point x="201" y="527"/>
      <point x="179" y="566"/>
      <point x="152" y="566" type="qcurve"/>
      <point x="124" y="566"/>
      <point x="102" y="527"/>
      <point x="102" y="477" type="qcurve"/>
      <point x="102" y="428"/>
      <point x="124" y="391"/>
      <point x="152" y="391" type="qcurve"/>
      <point x="180" y="391"/>
      <point x="201" y="428"/>
    </contour>
    <contour>
      <point x="633" y="152" type="qcurve"/>
      <point x="633" y="68"/>
      <point x="573" y="-5"/>
      <point x="503" y="-5" type="qcurve"/>
      <point x="432" y="-5"/>
      <point x="372" y="67"/>
      <point x="372" y="152" type="qcurve"/>
      <point x="372" y="236"/>
      <point x="432" y="308"/>
      <point x="503" y="308" type="qcurve"/>
      <point x="573" y="308"/>
      <point x="633" y="236"/>
    </contour>
    <contour>
      <point x="932" y="152" type="qcurve"/>
      <point x="932" y="68"/>
      <point x="872" y="-5"/>
      <point x="802" y="-5" type="qcurve"/>
      <point x="731" y="-5"/>
      <point x="671" y="67"/>
      <point x="671" y="152" type="qcurve"/>
      <point x="671" y="236"/>
      <point x="731" y="308"/>
      <point x="802" y="308" type="qcurve"/>
      <point x="872" y="308"/>
      <point x="932" y="236"/>
    </contour>
    <contour>
      <point x="552" y="152" type="qcurve"/>
      <point x="552" y="202"/>
      <point x="530" y="241"/>
      <point x="503" y="241" type="qcurve"/>
      <point x="475" y="241"/>
      <point x="453" y="202"/>
      <point x="453" y="152" type="qcurve"/>
      <point x="453" y="103"/>
      <point x="475" y="66"/>
      <point x="503" y="66" type="qcurve"/>
      <point x="531" y="66"/>
      <point x="552" y="103"/>
    </contour>
    <contour>
      <point x="852" y="152" type="qcurve"/>
      <point x="852" y="201"/>
      <point x="830" y="241"/>
      <point x="802" y="241" type="qcurve"/>
      <point x="774" y="241"/>
      <point x="752" y="201"/>
      <point x="752" y="152" type="qcurve"/>
      <point x="752" y="104"/>
      <point x="774" y="66"/>
      <point x="802" y="66" type="qcurve"/>
      <point x="830" y="66"/>
      <point x="852" y="104"/>
    </contour>
  </outline>
</glyph>
<glyph name="guilsinglright" format="1">
  <advance width="311"/>
  <unicode hex="203A"/>
  <outline>
    <contour>
      <point x="294" y="281" type="line"/>
      <point x="145" y="64" type="line"/>
      <point x="21" y="64" type="line"/>
      <point x="169" y="282" type="line"/>
      <point x="21" y="494" type="line"/>
      <point x="145" y="494" type="line"/>
    </contour>
  </outline>
</glyph>
<glyph name="fraction" format="1">
  <advance width="168"/>
  <unicode hex="2044"/>
  <outline>
    <contour>
      <point x="275" y="627" type="line"/>
      <point x="-25" y="0" type="line"/>
      <point x="-107" y="0" type="line"/>
      <point x="193" y="627" type="line"/>
    </contour>
  </outline>
</glyph>
<glyph name="uni2070" format="1">
  <advance width="361"/>
  <unicode hex="2070"/>
  <outline>
    <contour>
      <point x="333" y="450" type="qcurve"/>
      <point x="333" y="348"/>
      <point x="267" y="265"/>
      <point x="181" y="265" type="qcurve"/>
      <point x="91" y="265"/>
      <point x="28" y="341"/>
      <point x="28" y="450" type="qcurve"/>
      <point x="28" y="550"/>
      <point x="95" y="633"/>
      <point x="181" y="633" type="qcurve"/>
      <point x="270" y="633"/>
      <point x="333" y="557"/>
    </contour>
    <contour>
      <point x="244" y="450" type="qcurve"/>
      <point x="244" y="515"/>
      <point x="221" y="554"/>
      <point x="181" y="554" type="qcurve"/>
      <point x="140" y="554"/>
      <point x="116" y="513"/>
      <point x="116" y="450" type="qcurve"/>
      <point x="116" y="387"/>
      <point x="140" y="346"/>
      <point x="181" y="346" type="qcurve"/>
      <point x="221" y="346"/>
      <point x="244" y="385"/>
    </contour>
  </outline>
</glyph>
<glyph name="uni2074" format="1">
  <advance width="333"/>
  <unicode hex="2074"/>
  <outline>
    <contour>
      <point x="314" y="427" type="line"/>
      <point x="314" y="351" type="line"/>
      <point x="271" y="351" type="line"/>
      <point x="271" y="270" type="line"/>
      <point x="185" y="270" type="line"/>
      <point x="185" y="351" type="line"/>
      <point x="23" y="351" type="line"/>
      <point x="23" y="428" type="line"/>
      <point x="67" y="627" type="line"/>
      <point x="149" y="627" type="line"/>
      <point x="110" y="427" type="line"/>
      <point x="188" y="427" type="line"/>
      <point x="188" y="565" type="line"/>
      <point x="271" y="565" type="line"/>
      <point x="271" y="427" type="line"/>
    </contour>
  </outline>
</glyph>
<glyph name="uni2075" format="1">
  <advance width="289"/>
  <unicode hex="2075"/>
  <outline>
    <contour>
      <point x="268" y="378" type="qcurve" smooth="yes"/>
      <point x="268" y="324"/>
      <point x="203" y="265"/>
      <point x="144" y="265" type="qcurve"/>
      <point x="100" y="265"/>
      <point x="41" y="271"/>
      <point x="26" y="277" type="qcurve"/>
      <point x="26" y="350" type="line"/>
      <point x="48" y="346"/>
      <point x="93" y="343"/>
      <point x="120" y="343" type="qcurve"/>
      <point x="155" y="343"/>
      <point x="183" y="359"/>
      <point x="183" y="379" type="qcurve" smooth="yes"/>
      <point x="183" y="401"/>
      <point x="157" y="417"/>
      <point x="118" y="417" type="qcurve" smooth="yes"/>
      <point x="100" y="417"/>
      <point x="59" y="414"/>
      <point x="42" y="412" type="qcurve"/>
      <point x="42" y="627" type="line"/>
      <point x="244" y="627" type="line"/>
      <point x="244" y="552" type="line"/>
      <point x="125" y="552" type="line"/>
      <point x="125" y="483" type="line"/>
      <point x="132" y="484"/>
      <point x="149" y="485"/>
      <point x="165" y="485" type="qcurve" smooth="yes"/>
      <point x="219" y="485"/>
      <point x="268" y="433"/>
    </contour>
  </outline>
</glyph>
<glyph name="uni2076" format="1">
  <advance width="322"/>
  <unicode hex="2076"/>
  <outline>
    <contour>
      <point x="171" y="265" type="qcurve"/>
      <point x="90" y="265"/>
      <point x="27" y="342"/>
      <point x="27" y="439" type="qcurve"/>
      <point x="27" y="540"/>
      <point x="112" y="633"/>
      <point x="204" y="633" type="qcurve"/>
      <point x="221" y="633"/>
      <point x="256" y="630"/>
      <point x="264" y="628" type="qcurve"/>
      <point x="264" y="560" type="line"/>
      <point x="246" y="561"/>
      <point x="216" y="563"/>
      <point x="204" y="563" type="qcurve"/>
      <point x="158" y="563"/>
      <point x="118" y="529"/>
      <point x="113" y="487" type="qcurve"/>
      <point x="135" y="498"/>
      <point x="177" y="507"/>
      <point x="202" y="507" type="qcurve"/>
      <point x="253" y="507"/>
      <point x="303" y="450"/>
      <point x="303" y="392" type="qcurve"/>
      <point x="303" y="332"/>
      <point x="233" y="265"/>
    </contour>
    <contour>
      <point x="223" y="388" type="qcurve"/>
      <point x="223" y="416"/>
      <point x="203" y="437"/>
      <point x="172" y="437" type="qcurve"/>
      <point x="156" y="437"/>
      <point x="121" y="431"/>
      <point x="110" y="426" type="qcurve"/>
      <point x="111" y="372"/>
      <point x="134" y="337"/>
      <point x="168" y="337" type="qcurve"/>
      <point x="196" y="337"/>
      <point x="223" y="362"/>
    </contour>
  </outline>
</glyph>
<glyph name="uni2077" format="1">
  <advance width="288"/>
  <unicode hex="2077"/>
  <outline>
    <contour>
      <point x="270" y="627" type="line"/>
      <point x="270" y="549" type="line"/>
      <point x="118" y="270" type="line"/>
      <point x="19" y="270" type="line"/>
      <point x="176" y="549" type="line"/>
      <point x="23" y="549" type="line"/>
      <point x="23" y="627" type="line"/>
    </contour>
  </outline>
</glyph>
